<?xml version="1.0" encoding="UTF-8" standalone="no"?>
<svg width="95px" height="27px" viewBox="0 0 95 27" version="1.1" xmlns="http://www.w3.org/2000/svg" xmlns:xlink="http://www.w3.org/1999/xlink">
    <!-- Generator: Sketch 44.1 (41455) - http://www.bohemiancoding.com/sketch -->
    <title>readmore</title>
    <desc>Created with Sketch.</desc>
    <defs></defs>
    <g id="Page-1" stroke="none" stroke-width="1" fill="none" fill-rule="evenodd">
        <g id="VENUE-PAGE" transform="translate(-141.000000, -1130.000000)">
            <g id="OVERVIEW" transform="translate(-5.000000, 672.000000)">
                <g id="readmore" transform="translate(143.000000, 457.000000)">
                    <rect id="Rectangle-3" fill="#FF6016" fill-rule="evenodd" x="3" y="1" width="95" height="27" rx="13.5"></rect>
                    <g id="Page-1" stroke-width="1" fill-rule="evenodd" transform="translate(81.000000, 9.000000)" fill="#FFFFFF">
                        <path d="M12.2848558,4.58322222 L8.06610577,0.356055556 C7.84399038,0.129277778 7.546875,0.00288888889 7.22884615,0 C6.90432692,0.00794444444 6.60072115,0.122055556 6.36850962,0.353166667 C5.90480769,0.819 5.90480769,1.57661111 6.36923077,2.04244444 L8.55216346,4.22788889 L1.19350962,4.22788889 C0.535817308,4.22788889 0,4.7645 0,5.42388889 C0,6.08616667 0.535817308,6.62494444 1.19350962,6.62494444 L8.54927885,6.62494444 L6.36057692,8.81183333 C5.90480769,9.28488889 5.90985577,10.0432222 6.37067308,10.4996667 C6.59783654,10.7264444 6.89855769,10.8513889 7.21802885,10.8513889 L7.22884615,10.8513889 C7.54903846,10.8485 7.84759615,10.7206667 8.0625,10.4982222 L12.2769231,6.27827778 C12.50625,6.05511111 12.6375,5.74311111 12.6367788,5.42244444 C12.6360577,5.10322222 12.5033654,4.79338889 12.2848558,4.58322222" id="Fill-4"></path>
                    </g>
                    <text id="READ-MORE" font-family="AvenirNext-Bold, Avenir Next" font-size="11" font-weight="bold" fill="#FFFFFF">
                        <tspan x="10" y="18">READ MORE</tspan>
                    </text>
                </g>
            </g>
        </g>
    </g>
</svg>