<?xml version="1.0" encoding="UTF-8" standalone="no"?>
<svg width="40px" height="38px" viewBox="0 0 40 38" version="1.1" xmlns="http://www.w3.org/2000/svg" xmlns:xlink="http://www.w3.org/1999/xlink">
    <!-- Generator: Sketch 44.1 (41455) - http://www.bohemiancoding.com/sketch -->
    <title>Page 1</title>
    <desc>Created with Sketch.</desc>
    <defs></defs>
    <g id="Page-1" stroke="none" stroke-width="1" fill="none" fill-rule="evenodd">
        <g id="VENUE-PAGE" transform="translate(-80.000000, -3516.000000)" fill="#393D41">
            <g id="REVIEWS" transform="translate(20.000000, 3354.000000)">
                <path d="M80,162 C68.9538342,162 60,170.042182 60,179.9645 C60,189.885955 68.9538342,197.929 80,197.929 C82.4147593,197.929 84.7243416,197.534318 86.8701237,196.832182 C83.0208199,194.319 83.0104746,194.207591 83.0173714,193.775773 C83.0208199,193.54 83.15186,193.313727 83.3535928,193.1885 C83.6673995,193.002818 84.0648304,193.090909 84.2734601,193.381091 C84.6674426,193.704955 86.5770076,194.986591 88.4831243,196.231955 C88.4865727,196.231955 88.4926074,196.2285 88.4995043,196.225045 C93.14367,199.035318 100,200 100,200 C97.7567999,197.752818 96.9653864,193.134955 96.6929609,189.855727 C98.7809819,187.018682 100,183.621136 100,179.9645 C100,170.042182 91.0453037,162 80,162" id="Page-1"></path>
            </g>
        </g>
    </g>
</svg>