<?xml version="1.0" encoding="UTF-8" standalone="no"?>
<svg width="74px" height="52px" viewBox="0 0 74 52" version="1.1" xmlns="http://www.w3.org/2000/svg" xmlns:xlink="http://www.w3.org/1999/xlink">
    <!-- Generator: Sketch 44.1 (41455) - http://www.bohemiancoding.com/sketch -->
    <title>PigTail</title>
    <desc>Created with Sketch.</desc>
    <defs></defs>
    <g id="Page-1" stroke="none" stroke-width="1" fill="none" fill-rule="evenodd">
        <g id="VENUE-PAGE" transform="translate(-152.000000, -672.000000)" fill="#393D41">
            <g id="OVERVIEW" transform="translate(-5.000000, 672.000000)">
                <g id="PigTail" transform="translate(157.000000, 0.000000)">
                    <g id="Page-1">
                        <path d="M33.7978578,25.0421053 C32.7529996,26.7070632 31.8899389,27.5965368 29.6413201,28.8052632 C27.3927013,30.0139895 23.5314821,29.3526316 23.2361635,26.2052632 C22.9408449,23.0578947 25.0987013,22.4421053 28.2103808,22.5105263 C31.3220604,22.5789474 33.7978578,25.0421053 33.7978578,25.0421053 M41.3613937,14.7789474 C41.0888339,23.5710526 38.5676552,28.9078947 34.6836773,32.9105263 C30.7996994,36.9131579 25.3485024,37.3578947 21.8733643,35.8526316 C18.3982262,34.3473684 12.9470291,29.8657895 14.3779683,22.1 C15.8089076,14.3342105 23.9175632,13.3421053 25.9617621,13.1368421 C28.005961,12.9315789 33.0142483,12.8289474 37.6818357,16.1473684 C37.6818357,16.1473684 37.4774158,20.4921053 34.6155374,24.0842105 C34.6155374,24.0842105 31.4810991,20.8 26.4387418,21.3473684 C21.3963845,21.8947368 21.9000751,25.1069684 21.9415042,26.3421053 C21.9926092,27.8644737 23.7131433,31.0973684 28.0741009,30.3105263 C32.4350586,29.5236842 34.4451875,26.7868421 36.1827565,23.8105263 C37.9203256,20.8342105 38.6017252,17.4473684 38.7720751,14.1631579 C38.942425,10.8789474 37.3411359,5.88421053 32.5031985,2.18947368 C32.5031985,2.18947368 41.6339536,5.98684211 41.3613937,14.7789474 M48.7205098,31.0631579 C47.5621304,24.7 44.529902,21.0052632 42.1109333,18.5421053 C42.8604729,11.9052632 40.9866239,7.45789474 37.3411359,4.17368421 C33.6956479,0.889473684 29.2324803,0 29.2324803,0 C39.7601046,8.89473684 37.8181157,14.9842105 37.8181157,14.9842105 C37.8181157,14.9842105 34.8880972,11.8026316 27.1201414,11.9736842 C19.3521856,12.1447368 14.6505282,16.4552632 13.4240088,21.8263158 C12.1974895,27.1973684 15.025298,35.6815789 23.5087234,37.4263158 C31.9921488,39.1710526 37.4774158,31.4052632 37.4774158,31.4052632 C39.2262961,37.8139895 35.1606571,42.8315789 35.1606571,42.8315789 C40.850344,36.5026316 38.2269554,29.9 38.2269554,29.9 C41.0547639,25.0078947 41.8383735,19.7736842 41.8383735,19.7736842 C46.505961,24.8026316 47.6302703,31.3368421 47.6302703,31.3368421 C49.7766792,41.5315789 46.1993311,50.0157895 46.1993311,50.0157895 C49.3678394,44.9868421 49.8788891,37.4263158 48.7205098,31.0631579" id="Fill-1"></path>
                        <path d="M0.340699816,51.9206316 L0,51.9206316 C0,51.9206316 13.1838564,37.8565474 37.1362799,38.9206316 L37.2725599,39.5473684 C37.2725599,39.5473684 17.8307293,38.1898947 0.340699816,51.9206316" id="Fill-3"></path>
                        <path d="M73.93186,51.8522105 C73.93186,51.8522105 64.4753959,43.6975158 48.8563536,40.3574737 C48.3819632,41.6908632 48.7882136,41.0526316 48.7882136,41.0526316 C48.7882136,41.0526316 60.6445672,42.0789474 73.1141805,51.8522105 L73.93186,51.8522105 Z" id="Fill-5"></path>
                    </g>
                </g>
            </g>
        </g>
    </g>
</svg>