<?xml version="1.0" encoding="UTF-8" standalone="no"?>
<svg width="31px" height="31px" viewBox="0 0 31 31" version="1.1" xmlns="http://www.w3.org/2000/svg" xmlns:xlink="http://www.w3.org/1999/xlink">
    <!-- Generator: Sketch 44.1 (41455) - http://www.bohemiancoding.com/sketch -->
    <title>Fill 1</title>
    <desc>Created with Sketch.</desc>
    <defs></defs>
    <g id="Page-1" stroke="none" stroke-width="1" fill="none" fill-rule="evenodd">
        <g id="Homepage" transform="translate(-301.000000, -3959.000000)" fill="#3DCCB1">
            <g id="TALE-1" transform="translate(0.000000, 3604.000000)">
                <g id="Page-1" transform="translate(301.000000, 355.026605)">
                    <path d="M21.9273423,18.0152236 C21.5531858,17.8289368 19.7136364,16.9285745 19.3706416,16.8042167 C19.0277185,16.6800017 18.7782808,16.6180013 18.5288431,16.9905035 C18.2794054,17.363077 17.5623258,18.2015818 17.3440498,18.4500117 C17.1258456,18.6983703 16.9075697,18.7295847 16.5334131,18.5431551 C16.1592565,18.3568683 14.9536408,17.9638661 13.5245077,16.6956446 C12.4122337,15.7086391 11.6612639,14.489775 11.4430597,14.11713 C11.2247838,13.7444851 11.4197243,13.5430553 11.6070539,13.3574829 C11.775428,13.1906248 11.9812823,12.9226947 12.1683247,12.7053363 C12.3554389,12.4880494 12.4177624,12.3326913 12.5424813,12.0844042 C12.6672002,11.8359028 12.6048766,11.6186159 12.5112477,11.4323291 C12.4177624,11.2460423 11.6694493,9.41381765 11.357688,8.66845628 C11.0539685,7.94273788 10.7455101,8.04102416 10.5158177,8.02952409 C10.297829,8.01873831 10.048104,8.01645259 9.79873812,8.01645259 C9.54930039,8.01645259 9.14391024,8.10959597 8.80091542,8.48216951 C8.4579924,8.85481448 7.49140326,9.75539102 7.49140326,11.5874014 C7.49140326,13.4196261 8.83207718,15.1894933 9.01919138,15.4379232 C9.20630557,15.6864246 11.6575302,19.4460174 15.4110151,21.0583122 C16.3036489,21.4418858 17.0006242,21.6708871 17.5440164,21.8423881 C18.4403121,22.1257469 19.2559749,22.0857466 19.9006788,21.9898889 C20.6195534,21.8831026 22.1143847,21.0895267 22.4262178,20.2200932 C22.737979,19.3504454 22.737979,18.6052269 22.6444219,18.4500117 C22.5509367,18.2947251 22.3014989,18.2015818 21.9273423,18.0152236 M15.1003309,27.2884904 L15.0953048,27.2884904 C12.8619253,27.2876333 10.6714111,26.6907013 8.76049128,25.5626235 L8.30598904,25.2942648 L3.59539278,26.5235575 L4.85270539,21.9545316 L4.55681222,21.4860289 C3.31091602,19.5147321 2.65285709,17.2362906 2.6538623,14.8967059 C2.65659075,8.07002432 8.24000364,2.51599283 15.1052852,2.51599283 C18.4296855,2.5171357 21.5546218,3.80671444 23.9046066,6.14715628 C26.2544478,8.48745526 27.5478047,11.59833 27.5465123,14.9067059 C27.543712,21.7339589 21.9603709,27.2884904 15.1003309,27.2884904 M25.6930335,4.36878905 C22.8658572,1.55298738 19.1060538,0.00162143776 15.1001873,-2.14286929e-05 C6.84641216,-2.14286929e-05 0.128825897,6.68230217 0.125523037,14.8957773 C0.124446018,17.5213636 0.813953926,20.084021 2.1243995,22.3432481 L1.43602605e-05,30.062649 L7.93822277,27.9911373 C10.125434,29.1779297 12.5880033,29.8035047 15.0942278,29.8042904 L15.1003309,29.8042904 L15.1004027,29.8042904 C23.3533162,29.8042904 30.0714769,23.1213239 30.0748515,14.9077059 C30.0763594,10.9272548 28.5202097,7.1845193 25.6930335,4.36878905" id="Fill-1"></path>
                </g>
            </g>
        </g>
    </g>
</svg>