<?xml version="1.0" encoding="UTF-8" standalone="no"?>
<svg width="373px" height="703px" viewBox="0 0 373 703" version="1.1" xmlns="http://www.w3.org/2000/svg" xmlns:xlink="http://www.w3.org/1999/xlink">
    <!-- Generator: Sketch 44.1 (41455) - http://www.bohemiancoding.com/sketch -->
    <title>Page 1</title>
    <desc>Created with Sketch.</desc>
    <defs>
        <polygon id="path-1" points="0.00084836618 728.534498 403.973735 728.534498 403.973735 -5.68434189e-14 0.00084836618 6.37205341e-14"></polygon>
    </defs>
    <g id="Page-1" stroke="none" stroke-width="1" fill="none" fill-rule="evenodd">
        <g id="VENUE-PAGE" transform="translate(-2.000000, -1889.000000)">
            <g id="HUB" transform="translate(0.000000, 1795.000000)">
                <g id="Page-1" transform="translate(2.000000, 69.000000)">
                    <mask id="mask-2" fill="white">
                        <use xlink:href="#path-1"></use>
                    </mask>
                    <g id="Clip-2"></g>
                    <path d="M482.856828,141.921243 C486.130851,144.509052 489.422699,147.203819 492.640274,149.925327 C493.47512,150.638386 494.500109,150.983031 495.516185,150.983031 C496.778852,150.983031 498.038549,150.445266 498.91796,149.405388 C500.507435,147.527667 500.275699,144.714056 498.395067,143.124529 C495.106189,140.337658 491.737095,137.580498 488.385826,134.930297 C486.457659,133.403163 483.653051,133.729981 482.125966,135.661182 C480.598881,137.589411 480.92866,140.391138 482.856828,141.921243 L482.856828,141.921243 Z M310.612801,33.8323625 C326.543209,36.9044571 342.41717,41.0520819 357.797947,46.162336 C390.345061,56.9711175 421.299729,72.2246316 449.806307,91.4980141 C450.566879,92.0179527 451.437377,92.2645522 452.295991,92.2645522 C453.725033,92.2645522 455.133279,91.5782332 455.991893,90.3036408 C457.3734,88.2684524 456.835652,85.4964367 454.794587,84.1178565 C425.616567,64.386928 393.928066,48.7709424 360.605525,37.700706 C344.859317,32.4716089 328.611013,28.2289096 312.300319,25.082538 C309.899765,24.6131077 307.546747,26.1937212 307.083273,28.6121786 C306.613858,31.0306361 308.197392,33.3688744 310.612801,33.8323625 L310.612801,33.8323625 Z M457.021163,-10.5604186 L457.912458,-10.5604186 L457.912458,-9.66612418 C457.912458,-7.20607166 459.908958,-5.20950729 462.368932,-5.20950729 C464.831876,-5.20950729 466.825406,-7.20607166 466.825406,-9.66612418 L466.825406,-10.5604186 L467.719671,-10.5604186 C470.179645,-10.5604186 472.176145,-12.556983 472.176145,-15.0170355 C472.176145,-17.4770881 470.179645,-19.4736524 467.719671,-19.4736524 L466.825406,-19.4736524 L466.825406,-20.3679469 C466.825406,-22.8279994 464.831876,-24.8245638 462.368932,-24.8245638 C459.908958,-24.8245638 457.912458,-22.8279994 457.912458,-20.3679469 L457.912458,-19.4736524 L457.021163,-19.4736524 C454.561189,-19.4736524 452.564689,-17.4770881 452.564689,-15.0170355 C452.564689,-12.556983 454.561189,-10.5604186 457.021163,-10.5604186 L457.021163,-10.5604186 Z M64.4771132,419.642753 C62.0171396,419.642753 60.0206393,421.636346 60.0206393,424.099369 L60.0206393,428.327213 L55.792931,428.327213 C53.3329574,428.327213 51.3364571,430.320807 51.3364571,432.78383 C51.3364571,435.243883 53.3329574,437.240447 55.792931,437.240447 L60.0206393,437.240447 L60.0206393,441.46532 C60.0206393,443.925372 62.0171396,445.921937 64.4771132,445.921937 C66.9370868,445.921937 68.9335871,443.925372 68.9335871,441.46532 L68.9335871,437.240447 L73.1612954,437.240447 C75.621269,437.240447 77.6177693,435.243883 77.6177693,432.78383 C77.6177693,430.320807 75.621269,428.327213 73.1612954,428.327213 L68.9335871,428.327213 L68.9335871,424.099369 C68.9335871,421.636346 66.9370868,419.642753 64.4771132,419.642753 L64.4771132,419.642753 Z M229.039841,-275.402305 L233.267549,-275.402305 L233.267549,-271.174462 C233.267549,-268.711438 235.264049,-266.717845 237.724023,-266.717845 C240.183996,-266.717845 242.180497,-268.711438 242.180497,-271.174462 L242.180497,-275.402305 L246.408205,-275.402305 C248.868179,-275.402305 250.864679,-277.395899 250.864679,-279.858922 C250.864679,-282.318975 248.868179,-284.315539 246.408205,-284.315539 L242.180497,-284.315539 L242.180497,-288.543383 C242.180497,-291.003436 240.183996,-293 237.724023,-293 C235.264049,-293 233.267549,-291.003436 233.267549,-288.543383 L233.267549,-284.315539 L229.039841,-284.315539 C226.579867,-284.315539 224.583367,-282.318975 224.583367,-279.858922 C224.583367,-277.395899 226.579867,-275.402305 229.039841,-275.402305 L229.039841,-275.402305 Z M250.653739,139.871199 C253.113713,139.871199 255.110213,137.874635 255.110213,135.414582 C255.110213,132.95453 253.113713,130.957965 250.653739,130.957965 L247.21037,130.957965 C244.747426,130.957965 242.753896,132.95453 242.753896,135.414582 C242.753896,137.874635 244.747426,139.871199 247.21037,139.871199 L250.653739,139.871199 Z M196.05005,193.656623 C193.590076,193.656623 191.593576,195.653187 191.593576,198.11324 C191.593576,200.573292 193.590076,202.569857 196.05005,202.569857 L199.493418,202.569857 C201.953392,202.569857 203.949892,200.573292 203.949892,198.11324 C203.949892,195.653187 201.953392,193.656623 199.493418,193.656623 L196.05005,193.656623 Z M223.181063,171.097228 C223.181063,168.637176 221.184562,166.640611 218.724589,166.640611 L185.930883,166.640611 C183.470909,166.640611 181.474409,168.637176 181.474409,171.097228 C181.474409,173.557281 183.470909,175.553845 185.930883,175.553845 L218.724589,175.553845 C221.184562,175.553845 223.181063,173.557281 223.181063,171.097228 L223.181063,171.097228 Z M304.630551,160.29736 L304.603812,160.751935 C304.538451,162.386028 305.370326,163.922075 306.769659,164.759919 C308.174934,165.594792 309.921871,165.603705 311.327146,164.768832 C314.509069,162.88814 318.127725,161.892829 321.793918,161.892829 C333.068797,161.892829 342.243191,170.960559 342.243191,182.108043 C342.243191,193.255527 333.068797,202.326228 321.793918,202.326228 L260.226245,202.326228 C247.18066,202.326228 236.56534,191.82941 236.56534,178.926019 C236.56534,166.028569 247.168776,155.534722 260.318346,155.534722 L260.330229,155.534722 L260.915513,155.567404 L261.013555,155.567404 C262.837739,155.567404 264.483663,154.45325 265.158076,152.750822 C268.250869,144.925003 275.72289,139.871199 284.196133,139.871199 C295.471012,139.871199 304.645406,148.938929 304.630551,160.29736 L304.630551,160.29736 Z M258.143586,146.68091 C254.611088,146.903741 251.241994,147.711874 248.101665,148.96864 L216.139834,148.96864 C213.676889,148.96864 211.68336,150.965204 211.68336,153.425257 C211.68336,155.885309 213.676889,157.881874 216.139834,157.881874 L235.573031,157.881874 C230.653084,163.541777 227.652392,170.886282 227.652392,178.926019 C227.652392,184.232364 228.971508,189.235659 231.268077,193.656623 L216.139834,193.656623 C213.676889,193.656623 211.68336,195.653187 211.68336,198.11324 C211.68336,200.573292 213.676889,202.569857 216.139834,202.569857 L232.533716,202.569857 C234.048917,202.569857 235.382888,201.809261 236.188025,200.656483 C242.147816,207.139375 250.704246,211.239462 260.226245,211.239462 L321.793918,211.239462 C337.982802,211.239462 351.156139,198.172661 351.156139,182.108043 C351.156139,166.046396 337.982802,152.979595 321.793918,152.979595 C318.799167,152.979595 315.825214,153.440112 312.981983,154.337378 C310.284331,141.018035 298.400401,130.957965 284.196133,130.957965 C273.081687,130.957965 263.158605,137.036791 258.143586,146.68091 L258.143586,146.68091 Z M31.3714539,-42.4014608 C31.3714539,-39.4690069 33.7571529,-37.0802603 36.6895127,-37.0802603 C39.6248436,-37.0802603 42.0135136,-39.4690069 42.0135136,-42.4014608 C42.0135136,-45.3339147 39.6248436,-47.7226614 36.6895127,-47.7226614 C33.7571529,-47.7226614 31.3714539,-45.3339147 31.3714539,-42.4014608 L31.3714539,-42.4014608 Z M480.797937,529.733074 C480.797937,532.392189 482.960812,534.555134 485.619842,534.555134 C488.278871,534.555134 490.444717,532.392189 490.444717,529.733074 C490.444717,527.076931 488.278871,524.911015 485.619842,524.911015 C482.960812,524.911015 480.797937,527.076931 480.797937,529.733074 L480.797937,529.733074 Z M233.728051,468.335749 L246.625087,468.335749 L181.459554,533.503372 L183.432286,518.636098 L233.728051,468.335749 Z M35.8249568,653.638908 L33.3530993,651.166971 L185.666465,498.848719 C185.669436,498.842777 185.672407,498.836835 185.675378,498.833864 L217.438153,467.073041 C217.467863,467.04333 217.497573,467.013619 217.524312,466.983908 L239.307556,445.196994 C240.005737,446.147739 240.837613,446.97667 241.776443,447.686757 L35.8249568,653.638908 Z M149.164973,468.647712 L176.209828,495.693434 L27.0516451,644.859373 L0.00084836618,617.807708 L149.164973,468.647712 Z M190.108084,468.335749 L203.566636,468.335749 L188.049193,483.85666 L190.108084,468.335749 Z M209.478891,413.798642 L233.790442,438.108002 L212.479583,459.422515 L190.794381,459.422515 C191.774806,443.482682 198.088144,428.181631 209.478891,413.798642 L209.478891,413.798642 Z M35.8249568,222.583038 L214.476084,401.242867 L214.479055,401.242867 L241.642749,428.410404 C240.715802,429.132375 239.886898,429.961306 239.203572,430.920964 L33.3501283,225.060917 L35.8249568,222.583038 Z M69.1772077,189.229717 L218.338361,338.398627 L191.287564,365.44732 L42.1264109,216.281381 L69.1772077,189.229717 Z M249.096944,380.391842 C253.274146,382.73008 263.423022,388.832674 274.053198,398.304471 L249.096944,423.258554 L224.14069,398.304471 C234.770866,388.838617 244.919743,382.73008 249.096944,380.391842 L249.096944,380.391842 Z M462.368932,222.583038 L464.846731,225.060917 L312.530394,377.379169 L312.527423,377.38214 L259.020026,430.891254 C258.333729,429.937538 257.501854,429.105636 256.574907,428.386635 L283.087956,401.872735 C283.328606,401.706355 283.557372,401.516206 283.76534,401.296346 C283.845557,401.216127 283.866354,401.106197 283.940628,401.020036 L462.368932,222.583038 Z M349.031887,407.583147 L321.984061,380.531483 L463.943552,238.567437 L471.148185,231.365544 L498.196011,258.417209 L349.031887,407.583147 Z M307.396536,459.422515 L285.717276,459.422515 L264.406418,438.108002 L288.712026,413.801613 C300.102774,428.184602 306.416112,443.485653 307.396536,459.422515 L307.396536,459.422515 Z M308.085804,468.335749 L309.202894,476.743899 L306.119014,479.827878 L294.674789,468.383286 L294.719353,468.335749 L308.085804,468.335749 Z M462.368932,653.638908 L331.220846,522.483644 L282.749264,474.007537 L282.749264,474.007537 C282.749264,474.007537 282.746293,474.007537 282.746293,474.001594 L256.450126,447.707555 C257.383015,447.000438 258.217861,446.168536 258.916042,445.226705 L302.96383,489.275906 C302.96383,489.275906 302.96383,489.278877 302.966801,489.281848 C302.969772,489.284819 302.972743,489.284819 302.972743,489.284819 L464.846731,651.164 L462.368932,653.638908 Z M429.016681,686.9952 L302.639993,560.611487 C302.637022,560.608516 302.637022,560.605545 302.634051,560.602574 C302.63108,560.599603 302.628109,560.599603 302.625138,560.596632 L284.885401,542.856325 L279.858498,537.829262 L306.909295,510.774626 L325.100622,528.966536 L456.067477,659.943536 L429.016681,686.9952 Z M276.450781,628.577866 C276.952877,628.770986 277.493596,628.886858 278.061054,628.886858 L299.03322,628.886858 L200.390655,727.535559 L177.499234,727.535559 L276.450781,628.577866 Z M157.801619,711.738337 L240.650441,628.886858 L259.854872,628.886858 C262.317817,628.886858 264.311346,626.890294 264.311346,624.430241 L264.311346,605.228164 L273.60458,595.937604 L273.60458,618.820846 L164.896326,727.535559 L155.704106,727.535559 L157.801619,711.738337 Z M163.232575,670.81471 L205.156111,628.886858 L220.129864,628.886858 C222.589837,628.886858 224.586338,626.890294 224.586338,624.430241 L224.586338,609.456008 L233.882542,600.159505 L233.882542,623.04869 L159.726816,697.209766 L163.232575,670.81471 Z M168.663532,629.888111 L194.160505,604.39032 L194.160505,624.430241 C194.160505,625.247288 194.395212,626.004912 194.778469,626.661521 L165.160743,656.280197 L168.663532,629.888111 Z M203.073452,619.973624 L203.073452,595.465202 C203.073452,591.989041 205.898857,589.163546 209.371936,589.163546 C212.847985,589.163546 215.67339,591.989041 215.67339,595.465202 L215.67339,619.973624 L203.073452,619.973624 Z M270.404832,540.978604 L275.434705,546.008639 L224.586338,596.852696 L224.586338,595.465202 C224.586338,589.647832 221.270721,584.644537 216.463671,582.083467 L297.345702,501.207755 L300.607841,504.47297 L270.404832,534.676948 C268.663836,536.418 268.663836,539.240524 270.404832,540.978604 L270.404832,540.978604 Z M242.79549,619.973624 L242.79549,595.465202 C242.79549,591.989041 245.620895,589.163546 249.096944,589.163546 C252.572994,589.163546 255.398398,591.989041 255.398398,595.465202 L255.398398,619.973624 L242.79549,619.973624 Z M324.972869,595.551364 L325.837425,602.081793 L304.036355,623.886534 L304.036355,600.997349 L317.227518,587.805763 L324.972869,595.551364 Z M335.632755,675.874455 L338.318523,696.083728 L306.867701,727.535559 L283.97628,727.535559 L335.632755,675.874455 Z M331.47635,644.541468 L334.156177,664.75074 L271.370401,727.535559 L248.481951,727.535559 L331.47635,644.541468 Z M327.314004,613.20848 L329.999772,633.414781 L235.879043,727.535559 L212.993563,727.535559 L327.314004,613.20848 Z M282.517528,595.465202 C282.517528,591.989041 285.345903,589.163546 288.818982,589.163546 C292.295031,589.163546 295.123407,591.989041 295.123407,595.465202 L295.123407,619.973624 L282.517528,619.973624 L282.517528,595.465202 Z M342.492754,727.535559 L319.47061,727.535559 L339.795102,707.210414 L342.492754,727.535559 Z M310.926064,581.504107 L302.847962,589.582468 C300.595957,584.231557 295.364057,580.467201 289.246803,580.294878 L299.478867,570.059515 L310.926064,581.504107 Z M293.177413,563.754888 L264.052871,592.886307 C263.05165,587.08082 258.764522,582.442968 253.170161,580.874239 L281.736159,552.310295 L293.177413,563.754888 Z M174.097459,588.961513 L279.597052,483.458535 L291.041277,494.906099 L204.965968,580.978226 C200.138122,582.451881 196.362003,586.231092 194.888395,591.059094 L170.59467,615.356569 L174.097459,588.961513 Z M242.640999,459.422515 L249.099915,452.963392 L255.561802,459.422515 L242.640999,459.422515 Z M249.120712,441.295969 C247.302471,441.295969 245.81995,439.816372 245.81995,437.998072 C245.81995,436.17383 247.302471,434.691262 249.120712,434.691262 C250.941924,434.691262 252.424445,436.17383 252.424445,437.998072 C252.424445,439.816372 250.941924,441.295969 249.120712,441.295969 L249.120712,441.295969 Z M179.528415,548.034914 L259.230966,468.335749 L264.47475,468.335749 L273.295598,477.156879 L176.025627,574.427 L179.528415,548.034914 Z M77.2582804,711.046076 C72.6651413,711.046076 68.9335871,707.311431 68.9335871,702.721116 C68.9335871,698.154569 72.6502864,694.422895 77.2196576,694.402097 C78.6784101,694.396155 80.0391202,693.677154 80.8680243,692.476839 C81.6969285,691.273552 81.8841004,689.743447 81.3701204,688.379722 C81.0136025,687.431949 80.8353435,686.454464 80.8353435,685.47995 C80.8353435,680.889635 84.5668977,677.15499 89.1600368,677.15499 C93.0401401,677.15499 96.3676406,679.796278 97.2500225,683.578461 C97.5649466,684.92733 98.4889222,686.053368 99.7515898,686.623815 C104.142702,688.617409 107.021584,692.830397 107.262234,697.622746 C107.434551,701.033543 106.263984,704.3047 103.976327,706.836059 C101.682729,709.367417 98.5453709,710.855927 95.1346828,711.02825 C92.380582,711.16789 85.4047148,711.108469 80.8531694,711.066874 L77.2582804,711.046076 Z M501.627496,685.372992 C501.627496,679.674464 504.853983,674.56421 510.047261,672.038794 C511.247538,671.456463 512.123978,670.366077 512.43296,669.070687 C512.741942,667.772326 512.456728,666.40563 511.651591,665.344955 C508.282497,660.885367 506.499907,655.593878 506.499907,650.037962 C506.499907,636.005561 517.914423,624.587708 531.943403,624.587708 C545.978324,624.587708 557.395811,636.005561 557.395811,650.037962 C557.395811,652.691134 556.973931,655.335394 556.142056,657.899434 C555.559743,659.693965 556.171766,661.666761 557.672112,662.810626 C562.892129,666.812668 565.886879,672.849898 565.886879,679.383299 C565.886879,690.890283 556.528284,700.258092 545.021668,700.258092 L516.51509,700.258092 C508.306265,700.258092 501.627496,693.58208 501.627496,685.372992 L501.627496,685.372992 Z" id="Fill-1" fill="#F6921E" mask="url(#mask-2)"></path>
                </g>
            </g>
        </g>
    </g>
</svg>