<?xml version="1.0" encoding="UTF-8"?>
<svg width="43px" height="49px" viewBox="0 0 43 49" version="1.1" xmlns="http://www.w3.org/2000/svg" xmlns:xlink="http://www.w3.org/1999/xlink">
    <!-- Generator: Sketch 44.1 (41455) - http://www.bohemiancoding.com/sketch -->
    <title>pigculture</title>
    <desc>Created with Sketch.</desc>
    <defs>
        <polygon id="path-1" points="1.70336724e-05 48.7590998 42.017641 48.7590998 42.017641 0.113283642 1.70336724e-05 0.113283642"></polygon>
    </defs>
    <g id="Page-1" stroke="none" stroke-width="1" fill="none" fill-rule="evenodd">
        <g id="VENUE-PAGE-Copy" transform="translate(-303.000000, -2058.000000)">
            <g id="HUB" transform="translate(0.000000, 1795.000000)">
                <g id="CULTURE" transform="translate(19.000000, 255.000000)">
                    <g id="pigculture" transform="translate(278.000000, 7.000000)">
                        <g id="Page-1" transform="translate(6.707317, 1.159091)">
                            <path d="M3.29913276,17.5430528 C3.29913276,17.5430528 8.06515429,17.4380582 8.35166066,17.3576056 C8.63816703,17.2771531 19.5823015,16.4835175 19.5823015,16.4835175 L29.5180426,15.8933699 L29.8854589,16.955018 L30.1603824,19.0649868 L30.8337235,20.4011487 L32.2723874,22.9250822 C32.2723874,22.9250822 32.7764138,24.9359075 32.9470912,24.9567113 C33.1177686,24.9773527 30.8337235,36.6588953 30.8337235,36.6588953 L28.3037121,39.5576238 L26.523523,40.9929291 L23.9684722,42.5099873 C23.9684722,42.5099873 22.6909467,43.119476 22.5631942,43.119476 C22.4354416,43.119476 19.8803908,43.8914951 19.8803908,43.8914951 L16.0122141,43.8914951 L13.8760213,43.5612334 L10.7247919,42.8756805 L8.48758937,41.6160704 L6.21086872,40.19393 L3.29913276,37.1871189 L1.11660832,32.9234607 L0.660616915,28.8168067 L1.11660832,24.794181 L1.90986645,21.5482877 L3.05963933,19.5525778 L3.29913276,18.943089 L3.29913276,17.5430528 Z" id="Fill-1" fill="#E8C1B6"></path>
                            <polygon id="Fill-3" fill="#E5AAAA" points="14.2867202 37.9195781 16.3741967 38.4466639 19.5221897 37.9195781 21.881694 37.268319 24.1594367 35.1554247 24.5219132 33.584244 24.1594367 31.6650858 22.3611919 29.3002695 19.5221897 28.3697833 17.9860931 28.3697833 15.5816199 28.3697833 14.2867202 29.0199046 12.2576691 30.0483966 10.8523911 31.6650858 10.4691335 33.7739169 11.3395542 35.7649134 13.088231 37.4714819"></polygon>
                            <path d="M10.4692187,34.0177449 C10.4692187,34.0177449 16.3557152,38.7538788 23.767577,35.5190376 C22.5489881,36.9432909 22.3048956,37.2142289 22.3048956,37.2142289 L18.574351,38.4466964 L14.8838355,38.4466964 L13.0883161,37.4715144 L10.4692187,35.3179875 L10.4692187,34.0177449 Z" id="Fill-5" fill="#AE7474"></path>
                            <path d="M3.0595712,19.7963408 C3.0595712,19.7963408 17.1506767,16.7640124 29.8855611,18.0770949 C29.7598526,16.0175105 29.5181448,15.8933374 29.5181448,15.8933374 L17.9860079,16.483485 L3.58471931,17.3850408 L3.0595712,19.7963408 Z" id="Fill-7" fill="#D7AFA3"></path>
                            <path d="M14.7261548,33.9567472 C14.2526187,33.9890908 13.8395522,33.6443639 13.8053145,33.1883038 C13.7710768,32.7324062 14.1284433,32.3351821 14.6019794,32.3028386 C15.0755155,32.270495 15.4887523,32.6148968 15.52299,33.0707944 C15.5572277,33.5268545 15.1998613,33.9244037 14.7261548,33.9567472 M14.5214101,31.230626 C13.4338101,31.3049023 12.6129574,32.2173476 12.691653,33.2645306 C12.7701782,34.311551 13.7191241,35.1029111 14.8067241,35.0286348 C15.8943241,34.9541959 16.7151768,34.0417506 16.6366515,32.9947302 C16.557956,31.9475473 15.6090101,31.1561871 14.5214101,31.230626" id="Fill-9" fill="#3C3B3B"></path>
                            <path d="M10.8455606,28.8188546 C11.2674847,28.7614814 11.4596245,28.5108596 11.4265792,28.3054213 C11.3920008,28.0907187 11.1393915,27.9567937 10.8120043,27.9792229 C10.7873055,27.9808482 10.7614143,27.9832862 10.7351824,27.9873494 C8.56509257,28.2852675 8.5262558,29.7091958 8.49763923,30.7487398 L8.4974689,30.7700313 C8.49542485,30.8363436 8.49440283,30.9031436 8.49304014,30.9705937 C8.48247926,31.5574907 8.47174805,32.1650291 8.04335119,32.6805753 C7.85581046,32.9068175 7.43984818,33.0838131 7.03052903,33.1117683 C6.88250642,33.1218452 6.74317098,33.1125809 6.61695147,33.0839756 C6.21120939,32.9913333 6.00305791,32.6454688 6.12263429,32.4380801 L6.12484867,32.4338543 L6.12621137,32.4304411 C6.22636936,32.2243527 6.4580273,32.0645854 6.67639898,32.0497951 C6.71813148,32.0468696 6.760886,32.0489825 6.80312951,32.0559713 C6.80534388,32.0564588 6.80653624,32.0569464 6.80840994,32.0572715 C6.5665318,32.0961162 6.38290881,32.2324792 6.34117631,32.4117502 C6.29024563,32.6313286 6.47625333,32.8271777 6.79376099,32.8869888 C6.93088205,32.9131562 7.06732176,32.9220954 7.19762936,32.9131562 C7.85581046,32.8681353 8.2164133,32.4054115 8.18490101,31.9854331 C8.15338871,31.5662674 7.73146465,31.170506 6.85951096,31.2301546 C6.77996371,31.2356807 6.69649872,31.2446198 6.61218204,31.2577848 C5.63581194,31.4086129 4.9909171,31.9332609 4.96945468,32.5945968 C4.95139898,33.166541 5.45763973,33.8368161 6.61167103,33.9580637 C6.82135553,33.9801679 7.02848499,33.9843937 7.22607559,33.9709036 C7.94932532,33.9213319 8.57940086,33.6359286 9.04884887,33.1455746 C9.40928138,32.7681792 9.66189074,32.2788003 9.74177866,31.8029115 C9.77363163,31.6112883 9.76545547,31.3601789 9.75608695,31.0697372 C9.7271297,30.187035 9.68727091,28.9786219 10.8455606,28.8188546" id="Fill-11" fill="#3C3B3B"></path>
                            <path d="M11.4293386,23.9506161 C12.1156253,23.9036448 12.6315752,23.3300753 12.5820073,22.6693895 C12.5324393,22.0087037 11.9359201,21.5115234 11.2496334,21.5583321 C10.5635171,21.6053034 10.0475671,22.1785479 10.0973055,22.8392337 C10.1468735,23.500082 10.7432223,23.9975873 11.4293386,23.9506161" id="Fill-13" fill="#3C3B3B"></path>
                            <path d="M22.6115868,23.1858946 C23.2977032,23.1389233 23.8138234,22.5653538 23.7642555,21.904668 C23.7146875,21.2439822 23.1179979,20.7468019 22.4318816,20.7936106 C21.7455949,20.8405819 21.229645,21.4138264 21.2793833,22.0746747 C21.3289513,22.7353605 21.9253002,23.2328659 22.6115868,23.1858946" id="Fill-15" fill="#3C3B3B"></path>
                            <path d="M28.4133408,29.5698748 C28.3278318,29.5682495 28.2438558,29.5706874 28.1636272,29.5762135 C27.2925252,29.6356996 26.933796,30.0849334 26.965138,30.503449 C26.9968206,30.9240775 27.4228328,31.3328413 28.0811842,31.2878204 C28.2120028,31.2788812 28.3452061,31.2515761 28.4775578,31.2070428 C28.7824605,31.1046487 28.9372966,30.8855578 28.8543426,30.675081 C28.7858672,30.503449 28.5843589,30.3932534 28.3383927,30.3878899 C28.340096,30.3870773 28.3419697,30.3864272 28.3441841,30.3857771 C28.3840429,30.3726121 28.4261161,30.3646481 28.4685299,30.3617226 C28.6862203,30.3467698 28.940022,30.474031 29.0693075,30.664354 L29.074588,30.6708553 C29.2239733,30.8603656 29.0699889,31.2310973 28.6819618,31.3780247 C28.5620448,31.4233707 28.4247534,31.4514884 28.2767308,31.4617279 C27.8674116,31.4896831 27.4293056,31.3711985 27.2099119,31.1727489 C26.7087812,30.7201019 26.6074309,30.1208526 26.5093169,29.5407819 C26.4979044,29.4747945 26.4870028,29.4088072 26.4749089,29.34347 L26.4709912,29.3225036 C26.2878792,28.2974248 26.0359512,26.8933253 23.8442285,26.8931627 C23.8169747,26.8933253 23.7909132,26.894463 23.7662143,26.8962508 C23.4388271,26.91868 23.2088726,27.0857612 23.2073395,27.3020891 C23.2046142,27.5106155 23.4323543,27.7318193 23.8585368,27.7318193 C25.0287501,27.7316567 25.1701296,28.9338936 25.2733537,29.8115574 C25.307421,30.1002113 25.3368893,30.3493703 25.3975291,30.5346548 C25.5472551,30.9952658 25.8708949,31.4453123 26.2836208,31.7692352 C26.8222255,32.191164 27.4885827,32.3881508 28.2116621,32.3387415 C28.4092527,32.3252515 28.6136568,32.292908 28.8180609,32.2425236 C29.9421129,31.9652468 30.3422339,31.2323976 30.2395208,30.6693925 C30.1187521,30.0176459 29.4023158,29.5861278 28.4133408,29.5698748" id="Fill-17" fill="#3C3B3B"></path>
                            <path d="M20.3888629,33.5694862 C19.9153268,33.6018298 19.5024306,33.2571029 19.4681929,32.8010428 C19.4339553,32.3451452 19.7911514,31.9479211 20.2646875,31.9155776 C20.7382236,31.883234 21.1516308,32.2276358 21.1858685,32.6835334 C21.2201062,33.1395935 20.8625694,33.5371427 20.3888629,33.5694862 M20.1841182,30.843365 C19.0965182,30.9176413 18.2756655,31.8300866 18.3543611,32.8772695 C18.4328863,33.9242899 19.3818322,34.7156501 20.4694322,34.6413738 C21.5572025,34.5669349 22.3782255,33.6544896 22.29953,32.6074692 C22.2210047,31.5602862 21.2720589,30.7689261 20.1841182,30.843365" id="Fill-19" fill="#3C3B3B"></path>
                            <path d="M17.972364,37.897669 C14.3763854,38.1435774 11.2963568,36.2912192 11.1069423,33.7684233 C10.9173576,31.2457901 13.6890767,28.9932822 17.2850553,28.7473738 C20.8810339,28.5014654 23.9607218,30.3538236 24.1503066,32.8764569 C24.339721,35.3992527 21.5683425,37.6517606 17.972364,37.897669 M17.204486,27.6756488 C12.9944436,27.96349 9.75957885,30.730894 9.99345117,33.8444875 C10.2273235,36.9585687 13.8427205,39.2578853 18.0529332,38.9698816 C22.2629757,38.6820404 25.4976701,35.9143113 25.2637978,32.8002302 C25.0299254,29.686474 21.4145285,27.387645 17.204486,27.6756488" id="Fill-21" fill="#3C3B3B"></path>
                            <polygon id="Fill-23" fill="#A54984" points="33.4284117 34.5256522 30.4838007 33.8755308 29.2488595 33.4488887 31.2077318 27.3540012 31.906453 26.2162889 34.9338476 26.642931 35.2958132 26.9679917 34.8210847 31.2631808"></polygon>
                            <path d="M31.7826012,34.0177449 C31.8890617,34.0177449 32.0312928,33.7680983 32.1997559,29.913854 C32.4520245,28.7221816 33.5108376,26.6338293 33.5108376,26.6338293 L32.2723193,26.267811 L31.5696803,27.1102057 L30.0579419,31.2631808 L29.6746843,32.9234281 L29.5895159,33.5842765 L31.7826012,34.0177449 Z" id="Fill-25" fill="#842F61"></path>
                            <path d="M35.2390059,27.1102057 C35.2390059,27.1102057 32.1700491,26.2975541 32.1998581,26.1891464 C32.229667,26.0809011 32.1998581,25.5933102 32.1998581,25.5933102 L34.1571973,22.3604193 L34.1571973,21.8551125 L34.8211699,21.8551125 L35.5512331,22.3604193 L35.8636306,22.3155609 L35.2390059,27.1102057 Z" id="Fill-27" fill="#7C4E16"></path>
                            <path d="M34.9338306,22.1530306 C34.9338306,22.1530306 33.0814187,24.9009309 33.7840577,26.4220523 C32.5278244,26.3381867 32.0878446,26.0334423 32.0878446,26.0334423 L32.9860302,23.920548 L34.1572655,22.1530306 L34.8210677,21.9633577 L34.9338306,22.1530306 Z" id="Fill-29" fill="#673E11"></path>
                            <path d="M29.5895159,33.5843252 L33.4220922,34.6136298 C33.4220922,34.6136298 33.5154367,35.8056273 32.9860302,37.7017062 C32.456794,39.5979475 30.1572482,44.8897726 30.1572482,44.8897726 L28.3404367,47.6973216 L27.4035847,48.4017281 L26.8925746,47.5890764 L27.0060188,42.941034 L28.1983759,37.3225229 L29.5895159,33.5843252 Z" id="Fill-31" fill="#7C4E16"></path>
                            <path d="M31.3701649,34.1102084 C31.3701649,34.1102084 29.1910472,37.6270397 27.9850632,46.5901 L27.6731767,48.117235 L26.8925235,48.117235 L26.9918298,44.216507 C26.9918298,44.216507 28.7803654,35.1960735 28.7803654,35.0335432 C28.7803654,34.8710129 29.3339597,33.5842602 29.3339597,33.5842602 L31.3701649,34.1102084 Z" id="Fill-33" fill="#673E11"></path>
                            <path d="M35.4377377,21.9634065 L36.6868169,21.9634065 L38.3050158,21.1507548 L39.1851457,20.0943076 C39.1851457,20.0943076 39.4406507,18.7399424 39.4406507,18.577412 C39.4406507,18.4148817 39.0148089,16.5930792 39.0148089,16.5930792 L39.4406507,14.6766841 L41.3143547,13.9722776 L40.9736812,13.537834 L39.9232147,13.0577194 C39.9232147,13.0577194 39.1284235,12.9016903 38.9296406,13.0577194 C38.7308576,13.2139111 37.2547196,14.0535428 37.2547196,14.0535428 L35.7499649,14.5411338 L34.1571462,16.5930792 L33.1666382,18.4961469 L33.2800825,19.552594 L33.6049146,21.1507548 L35.4377377,21.9634065 Z" id="Fill-35" fill="#CABB9F"></path>
                            <path d="M33.8799914,20.3109118 C33.8799914,20.3109118 38.0494937,21.4757667 39.1566824,18.4419755 C39.1566824,18.4419755 37.9554678,22.6676016 36.1386563,22.342541 C34.3216745,22.0174803 33.8799914,20.3109118 33.8799914,20.3109118" id="Fill-37" fill="#92836D"></path>
                            <path d="M13.8759531,3.24491809 L18.1485092,2.89271486 C18.1485092,2.89271486 18.0633408,1.80928766 18.0633408,1.76865508 C18.0633408,1.7280225 16.9135679,0.901718285 16.9135679,0.901718285 L14.8412514,1.02361603 L14.0747361,1.90518056 L13.8759531,3.24491809 Z" id="Fill-39" fill="#BD1622"></path>
                            <path d="M3.2892873,14.6897515 L14.9122136,13.8905899 L25.7285956,13.3217337 C25.7285956,13.3217337 30.1573504,12.8884278 30.2425188,12.8884278 C30.3276871,12.8884278 32.0877765,11.019329 32.0877765,11.019329 L32.0877765,8.22917078 L29.885493,5.46615513 L23.3721574,3.13660788 L17.8931063,2.70313948 L12.215102,3.43387585 L5.6571381,5.38488997 L2.47763281,7.22684622 L0.660650983,9.52990104 L0.887709835,12.6716124 L2.02334477,14.086764 L3.2892873,14.6897515 Z" id="Fill-41" fill="#BD1622"></path>
                            <path d="M25.0396517,13.2681637 C25.0396517,13.2681637 33.5280416,10.992739 28.9858425,5.7917684 C28.9858425,5.7917684 34.4933398,7.38992916 30.8311003,12.7805727 C27.7083171,13.0243682 25.0396517,13.2681637 25.0396517,13.2681637" id="Fill-43" fill="#89171E"></path>
                            <path d="M2.70469167,14.086699 C2.90347462,13.9719525 5.94108941,13.2134235 5.94108941,13.2134235 L5.2972166,9.35170278 L9.03559667,13.7010145 L9.03559667,14.129607 L3.85327219,14.5136661 L2.70469167,14.086699 Z" id="Fill-45" fill="#89171E"></path>
                            <path d="M4.74873235,17.5746649 C4.74873235,17.5746649 3.81188037,17.7643378 3.58482152,17.384992 C3.35759233,17.0058087 3.21570184,16.7348707 3.32931643,16.3015648 C3.44276069,15.8680964 3.41448479,14.7575267 3.41448479,14.7575267 L4.29444431,14.4865886 C4.29444431,14.4865886 8.95042831,14.0118375 11.5054792,14.086764 C14.06053,14.1615279 20.0790375,13.7010795 20.0790375,13.7010795 L26.6654476,13.2404685 L29.885493,12.8884278 C29.885493,12.8884278 29.8124185,13.1592034 29.885493,13.2676111 C29.9585674,13.3760188 30.072182,14.2156505 30.072182,14.2156505 L30.072182,15.407648 L30.072182,15.7868312 L29.4760035,16.0847493 L4.74873235,17.5746649 Z" id="Fill-47" fill="#BD1622"></path>
                            <path d="M24.195514,16.3015161 L29.4475062,13.078052 C29.4475062,13.078052 30.1288531,13.9448262 30.2991898,13.9448262 C30.4695265,13.9448262 30.5546949,15.8139251 30.5546949,15.8139251 L24.195514,16.3015161 Z" id="Fill-49" fill="#89171E"></path>
                            <path d="M3.52799719,17.1683391 C3.52799719,17.1683391 1.5975711,16.2202996 8.95032611,15.5971583 C16.3032515,14.9741796 21.3893357,14.9553261 22.8044932,14.432466 C24.2194803,13.9094434 25.2743757,13.3760188 25.2743757,13.3760188 L3.41438259,14.7575267 L3.52799719,17.1683391 Z" id="Fill-51" fill="#89171E"></path>
                            <path d="M32.1595564,28.0246664 C31.9789995,28.7389872 31.7492152,29.4880895 31.4366473,30.3821689 C31.3904861,30.5138185 31.4148442,30.6446554 31.5030787,30.7413609 C31.5822852,30.8278271 31.704587,30.8772363 31.8308065,30.8772363 C31.8611264,30.8772363 31.8917871,30.8743107 31.922107,30.8684596 C32.07541,30.8388791 32.192261,30.7390855 32.2426807,30.5949211 C32.557974,29.6953157 32.7901429,28.9385745 32.9730846,28.2133641 C33.0090256,28.0726129 32.9698482,27.9367375 32.8659428,27.8408446 C32.7538612,27.7374753 32.5847168,27.698143 32.4355019,27.7397507 C32.2963368,27.7789205 32.1956678,27.8827774 32.1597267,28.0246664 L32.1595564,28.0246664 Z" id="Fill-53" fill="#3C3B3B"></path>
                            <g id="Group-57" transform="translate(0.000000, 0.049247)">
                                <mask id="mask-2" fill="white">
                                    <use xlink:href="#path-1"></use>
                                </mask>
                                <g id="Clip-56"></g>
                                <path d="M39.4014563,14.0542417 C38.7768315,14.5626365 38.402772,15.2704561 38.3751775,15.9963166 C38.3586548,16.4341733 38.4494443,16.8388738 38.5369974,17.2299218 L38.5424482,17.2539763 C38.5925272,17.4787558 38.6398808,17.6913454 38.6633872,17.9006845 C38.6669643,17.9335156 38.6742888,17.9666718 38.6853607,18.0004781 C38.8526313,18.4994462 38.8621702,19.0362839 38.7134662,19.5526428 C38.5158756,20.2325072 38.0682307,20.7995755 37.4528041,21.1495033 C36.8440207,21.496343 36.1430851,21.5889853 35.4791125,21.4098769 C34.81514,21.2323938 34.2654634,20.8042889 33.9312627,20.2042269 L33.9310924,20.2040644 C33.5946773,19.6012394 33.5154708,18.8987833 33.7077809,18.22477 L33.7122097,18.2098172 C33.7135724,18.2046162 33.8212252,17.8532256 34.1436726,17.3180133 C34.0975114,17.4621777 34.0513501,17.6117056 34.0036558,17.7685473 C33.9626047,17.9031225 33.993606,18.0352596 34.0883132,18.1306649 C34.1923889,18.2356595 34.3572749,18.2805179 34.5095559,18.2445987 C34.6548531,18.2106298 34.7625059,18.109861 34.8054308,17.9681346 C35.1593905,16.8016544 35.51829,15.7697493 36.3238123,14.9611609 C36.4721756,14.8491775 36.626671,14.7388194 36.7866172,14.6307367 C36.2348966,15.655328 35.9529893,16.8359483 35.7303592,17.8891448 C35.6768735,18.1431798 35.8627108,18.3221257 36.0645598,18.3616205 C36.2607877,18.4001402 36.4866542,18.3102609 36.5384366,18.0648401 C36.9240789,16.2407622 37.3499208,14.6460146 38.652145,13.6134594 C39.1261921,13.4489787 39.6743357,13.4484911 40.1567293,13.6028949 C39.8877676,13.7148783 39.6312405,13.8674943 39.4014563,14.0542417 L39.4014563,14.0542417 Z M34.8907695,26.3727406 L32.6499899,25.7713784 L34.5690034,22.3117577 L35.1099928,22.4568973 L34.8907695,26.3727406 Z M33.2337338,34.0609129 L29.9743406,33.1336774 C30.6693145,30.8104688 31.4266315,28.5997312 32.171003,26.7221808 L34.8211018,27.4343887 C34.432734,29.498524 33.9125257,31.6694416 33.2337338,34.0609129 L33.2337338,34.0609129 Z M28.7307122,33.6445102 C28.3653399,34.9044454 28.0290952,36.1676311 27.7298136,37.3939225 L27.2070502,39.6808868 C27.197852,39.7244449 27.1888242,39.7675154 27.179626,39.8110736 C24.4152313,42.114941 20.814824,43.5120518 16.8803863,43.5120518 C8.18810334,43.5120518 1.11657426,36.7034936 1.11657426,28.3349693 C1.11657426,25.6671964 1.84561543,23.0436318 3.22483189,20.7477283 C3.24493162,20.7144096 3.26162462,20.6780028 3.2759329,20.6357449 L4.09678557,18.0799555 L28.9744641,16.4863455 L30.1235556,20.0618503 C30.1376935,20.1067087 30.1588153,20.1501043 30.1858988,20.1908994 C31.0791446,21.5408764 31.7332376,23.0108007 32.1422161,24.5460622 L31.5603459,25.5951955 L30.6929913,27.6635565 C30.008408,29.5055128 29.340177,31.5400675 28.7307122,33.6445102 L28.7307122,33.6445102 Z M1.30343364,11.1020407 C1.18113188,9.33029753 2.68418312,7.54896509 5.53596055,6.08667969 C8.35077491,4.64324781 12.0872813,3.7082108 16.057149,3.45401336 C20.027187,3.19981592 23.8594226,3.64986241 26.8481507,4.7214249 C29.8762267,5.80729005 31.6112765,7.38107126 31.7335783,9.15265188 C31.803246,10.1592022 31.3121653,11.1794051 30.2322304,12.2717715 L30.1915199,12.3128917 L24.3762242,12.6854112 L24.6237235,12.4191865 C25.8034756,11.149012 26.876086,9.66592267 26.7708179,7.43340602 L25.5660262,7.5104454 C25.6239407,8.88788997 25.1507453,10.1917083 24.2247949,11.1961458 C23.2777227,12.2233375 21.9531843,12.8406277 20.4952723,12.9339201 L12.2100941,13.4647441 C12.0814898,13.4728707 11.9535669,13.4769339 11.8270068,13.4769339 C9.00759331,13.477259 6.70072307,11.4665962 6.43772317,8.73592411 L5.23276118,8.81296349 C5.43580256,11.0399541 6.70293744,12.3727028 8.04706453,13.4808346 L8.32914214,13.713253 L3.26673472,14.037501 L3.2207438,14.0019069 C2.00011084,13.0569555 1.37293103,12.1084285 1.30343364,11.1020407 L1.30343364,11.1020407 Z M14.5179863,2.20269233 C14.7763871,1.67121814 15.3085191,1.31722708 15.9067416,1.27886992 C16.5058159,1.24100035 17.082065,1.5236406 17.4109852,2.01740775 L17.5556011,2.23454828 L17.2878318,2.24186214 C16.8257083,2.25437698 16.4082129,2.26721687 15.9769204,2.2946845 C15.5469905,2.32231466 15.1310282,2.36294724 14.6707784,2.40943091 L14.4043717,2.43641095 L14.5179863,2.20269233 Z M3.8533744,15.1648114 L29.7653375,13.5050517 L29.8840622,15.2264104 C29.7016315,15.2251102 29.5192009,15.2233223 29.3367703,15.2233223 L29.340688,15.2808581 L4.3223114,16.8834071 L3.97192875,16.8830821 L3.8533744,15.1648114 Z M41.9098348,13.5983441 C41.2915125,12.8206364 40.1843238,12.387168 39.0837783,12.4915125 C38.9914558,12.4755845 38.8987926,12.4906999 38.8127725,12.5375086 C38.8127725,12.5376711 38.8126022,12.5376711 38.8124319,12.5376711 C38.5044631,12.5909811 38.2416335,12.6694832 38.0103162,12.7774034 C33.7065886,14.7695376 32.7423124,17.8080422 32.7027943,17.938229 C32.6160929,18.2384225 32.5687393,18.5548691 32.5620961,18.8883813 L32.587817,19.4006769 C32.6457315,19.8546242 32.7872813,20.2853295 33.0083783,20.6807658 C33.19132,21.0103774 33.4246813,21.3069952 33.7013081,21.5621678 C33.7222596,21.5813464 33.7440627,21.5995498 33.7663768,21.6172656 L32.8916977,23.1946225 C32.4701143,21.970444 31.8979532,20.7938869 31.1775992,19.6911186 L31.1610766,19.6566622 L30.1158904,16.4044303 C30.1414409,16.3989042 30.1661398,16.3909402 30.1904979,16.3824887 L30.6594349,16.352258 C30.7834401,16.3254405 30.8958623,16.2633539 30.981201,16.1689238 C31.0876614,16.0514144 31.1401252,15.9010738 31.1293939,15.7456948 L30.9539471,13.2053457 L31.0035151,13.158537 C32.3650165,11.8730846 33.0339289,10.4608585 32.9380293,9.07431226 C32.8095954,7.21399007 31.3363531,5.50725905 28.789819,4.26845286 C26.243796,3.02980919 22.7386069,2.3075244 18.9201686,2.23471081 L18.8079167,2.23227285 L18.7774264,2.12825344 C18.4302802,0.936743572 17.2864691,0.113202377 16.0152461,0.113202377 C15.9525622,0.113202377 15.889708,0.115315271 15.8266834,0.119215999 C14.4815343,0.205357075 13.3678728,1.20101789 13.1786287,2.48695788 L13.1627874,2.59406537 L13.0518981,2.61048094 C9.27706601,3.16991034 5.90235484,4.33281487 3.54915301,5.88514208 C1.1956105,7.43779434 -0.029791893,9.31745764 0.0986419966,11.1777798 C0.194541572,12.5635134 1.0518463,13.8780588 2.57823368,14.9792018 L2.63376345,15.0195093 L2.80938062,17.5596959 C2.8185788,17.6919956 2.87513059,17.8130807 2.9660904,17.9102738 L2.22648835,20.2620877 L2.21814185,20.2760653 C0.7670433,22.7180836 1.70336724e-05,25.5048286 1.70336724e-05,28.3349693 C1.70336724e-05,37.2964043 7.57250642,44.5871899 16.8803863,44.5871899 C20.612975,44.5871899 24.0643377,43.4122581 26.8617777,41.4292256 C26.708645,42.2669069 26.5868542,43.0319372 26.4996418,43.7069256 C26.0320675,47.3126611 26.4698329,48.1828485 26.8396339,48.5238371 C26.9483087,48.6237933 27.0728249,48.6917309 27.2201661,48.7312258 C27.2896635,48.7499168 27.3603533,48.759181 27.4322354,48.759181 C28.4172926,48.759181 29.6329858,47.004016 31.1387625,43.4133959 C32.3575217,40.5073535 33.3463264,37.3687303 33.5321638,36.7686683 C33.6139254,36.5026061 33.4560233,36.2212661 33.1802481,36.1416263 C33.0461931,36.1027815 32.9044729,36.1167591 32.7816602,36.1806335 C32.6583364,36.2446705 32.5683986,36.3511278 32.5285398,36.480502 C29.9889896,44.6666673 27.9594275,47.5350026 27.5087165,47.7441791 C27.1094473,47.2520373 27.1813294,42.8052074 29.6854495,34.1033334 L33.3827785,35.1555547 L33.3890809,35.1586428 C33.4047519,35.167582 33.427066,35.1796092 33.4575563,35.1878983 C33.7343535,35.2607118 34.0244369,35.1038701 34.1024511,34.8368327 C34.9093362,32.0469996 35.5109655,29.5251789 35.9417471,27.127694 C35.955374,27.0543928 36.0926654,23.9794815 36.157734,22.5054939 C36.7959857,22.5050063 37.4255503,22.3379251 37.9869801,22.018553 C38.835768,21.5350253 39.4522166,20.7558549 39.7228817,19.8247186 C39.9160435,19.157044 39.9117851,18.4521499 39.7138538,17.8004033 L39.5501602,16.9591463 C39.4849213,16.6670793 39.4108248,16.336005 39.4224077,16.033211 C39.4391007,15.5908034 39.6782534,15.1503462 40.0780337,14.824798 C40.4779843,14.4998998 40.9692355,14.3469588 41.4252269,14.404332 C41.6344004,14.4311495 41.8398265,14.3339564 41.9471386,14.1566358 C42.0532584,13.9794777 42.0386094,13.7602243 41.9098348,13.5983441 L41.9098348,13.5983441 Z" id="Fill-55" fill="#3C3B3B" mask="url(#mask-2)"></path>
                            </g>
                            <path d="M31.6218544,31.2826357 C31.4194944,31.2229871 31.1599013,31.2964508 31.0786506,31.5509733 C30.9863281,31.8381644 30.9071216,32.1360825 30.8430749,32.436601 C30.812244,32.5815781 30.8585756,32.7192413 30.9701461,32.8143215 C31.0531001,32.8851848 31.1619453,32.9233794 31.2697684,32.9233794 C31.315078,32.9233794 31.3600469,32.9167156 31.4028014,32.9029006 C31.5360047,32.8599926 31.6293493,32.7551605 31.6588175,32.6150593 C31.7208201,32.3236425 31.7978123,32.0351511 31.8874094,31.7567367 C31.9540111,31.5472351 31.8424405,31.3478103 31.6218544,31.2826357" id="Fill-58" fill="#3C3B3B"></path>
                            <path d="M9.56038708,12.6391713 C10.6873348,13.2767778 12.3012753,13.1170105 13.5406453,12.9118972 C15.0583455,12.6604628 16.4823605,12.074866 17.7409786,11.2324713 C18.0082369,11.0536879 17.7530725,10.630784 17.4830888,10.8115177 C16.4138852,11.5269762 15.2354957,12.0545497 13.959333,12.334752 C12.75386,12.5993514 10.9380705,12.8515985 9.81827688,12.2182177 C9.53483658,12.0578003 9.27745779,12.4790789 9.56038708,12.6391713" id="Fill-60" fill="#89171E"></path>
                            <path d="M17.163503,12.628038 C18.0093952,12.35775 18.7026656,11.7957201 19.0971655,11.0293896 C19.241611,10.7486997 18.8009499,10.5013286 18.655823,10.7833187 C18.319919,11.435878 17.7526977,11.9260695 17.0275743,12.1578377 C16.7173911,12.2569812 16.8504241,12.7281567 17.163503,12.628038" id="Fill-62" fill="#89171E"></path>
                            <path d="M27.0417214,12.2702275 C28.3350881,11.632621 29.1600289,10.4424113 29.3128209,9.06724219 C29.3473993,8.75567154 28.8360484,8.75794697 28.8018108,9.06724219 C28.6677558,10.2727297 27.9066913,11.2956956 26.7838316,11.8492739 C26.4915338,11.9932758 26.7497642,12.4142293 27.0417214,12.2702275" id="Fill-64" fill="#89171E"></path>
                            <path d="M11.6110709,5.23097374 C9.01667226,5.81819583 6.2250237,6.55543342 4.80356374,8.91277336 C4.6391888,9.1851742 5.08070159,9.43108259 5.24473585,9.15884429 C6.59363237,6.92193932 9.29261775,6.25670267 11.7469996,5.70117399 C12.0667216,5.62868546 11.9313039,5.15848521 11.6110709,5.23097374" id="Fill-66" fill="#BD1622"></path>
                            <path d="M4.06745359,9.27152657 C5.35996865,8.30918447 6.99400884,7.65288698 8.47185025,6.98878805 C10.0050511,6.2999845 11.5689126,5.67830597 13.1561102,5.11237536 C13.4615239,5.00348003 13.3293426,4.53214207 13.0203518,4.6421751 C11.3917624,5.22273345 9.78702009,5.8611526 8.21396045,6.56783448 C6.68740274,7.25371249 5.04160931,7.93227663 3.7061694,8.92679973 C3.44708724,9.11956071 3.81109682,9.46249971 4.06745359,9.27152657" id="Fill-68" fill="#BD1622"></path>
                            <path d="M4.30694702,7.37083185 C2.63321838,8.37136857 1.95084946,10.2227516 2.62419053,12.0024587 C2.73507974,12.2955009 3.22905624,12.1690523 3.11697467,11.8729221 C2.5219885,10.2999535 3.06996174,8.68553971 4.56483682,7.79178541 C4.84282636,7.62567941 4.58663992,7.20358813 4.30694702,7.37083185" id="Fill-70" fill="#89171E"></path>
                        </g>
                    </g>
                </g>
            </g>
        </g>
    </g>
</svg>