<?xml version="1.0" encoding="UTF-8"?>
<svg width="37px" height="46px" viewBox="0 0 37 46" version="1.1" xmlns="http://www.w3.org/2000/svg" xmlns:xlink="http://www.w3.org/1999/xlink">
    <!-- Generator: Sketch 44.1 (41455) - http://www.bohemiancoding.com/sketch -->
    <title>pigwhatson</title>
    <desc>Created with Sketch.</desc>
    <defs>
        <path d="M27.8686772,0.73991751 C27.8686772,0.73991751 26.9679365,3.83549077 26.3060529,4.78797484 C25.8818201,5.39779697 26.0008466,5.61733293 26.1411852,5.69631942 C26.2429206,5.72380981 26.3060529,5.74045892 26.3060529,5.74045892 C26.3060529,5.74045892 26.2204021,5.74045892 26.1411852,5.69631942 C25.8597037,5.61965606 25.2814603,5.46052153 24.9223704,5.34397775 C24.4333968,5.18484321 23.6910899,4.94710938 23.6910899,4.94710938 L21.888,3.99423811 L18.2721693,3.59736975 L14.3519365,3.75650428 L11.4848466,4.6292275 L8.53572487,5.74045892 C8.53572487,5.74045892 6.65180952,0.660156648 6.65180952,0.263288282 C6.65180952,0.263288282 2.96520635,10.3449063 3.23542857,10.6620139 C3.50524868,10.9795085 0.179746032,17.2035661 0.179746032,17.2035661 L0.827555556,24.4552223 L2.15655026,23.680845 L9.37413757,23.7606059 L28.3600635,23.680845 L32.6200847,23.7606059 L33.685291,24.8718373 L34.531746,22.0043182 L34.531746,18.6299691 L33.685291,13.9968697 L31.9968042,10.5036537 L28.852254,0.263288282 L27.8686772,0.73991751 Z" id="path-1"></path>
        <path d="M28.0813968,0.574975145 L26.3144974,6.00994222 C23.7634709,4.74886879 20.9140741,4.08561463 18.0184339,4.08561463 C15.0556402,4.08561463 12.1511534,4.77713356 9.55911111,6.09125184 L7.76486772,0.574975145 C7.66715344,0.275678319 7.37722751,0.0720170889 7.0482963,0.0720170889 C6.71856085,0.0720170889 6.4282328,0.275678319 6.33132275,0.574975145 L2.38334392,12.7191471 C0.835195767,15.2935645 0.0180952381,18.2288416 0.0180952381,21.2105814 C0.0180952381,23.0923183 0.589904762,25.7008082 1.18182011,27.3966945 C1.61007407,27.1136596 1.79585185,26.0728965 2.25868783,25.8642018 C1.7773545,24.3932721 1.51839153,22.8305787 1.51839153,21.2105814 C1.51839153,18.4507007 2.28201058,15.7376699 3.72520635,13.3638163 C3.75295238,13.3173536 3.77506878,13.2685678 3.7927619,13.2174589 L7.04869841,3.199727 L8.40141799,7.36123061 C8.46977778,7.57108686 8.63585185,7.73873955 8.85178836,7.81733884 C9.06692063,7.89516376 9.30859259,7.87386838 9.50603175,7.76119649 C12.0675132,6.29065399 15.0110053,5.51395356 18.018836,5.51395356 C20.9639365,5.51395356 23.8543492,6.26161485 26.3784339,7.67524061 C26.5766772,7.78597656 26.8167407,7.80533599 27.0298624,7.72518794 C27.2433862,7.64736302 27.408254,7.48009753 27.4762116,7.27140285 L28.7987725,3.199727 L31.8604868,12.6157678 C31.8805926,12.6765564 31.9083386,12.7346347 31.944127,12.7876795 C33.6281905,15.302857 34.5188783,18.2160644 34.5188783,21.2105814 C34.5184762,23.0230115 34.193164,24.7638117 33.5960212,26.3845834 C33.9852698,26.8526944 34.3206349,27.34636 34.6049312,27.8605465 C35.5149206,25.8146417 36.0187725,23.5673987 36.0187725,21.2105814 C36.0187725,17.9763946 35.0653545,14.8289381 33.2630688,12.10313 L29.5141376,0.574975145 C29.4164233,0.275678319 29.1264974,0.0720170889 28.7983704,0.0720170889 C28.4698413,0.0720170889 28.1791111,0.275678319 28.0813968,0.574975145 Z" id="path-3"></path>
        <path d="M0.124656085,1.71563291 C0.124656085,2.503949 0.796190476,3.14242308 1.62455026,3.14242308 C2.45291005,3.14242308 3.12484656,2.503949 3.12484656,1.71563291 C3.12484656,0.926929628 2.45291005,0.288455544 1.62455026,0.288455544 C0.796190476,0.288455544 0.124656085,0.926929628 0.124656085,1.71563291 Z" id="path-5"></path>
        <path d="M0.124656085,1.71563291 C0.124656085,2.50433619 0.796190476,3.14319746 1.62455026,3.14319746 C2.45291005,3.14319746 3.12565079,2.50433619 3.12565079,1.71563291 C3.12565079,0.928091194 2.45291005,0.28961711 1.62455026,0.28961711 C0.796190476,0.28961711 0.124656085,0.928091194 0.124656085,1.71563291 Z" id="path-7"></path>
        <path d="M0.124656085,1.71563291 C0.124656085,2.503949 0.796190476,3.14319746 1.62455026,3.14319746 C2.45291005,3.14319746 3.12565079,2.503949 3.12565079,1.71563291 C3.12565079,0.927704005 2.45291005,0.28961711 1.62455026,0.28961711 C0.796190476,0.28961711 0.124656085,0.927704005 0.124656085,1.71563291 Z" id="path-9"></path>
        <path d="M0.355068783,1.71563291 C0.355068783,2.503949 1.02620106,3.14242308 1.85456085,3.14242308 C2.68292063,3.14242308 3.35485714,2.503949 3.35485714,1.71563291 C3.35485714,0.926929628 2.68292063,0.288455544 1.85456085,0.288455544 C1.02620106,0.288455544 0.355068783,0.926929628 0.355068783,1.71563291 Z" id="path-11"></path>
        <path d="M0.355068783,1.71563291 C0.355068783,2.50433619 1.02700529,3.14319746 1.85496296,3.14319746 C2.68372487,3.14319746 3.35405291,2.50433619 3.35405291,1.71563291 C3.35405291,0.928091194 2.68372487,0.28961711 1.85496296,0.28961711 C1.02700529,0.28961711 0.355068783,0.928091194 0.355068783,1.71563291 Z" id="path-13"></path>
        <path d="M0.355068783,1.71563291 C0.355068783,2.503949 1.02700529,3.14319746 1.85496296,3.14319746 C2.68372487,3.14319746 3.35405291,2.503949 3.35405291,1.71563291 C3.35405291,0.927704005 2.68372487,0.28961711 1.85496296,0.28961711 C1.02700529,0.28961711 0.355068783,0.927704005 0.355068783,1.71563291 Z" id="path-15"></path>
        <path d="M0.440719577,0.335305371 L0.0587089947,12.8252368 C0.0587089947,12.8252368 3.38984127,13.0896867 3.8269418,13.1957764 C4.26364021,13.3018661 3.60778836,0.335305371 3.60778836,0.335305371 L0.440719577,0.335305371 Z" id="path-17"></path>
        <path d="M2.27597884,0.163006422 C1.84129101,0.163006422 0.692042328,0.560649165 0.692042328,0.560649165 C0.692042328,0.560649165 0.418603175,1.85656958 0.292338624,2.28015396 C0.292338624,2.28015396 3.47669841,2.38624365 4.01714286,2.40250557 C4.55718519,2.4187675 3.85951323,2.12101942 3.96888889,1.96265927 C4.07826455,1.80352473 3.96888889,0.163006422 3.96888889,0.163006422 L2.27597884,0.163006422 Z" id="path-19"></path>
        <path d="M6.71453968,0.173847704 L2.30533333,1.87515463 L0.124656085,6.41842625 L0.542857143,10.1760921 L2.67326984,13.2143614 C2.67326984,13.2143614 6.55047619,15.2567816 6.71453968,15.4681866 C6.87820106,15.6803659 8.89843386,15.4681866 9.28165079,15.4681866 C9.66366138,15.4681866 12.8862222,13.9868028 12.8862222,13.9868028 L15.3978413,11.7043257 L16.3810159,8.95915817 L15.673291,5.57203186 L14.1971217,2.37153048 L9.44571429,0.173847704 L6.71453968,0.173847704 Z" id="path-21"></path>
        <path d="M14.0451217,0.193981514 L20.3828783,0.193981514 C21.1585608,0.193981514 21.8606561,0.660156648 22.1276614,1.35361152 L23.0376508,3.71120321 L31.9449312,3.71120321 C33.1492698,3.71120321 34.1296296,4.64316629 34.1296296,5.78963188 L34.1296296,22.9610613 C34.1296296,24.1071397 33.1492698,25.0391028 31.9449312,25.0391028 L2.48306878,25.0391028 C1.27792593,25.0391028 0.297566138,24.1071397 0.297566138,22.9610613 L0.297566138,5.78963188 C0.297566138,4.64316629 1.27792593,3.71120321 2.48306878,3.71120321 L3.42764021,3.71120321 L3.42764021,2.7869839 C3.42764021,2.04164575 4.06499471,1.43569551 4.84791534,1.43569551 L6.94374603,1.43569551 C7.7274709,1.43569551 8.36321693,2.04164575 8.36321693,2.7869839 L8.36321693,3.71120321 L11.3903492,3.71120321 L12.3003386,1.35361152 C12.567746,0.660156648 13.269037,0.193981514 14.0451217,0.193981514 Z M13.6671323,1.83024075 L12.9413122,3.71120321 L21.4858836,3.71120321 L20.7612698,1.83024075 C20.7021587,1.68039874 20.5501587,1.5793425 20.3828783,1.5793425 L14.0451217,1.5793425 C13.877037,1.5793425 13.725037,1.68039874 13.6671323,1.83024075 Z M4.81092063,2.7869839 L4.81092063,3.71120321 L6.97993651,3.71120321 L6.97993651,2.7869839 C6.97993651,2.76801166 6.96344974,2.75174973 6.94374603,2.75174973 L4.84791534,2.75174973 C4.82821164,2.75174973 4.81092063,2.76801166 4.81092063,2.7869839 Z M1.75443386,5.7888575 L1.75443386,7.56837654 L4.63921693,7.56837654 C5.04173545,7.56837654 5.36785185,7.87812746 5.36785185,8.26066985 L5.36785185,20.4888618 C5.36785185,20.8714042 5.04173545,21.1819295 4.63921693,21.1819295 L1.75443386,21.1819295 L1.75443386,22.9610613 C1.75443386,23.3436037 2.0813545,23.654129 2.48306878,23.654129 L31.9449312,23.654129 C32.3466455,23.654129 32.6735661,23.3436037 32.6735661,22.9610613 L32.6735661,21.1819295 L29.7879788,21.1819295 C29.3854603,21.1819295 29.0601481,20.8714042 29.0601481,20.4888618 L29.0601481,8.26066985 C29.0601481,7.87812746 29.3854603,7.56837654 29.7879788,7.56837654 L32.6735661,7.56837654 L32.6735661,5.7888575 C32.6735661,5.4070895 32.3458413,5.0965642 31.9449312,5.0965642 L22.5337989,5.0965642 L22.5285714,5.0965642 L22.523746,5.0965642 L2.48306878,5.0965642 C2.0813545,5.0965642 1.75443386,5.4070895 1.75443386,5.7888575 Z M30.5166138,19.7965685 L32.6735661,19.7965685 L32.6735661,8.95373753 L30.5166138,8.95373753 L30.5166138,19.7965685 Z M1.75443386,19.7965685 L3.91138624,19.7965685 L3.91138624,8.95373753 L1.75443386,8.95373753 L1.75443386,19.7965685 Z" id="path-23"></path>
        <path d="M14.0443175,0.194368702 L20.3828783,0.194368702 C21.1581587,0.194368702 21.860254,0.660543837 22.126455,1.35283714 L23.0372487,3.7115904 L31.9453333,3.7115904 C33.149672,3.7115904 34.1300317,4.64316629 34.1300317,5.7888575 L34.1300317,22.9614485 C34.1300317,24.1075269 33.149672,25.0398772 31.9453333,25.0398772 L2.48266667,25.0398772 C1.27913228,25.0398772 0.297164021,24.1075269 0.297164021,22.9614485 L0.297164021,5.7888575 C0.297164021,4.64316629 1.27913228,3.7115904 2.48266667,3.7115904 L3.42884656,3.7115904 L3.42884656,2.78737109 C3.42884656,2.04203294 4.06378836,1.4360827 4.84751323,1.4360827 L6.94374603,1.4360827 C7.72626455,1.4360827 8.36321693,2.04203294 8.36321693,2.78737109 L8.36321693,3.7115904 L11.3903492,3.7115904 L12.3007407,1.35283714 C12.567746,0.660543837 13.2694392,0.194368702 14.0443175,0.194368702 Z M13.6667302,1.83024075 L12.9421164,3.7115904 L21.4862857,3.7115904 L20.7612698,1.83024075 C20.702963,1.68039874 20.5513651,1.58011688 20.3828783,1.58011688 L14.0443175,1.58011688 C13.8766349,1.58011688 13.7254392,1.68039874 13.6667302,1.83024075 Z M4.81172487,2.78737109 L4.81172487,3.7115904 L6.97953439,3.7115904 L6.97953439,2.78737109 C6.97953439,2.76839885 6.96344974,2.75213692 6.94374603,2.75213692 L4.84751323,2.75213692 C4.82740741,2.75213692 4.81172487,2.76839885 4.81172487,2.78737109 Z M1.75362963,5.7888575 L1.75362963,7.56837654 L4.64002116,7.56837654 C5.04253968,7.56837654 5.36865608,7.87851465 5.36865608,8.26105703 L5.36865608,20.489249 C5.36865608,20.8721786 5.04253968,21.1823167 4.64002116,21.1823167 L1.75362963,21.1823167 L1.75362963,22.9614485 C1.75362963,23.3432165 2.08175661,23.654129 2.48266667,23.654129 L31.9453333,23.654129 C32.3466455,23.654129 32.6739683,23.3432165 32.6739683,22.9614485 L32.6739683,21.1823167 L29.788381,21.1823167 C29.3854603,21.1823167 29.0605503,20.8721786 29.0605503,20.489249 L29.0605503,8.26105703 C29.0605503,7.87851465 29.3854603,7.56837654 29.788381,7.56837654 L32.6739683,7.56837654 L32.6739683,5.7888575 C32.6739683,5.40786387 32.3458413,5.09617701 31.9453333,5.09617701 L22.5346032,5.09617701 L22.5285714,5.09617701 L22.5233439,5.09617701 L2.48266667,5.09617701 C2.08175661,5.09617701 1.75362963,5.40786387 1.75362963,5.7888575 Z M30.5162116,19.7973429 L32.6739683,19.7973429 L32.6739683,8.95373753 L30.5162116,8.95373753 L30.5162116,19.7973429 Z M1.75362963,19.7973429 L3.91138624,19.7973429 L3.91138624,8.95373753 L1.75362963,8.95373753 L1.75362963,19.7973429 Z" id="path-25"></path>
        <path d="M14.0443175,0.194368702 L20.3828783,0.194368702 C21.1585608,0.194368702 21.8606561,0.660156648 22.1268571,1.35283714 L23.0372487,3.71120321 L31.9449312,3.71120321 C33.1500741,3.71120321 34.1300317,4.64316629 34.1300317,5.7888575 L34.1300317,22.9610613 C34.1300317,24.1071397 33.1500741,25.03949 31.9449312,25.03949 L2.48306878,25.03949 C1.27873016,25.03949 0.297566138,24.1071397 0.297566138,22.9610613 L0.297566138,5.7888575 C0.297566138,4.64316629 1.27873016,3.71120321 2.48306878,3.71120321 L3.42844444,3.71120321 L3.42844444,2.7869839 C3.42844444,2.04164575 4.06419048,1.43569551 4.84791534,1.43569551 L6.94334392,1.43569551 C7.72666667,1.43569551 8.36321693,2.04164575 8.36321693,2.7869839 L8.36321693,3.71120321 L11.3903492,3.71120321 L12.3003386,1.35283714 C12.567746,0.660156648 13.269037,0.194368702 14.0443175,0.194368702 Z M13.6671323,1.83024075 L12.9421164,3.71120321 L21.4858836,3.71120321 L20.7612698,1.83024075 C20.7025608,1.68039874 20.550963,1.58011688 20.3828783,1.58011688 L14.0443175,1.58011688 C13.877037,1.58011688 13.7254392,1.68039874 13.6671323,1.83024075 Z M4.81132275,2.7869839 L4.81132275,3.71120321 L6.97953439,3.71120321 L6.97953439,2.7869839 C6.97953439,2.76801166 6.96344974,2.75252411 6.94334392,2.75252411 L4.84791534,2.75252411 C4.82780952,2.75252411 4.81132275,2.76801166 4.81132275,2.7869839 Z M1.75362963,5.7888575 L1.75362963,7.56837654 L4.64002116,7.56837654 C5.04253968,7.56837654 5.36865608,7.87851465 5.36865608,8.26105703 L5.36865608,20.489249 C5.36865608,20.8717914 5.04253968,21.1819295 4.64002116,21.1819295 L1.75362963,21.1819295 L1.75362963,22.9610613 C1.75362963,23.3432165 2.0813545,23.6537418 2.48306878,23.6537418 L31.9449312,23.6537418 C32.3466455,23.6537418 32.6735661,23.3432165 32.6735661,22.9610613 L32.6735661,21.1819295 L29.7879788,21.1819295 C29.3854603,21.1819295 29.0601481,20.8717914 29.0601481,20.489249 L29.0601481,8.26105703 C29.0601481,7.87851465 29.3854603,7.56837654 29.7879788,7.56837654 L32.6735661,7.56837654 L32.6735661,5.7888575 C32.6735661,5.40786387 32.3458413,5.09578982 31.9449312,5.09578982 L22.5346032,5.09578982 L22.5285714,5.09578982 L22.5233439,5.09578982 L2.48306878,5.09578982 C2.0813545,5.09578982 1.75362963,5.40786387 1.75362963,5.7888575 Z M30.5158095,19.7973429 L32.6735661,19.7973429 L32.6735661,8.95373753 L30.5158095,8.95373753 L30.5158095,19.7973429 Z M1.75362963,19.7973429 L3.91138624,19.7973429 L3.91138624,8.95373753 L1.75362963,8.95373753 L1.75362963,19.7973429 Z" id="path-27"></path>
        <path d="M0.0804232804,8.56654888 C0.0804232804,4.00856409 3.97853968,0.299684015 8.76975661,0.299684015 C13.5605714,0.299684015 17.4586878,4.00856409 17.4586878,8.56654888 C17.4586878,13.1260824 13.5605714,16.8349625 8.76975661,16.8349625 C3.97853968,16.8349625 0.0804232804,13.1260824 0.0804232804,8.56654888 Z M1.46330159,8.56654888 C1.46330159,12.4001037 4.74095238,15.5185211 8.76975661,15.5185211 C12.7977566,15.5185211 16.0754074,12.4001037 16.0754074,8.56654888 C16.0754074,4.73415562 12.7977566,1.61651261 8.76975661,1.61651261 C4.74095238,1.61651261 1.46330159,4.73415562 1.46330159,8.56654888 Z" id="path-29"></path>
        <path d="M0.0804232804,8.56693607 C0.0804232804,4.00856409 3.97733333,0.300071204 8.76975661,0.300071204 C13.5613757,0.300071204 17.4590899,4.00856409 17.4590899,8.56693607 C17.4590899,13.1256952 13.5613757,16.8349625 8.76975661,16.8349625 C3.97733333,16.8349625 0.0804232804,13.1256952 0.0804232804,8.56693607 Z M1.46330159,8.56693607 C1.46330159,12.4008781 4.7413545,15.5177467 8.76975661,15.5177467 C12.7981587,15.5177467 16.0754074,12.4008781 16.0754074,8.56693607 C16.0754074,4.73415562 12.7981587,1.61573824 8.76975661,1.61573824 C4.7413545,1.61573824 1.46330159,4.73415562 1.46330159,8.56693607 Z" id="path-31"></path>
        <path d="M0.0804232804,8.56732326 C0.0804232804,4.00856409 3.97773545,0.300071204 8.76975661,0.300071204 C13.5609735,0.300071204 17.4590899,4.00856409 17.4590899,8.56732326 C17.4590899,13.1256952 13.5609735,16.8349625 8.76975661,16.8349625 C3.97773545,16.8349625 0.0804232804,13.1256952 0.0804232804,8.56732326 Z M1.46330159,8.56732326 C1.46330159,12.4008781 4.74095238,15.5177467 8.76975661,15.5177467 C12.7981587,15.5177467 16.0754074,12.4008781 16.0754074,8.56732326 C16.0754074,4.73415562 12.7981587,1.61573824 8.76975661,1.61573824 C4.74095238,1.61573824 1.46330159,4.73415562 1.46330159,8.56732326 Z" id="path-33"></path>
        <path d="M0.130687831,5.46981406 C0.130687831,2.62513905 2.56308995,0.310912486 5.5528254,0.310912486 C8.54215873,0.310912486 10.9745608,2.62513905 10.9745608,5.46981406 C10.9745608,8.31410188 8.54215873,10.6283284 5.5528254,10.6283284 C2.56308995,10.6283284 0.130687831,8.31410188 0.130687831,5.46981406 Z M1.4415873,5.46981406 C1.4415873,7.62684203 3.28569312,9.3811938 5.5528254,9.3811938 C7.81955556,9.3811938 9.66366138,7.62684203 9.66366138,5.46981406 C9.66366138,3.31317328 7.81955556,1.55804713 5.5528254,1.55804713 C3.28569312,1.55804713 1.4415873,3.31317328 1.4415873,5.46981406 Z" id="path-35"></path>
        <path d="M0.130285714,5.46942687 C0.130285714,2.62552623 2.56308995,0.311299675 5.5528254,0.311299675 C8.54175661,0.311299675 10.9745608,2.62552623 10.9745608,5.46942687 C10.9745608,8.31448907 8.54175661,10.6287156 5.5528254,10.6287156 C2.56308995,10.6287156 0.130285714,8.31448907 0.130285714,5.46942687 Z M1.4415873,5.46942687 C1.4415873,7.62606765 3.28569312,9.3811938 5.5528254,9.3811938 C7.81955556,9.3811938 9.66446561,7.62606765 9.66446561,5.46942687 C9.66446561,3.31356047 7.81955556,1.5588215 5.5528254,1.5588215 C3.28569312,1.5588215 1.4415873,3.31356047 1.4415873,5.46942687 Z" id="path-37"></path>
        <path d="M0.129883598,5.46981406 C0.129883598,2.62552623 2.56308995,0.311299675 5.5528254,0.311299675 C8.54175661,0.311299675 10.9745608,2.62552623 10.9745608,5.46981406 C10.9745608,8.31410188 8.54175661,10.6283284 5.5528254,10.6283284 C2.56308995,10.6283284 0.129883598,8.31410188 0.129883598,5.46981406 Z M1.44118519,5.46981406 C1.44118519,7.62645484 3.28569312,9.3811938 5.5528254,9.3811938 C7.81955556,9.3811938 9.66406349,7.62645484 9.66406349,5.46981406 C9.66406349,3.31317328 7.81955556,1.5588215 5.5528254,1.5588215 C3.28569312,1.5588215 1.44118519,3.31317328 1.44118519,5.46981406 Z" id="path-39"></path>
        <path d="M0.0587089947,2.75949351 C0.0587089947,3.10409141 0.352656085,3.38248005 0.713756614,3.38248005 C1.07606349,3.38248005 1.36960847,3.10409141 1.36960847,2.75949351 C1.36960847,2.04125856 1.98364021,1.45776527 2.73801058,1.45776527 C3.09911111,1.45776527 3.3930582,1.17860225 3.3930582,0.834004352 C3.3930582,0.489793642 3.09911111,0.210243437 2.73801058,0.210243437 C1.2602328,0.210243437 0.0587089947,1.35477309 0.0587089947,2.75949351 Z" id="path-41"></path>
        <path d="M0.0587089947,2.75910632 C0.0587089947,3.10409141 0.352253968,3.38286723 0.714560847,3.38286723 C1.07606349,3.38286723 1.36960847,3.10409141 1.36960847,2.75910632 C1.36960847,2.04242013 1.98283598,1.45737808 2.73801058,1.45737808 C3.09951323,1.45737808 3.3930582,1.17821506 3.3930582,0.834391541 C3.3930582,0.490955208 3.09951323,0.210630626 2.73801058,0.210630626 C1.26103704,0.210630626 0.0587089947,1.3543859 0.0587089947,2.75910632 Z" id="path-43"></path>
        <path d="M0.0587089947,2.75949351 C0.0587089947,3.10370422 0.351851852,3.38325442 0.71415873,3.38325442 C1.07606349,3.38325442 1.37001058,3.10370422 1.37001058,2.75949351 C1.37001058,2.04203294 1.98283598,1.45699089 2.73801058,1.45699089 C3.09991534,1.45699089 3.3930582,1.17860225 3.3930582,0.834391541 C3.3930582,0.490568019 3.09991534,0.210630626 2.73801058,0.210630626 C1.26103704,0.210630626 0.0587089947,1.35399871 0.0587089947,2.75949351 Z" id="path-45"></path>
        <path d="M14.3567619,4.11155627 C13.9638942,3.84826799 13.5263915,3.71120321 13.0784339,3.71120321 C12.6304762,3.71120321 12.1941799,3.84826799 11.8013122,4.1107819 C11.2158307,1.88096246 9.12965079,0.287293978 6.74871958,0.287293978 C4.0770582,0.287293978 1.80349206,2.26079453 1.50874074,4.80733428 L0.782518519,4.80733428 C0.46162963,4.80733428 0.201058201,5.05978128 0.201058201,5.36991939 C0.201058201,5.68121906 0.46162963,5.93366606 0.782518519,5.93366606 L1.50874074,5.93366606 C1.80349206,8.47904424 4.0770582,10.4537064 6.74871958,10.4537064 C9.52895238,10.4537064 11.8547937,8.25989547 11.9549206,5.55460837 C12.2822434,5.09153075 12.6803386,4.83830937 13.0784339,4.83830937 C13.4757249,4.83830937 13.8738201,5.09153075 14.2011429,5.55460837 C14.3040847,8.25989547 16.6560635,10.4537064 19.4688677,10.4537064 C22.2925291,10.4537064 24.5986667,8.2552492 24.6815026,5.5228589 L25.3747513,5.5228589 C25.694836,5.5228589 25.9558095,5.2704119 25.9558095,4.95911223 C25.9558095,4.64897412 25.694836,4.39613993 25.3747513,4.39613993 L24.5817778,4.39613993 C24.1048677,2.00757315 21.9760635,0.287293978 19.4688677,0.287293978 C17.0593862,0.287293978 14.947873,1.88096246 14.3567619,4.11155627 Z" id="path-47"></path>
        <path d="M0.394074074,1.88522154 C0.394074074,2.72038745 1.09295238,3.39796759 1.95468783,3.39796759 C2.8168254,3.39796759 3.5157037,2.72038745 3.5157037,1.88522154 C3.5157037,1.05005562 2.8168254,0.373637047 1.95468783,0.373637047 C1.09295238,0.373637047 0.394074074,1.05005562 0.394074074,1.88522154 Z" id="path-49"></path>
        <path d="M0.344613757,1.88522154 C0.344613757,2.72038745 1.04349206,3.39796759 1.9048254,3.39796759 C2.76736508,3.39796759 3.46624339,2.72038745 3.46624339,1.88522154 C3.46624339,1.05005562 2.76736508,0.37286267 1.9048254,0.37286267 C1.04349206,0.37286267 0.344613757,1.05005562 0.344613757,1.88522154 Z" id="path-51"></path>
    </defs>
    <g id="Page-1" stroke="none" stroke-width="1" fill="none" fill-rule="evenodd">
        <g id="VENUE-PAGE-Copy" transform="translate(-169.000000, -2059.000000)">
            <g id="HUB" transform="translate(0.000000, 1795.000000)">
                <g id="CULTURE" transform="translate(19.000000, 255.000000)">
                    <g id="pigwhatson" transform="translate(149.000000, 8.000000)">
                        <g id="Page-1" transform="translate(1.206349, 0.578313)">
                            <polygon id="Fill-1" fill="#E30613" points="2.09824339 45.1175446 33.8654392 45.1175446 33.8654392 25.435584 2.09824339 25.435584"></polygon>
                            <g id="Group-4" transform="translate(0.402116, 1.544883)">
                                <mask id="mask-2" fill="white">
                                    <use xlink:href="#path-1"></use>
                                </mask>
                                <g id="Clip-3"></g>
                                <polygon id="Fill-2" fill="#E5C0B5" mask="url(#mask-2)" points="-2.68091005 27.6262974 37.3924021 27.6262974 37.3924021 -2.49117177 -2.68091005 -2.49117177"></polygon>
                            </g>
                            <g id="Group-7" transform="translate(0.000000, 0.383317)">
                                <mask id="mask-4" fill="white">
                                    <use xlink:href="#path-3"></use>
                                </mask>
                                <g id="Clip-6"></g>
                                <polygon id="Fill-5" fill="#3C3C3B" mask="url(#mask-4)" points="-2.84256085 30.6146194 38.8790265 30.6146194 38.8790265 -2.68205578 -2.84256085 -2.68205578"></polygon>
                            </g>
                            <g id="Group-10" transform="translate(9.650794, 17.032429)">
                                <mask id="mask-6" fill="white">
                                    <use xlink:href="#path-5"></use>
                                </mask>
                                <g id="Clip-9"></g>
                                <polygon id="Fill-8" fill="#3C3C3B" mask="url(#mask-6)" points="-2.73559788 5.89688314 5.98550265 5.89688314 5.98550265 -2.46600451 -2.73559788 -2.46600451"></polygon>
                            </g>
                            <g id="Group-13" transform="translate(9.650794, 17.032429)">
                                <mask id="mask-8" fill="white">
                                    <use xlink:href="#path-7"></use>
                                </mask>
                                <g id="Clip-12"></g>
                                <polygon id="Fill-11" fill="#3C3C3B" mask="url(#mask-8)" points="-37.3968254 1343.15743 214.083556 1343.15743 214.083556 -1474.41206 -37.3968254 -1474.41206"></polygon>
                            </g>
                            <g id="Group-16" transform="translate(9.650794, 17.032429)">
                                <mask id="mask-10" fill="white">
                                    <use xlink:href="#path-9"></use>
                                </mask>
                                <g id="Clip-15"></g>
                                <polygon id="Fill-14" fill="#3C3C3B" mask="url(#mask-10)" points="-6.01244444 9.07221726 9.26194709 9.07221726 9.26194709 -5.64133863 -6.01244444 -5.64133863"></polygon>
                            </g>
                            <g id="Group-19" transform="translate(22.920635, 17.032429)">
                                <mask id="mask-12" fill="white">
                                    <use xlink:href="#path-11"></use>
                                </mask>
                                <g id="Clip-18"></g>
                                <polygon id="Fill-17" fill="#3C3C3B" mask="url(#mask-12)" points="-2.5055873 5.89688314 6.21551323 5.89688314 6.21551323 -2.46600451 -2.5055873 -2.46600451"></polygon>
                            </g>
                            <g id="Group-22" transform="translate(22.920635, 17.032429)">
                                <mask id="mask-14" fill="white">
                                    <use xlink:href="#path-13"></use>
                                </mask>
                                <g id="Clip-21"></g>
                                <polygon id="Fill-20" fill="#3C3C3B" mask="url(#mask-14)" points="-50.6666667 1343.15743 200.813714 1343.15743 200.813714 -1474.41206 -50.6666667 -1474.41206"></polygon>
                            </g>
                            <g id="Group-25" transform="translate(22.920635, 17.032429)">
                                <mask id="mask-16" fill="white">
                                    <use xlink:href="#path-15"></use>
                                </mask>
                                <g id="Clip-24"></g>
                                <polygon id="Fill-23" fill="#3C3C3B" mask="url(#mask-16)" points="-5.78243386 9.07221726 9.49195767 9.07221726 9.49195767 -5.64133863 -5.78243386 -5.64133863"></polygon>
                            </g>
                            <polygon id="Fill-26" fill="#9B1B1A" points="1.94716825 28.9833936 1.89288254 41.473325 5.11463915 41.1027855 5.11463915 28.9833936"></polygon>
                            <g id="Group-29" transform="translate(30.560847, 28.648088)">
                                <mask id="mask-18" fill="white">
                                    <use xlink:href="#path-17"></use>
                                </mask>
                                <g id="Clip-28"></g>
                                <polygon id="Fill-27" fill="#9B1B1A" mask="url(#mask-18)" points="-2.80194709 15.9510108 6.8375873 15.9510108 6.8375873 -2.4187675 -2.80194709 -2.4187675"></polygon>
                            </g>
                            <polygon id="Fill-30" fill="#9B1B1A" points="14.3442159 21.6804736 12.7755598 24.6149764 23.440491 25.1206447 21.8263958 21.6804736"></polygon>
                            <g id="Group-33" transform="translate(4.423280, 22.840258)">
                                <mask id="mask-20" fill="white">
                                    <use xlink:href="#path-19"></use>
                                </mask>
                                <g id="Clip-32"></g>
                                <polygon id="Fill-31" fill="#030304" mask="url(#mask-20)" points="-2.56791534 5.15774001 7.08529101 5.15774001 7.08529101 -2.59106645 -2.56791534 -2.59106645"></polygon>
                            </g>
                            <g id="Group-36" transform="translate(9.650794, 27.486522)">
                                <mask id="mask-22" fill="white">
                                    <use xlink:href="#path-21"></use>
                                </mask>
                                <g id="Clip-35"></g>
                                <polygon id="Fill-34" fill="#030304" mask="url(#mask-22)" points="-2.736 18.3167335 19.241672 18.3167335 19.241672 -2.58061235 -2.736 -2.58061235"></polygon>
                            </g>
                            <g id="Group-39" transform="translate(0.804233, 20.904315)">
                                <mask id="mask-24" fill="white">
                                    <use xlink:href="#path-23"></use>
                                </mask>
                                <g id="Clip-38"></g>
                                <polygon id="Fill-37" fill="#3C3C3B" mask="url(#mask-24)" points="-2.56268783 27.79395 36.9902857 27.79395 36.9902857 -2.56047854 -2.56268783 -2.56047854"></polygon>
                            </g>
                            <g id="Group-42" transform="translate(0.804233, 20.904315)">
                                <mask id="mask-26" fill="white">
                                    <use xlink:href="#path-25"></use>
                                </mask>
                                <g id="Clip-41"></g>
                                <polygon id="Fill-40" fill="#3C3C3B" mask="url(#mask-26)" points="-28.5502646 1339.28554 222.930116 1339.28554 222.930116 -1478.28394 -28.5502646 -1478.28394"></polygon>
                            </g>
                            <g id="Group-45" transform="translate(0.804233, 20.904315)">
                                <mask id="mask-28" fill="white">
                                    <use xlink:href="#path-27"></use>
                                </mask>
                                <g id="Clip-44"></g>
                                <polygon id="Fill-43" fill="#3C3C3B" mask="url(#mask-28)" points="-5.83953439 30.9692842 40.2671323 30.9692842 40.2671323 -5.73581266 -5.83953439 -5.73581266"></polygon>
                            </g>
                            <g id="Group-48" transform="translate(9.248677, 26.712145)">
                                <mask id="mask-30" fill="white">
                                    <use xlink:href="#path-29"></use>
                                </mask>
                                <g id="Clip-47"></g>
                                <polygon id="Fill-46" fill="#858585" mask="url(#mask-30)" points="-2.78063492 19.5894226 20.3193439 19.5894226 20.3193439 -2.45477604 -2.78063492 -2.45477604"></polygon>
                            </g>
                            <g id="Group-51" transform="translate(9.248677, 26.712145)">
                                <mask id="mask-32" fill="white">
                                    <use xlink:href="#path-31"></use>
                                </mask>
                                <g id="Clip-50"></g>
                                <polygon id="Fill-49" fill="#3C3C3B" mask="url(#mask-32)" points="-36.994709 1333.47771 214.485672 1333.47771 214.485672 -1484.09177 -36.994709 -1484.09177"></polygon>
                            </g>
                            <g id="Group-54" transform="translate(9.248677, 26.712145)">
                                <mask id="mask-34" fill="white">
                                    <use xlink:href="#path-33"></use>
                                </mask>
                                <g id="Clip-53"></g>
                                <polygon id="Fill-52" fill="#3C3C3B" mask="url(#mask-34)" points="-6.0578836 22.7647567 23.5965926 22.7647567 23.5965926 -5.63011016 -6.0578836 -5.63011016"></polygon>
                            </g>
                            <g id="Group-57" transform="translate(12.465608, 29.809654)">
                                <mask id="mask-36" fill="white">
                                    <use xlink:href="#path-35"></use>
                                </mask>
                                <g id="Clip-56"></g>
                                <polygon id="Fill-55" fill="#858585" mask="url(#mask-36)" points="-2.72996825 13.3827885 13.8348148 13.3827885 13.8348148 -2.44354757 -2.72996825 -2.44354757"></polygon>
                            </g>
                            <g id="Group-60" transform="translate(12.465608, 29.809654)">
                                <mask id="mask-38" fill="white">
                                    <use xlink:href="#path-37"></use>
                                </mask>
                                <g id="Clip-59"></g>
                                <polygon id="Fill-58" fill="#858585" mask="url(#mask-38)" points="-40.2116402 1330.3802 211.268741 1330.3802 211.268741 -1487.18928 -40.2116402 -1487.18928"></polygon>
                            </g>
                            <g id="Group-63" transform="translate(12.465608, 29.809654)">
                                <mask id="mask-40" fill="white">
                                    <use xlink:href="#path-39"></use>
                                </mask>
                                <g id="Clip-62"></g>
                                <polygon id="Fill-61" fill="#858585" mask="url(#mask-40)" points="-6.0064127 16.5573482 17.1120635 16.5573482 17.1120635 -5.61888169 -6.0064127 -5.61888169"></polygon>
                            </g>
                            <g id="Group-66" transform="translate(15.280423, 32.519975)">
                                <mask id="mask-42" fill="white">
                                    <use xlink:href="#path-41"></use>
                                </mask>
                                <g id="Clip-65"></g>
                                <polygon id="Fill-64" fill="#858585" mask="url(#mask-42)" points="-2.80194709 6.1369401 6.25371429 6.1369401 6.25371429 -2.54421662 -2.80194709 -2.54421662"></polygon>
                            </g>
                            <g id="Group-69" transform="translate(15.280423, 32.519975)">
                                <mask id="mask-44" fill="white">
                                    <use xlink:href="#path-43"></use>
                                </mask>
                                <g id="Clip-68"></g>
                                <polygon id="Fill-67" fill="#858585" mask="url(#mask-44)" points="-43.026455 1327.66988 208.453926 1327.66988 208.453926 -1489.8996 -43.026455 -1489.8996"></polygon>
                            </g>
                            <g id="Group-72" transform="translate(15.280423, 32.519975)">
                                <mask id="mask-46" fill="white">
                                    <use xlink:href="#path-45"></use>
                                </mask>
                                <g id="Clip-71"></g>
                                <polygon id="Fill-70" fill="#858585" mask="url(#mask-46)" points="-6.07879365 9.31266141 9.53056085 9.31266141 9.53056085 -5.71916355 -6.07879365 -5.71916355"></polygon>
                            </g>
                            <g id="Group-75" transform="translate(4.825397, 11.998976)">
                                <mask id="mask-48" fill="white">
                                    <use xlink:href="#path-47"></use>
                                </mask>
                                <g id="Clip-74"></g>
                                <polygon id="Fill-73" fill="#3C3C3B" mask="url(#mask-48)" points="-2.65959788 13.2077792 28.8168677 13.2077792 28.8168677 -2.46716608 -2.65959788 -2.46716608"></polygon>
                            </g>
                            <g id="Group-78" transform="translate(9.248677, 15.483674)">
                                <mask id="mask-50" fill="white">
                                    <use xlink:href="#path-49"></use>
                                </mask>
                                <g id="Clip-77"></g>
                                <polygon id="Fill-76" fill="#3C3C3B" mask="url(#mask-50)" points="-2.46658201 6.15281484 6.37635979 6.15281484 6.37635979 -2.3812102 -2.46658201 -2.3812102"></polygon>
                            </g>
                            <g id="Group-81" transform="translate(22.518519, 15.483674)">
                                <mask id="mask-52" fill="white">
                                    <use xlink:href="#path-51"></use>
                                </mask>
                                <g id="Clip-80"></g>
                                <polygon id="Fill-79" fill="#3C3C3B" mask="url(#mask-52)" points="-2.51604233 6.15204046 6.32689947 6.15204046 6.32689947 -2.38159739 -2.51604233 -2.38159739"></polygon>
                            </g>
                        </g>
                    </g>
                </g>
            </g>
        </g>
    </g>
</svg>