<?xml version="1.0" encoding="UTF-8"?>
<svg width="35px" height="51px" viewBox="0 0 35 51" version="1.1" xmlns="http://www.w3.org/2000/svg" xmlns:xlink="http://www.w3.org/1999/xlink">
    <!-- Generator: Sketch 44.1 (41455) - http://www.bohemiancoding.com/sketch -->
    <title>pigtourist</title>
    <desc>Created with Sketch.</desc>
    <defs>
        <path d="M25.85128,5.75905 L21.07952,3.97155 C21.07952,3.97155 14.93072,3.69655 14.00952,3.8335 C13.08776,3.97155 8.63128,5.75905 8.63128,5.75905 L6.74128,0.0528 L4.91064,5.4153 L1.14128,14.9259 L0.33208,23.19515 L4.57072,30.9914 L10.59688,35.1153 L17.2844,36.28405 L22.22304,35.45905 L27.92552,32.6403 L32.08128,27.89655 L34.25128,20.3599 L32.99856,14.531 L27.92552,0.0528 L25.85128,5.75905 Z" id="path-1"></path>
        <path d="M0.49336,6.41795 C0.49336,3.179 4.0096,0.5445 8.33168,0.5445 C12.6532,0.5445 16.16944,3.179 16.16944,6.41795 C16.16944,9.65635 12.6532,12.2914 8.33168,12.2914 C4.0096,12.2914 0.49336,9.65635 0.49336,6.41795 Z M1.63688,6.41795 C1.63688,9.04145 4.64016,11.17655 8.33168,11.17655 C12.0232,11.17655 15.02536,9.04145 15.02536,6.41795 C15.02536,3.7939 12.0232,1.65935 8.33168,1.65935 C4.64016,1.65935 1.63688,3.7939 1.63688,6.41795 Z" id="path-3"></path>
        <path d="M0.4928,6.4185 C0.4928,3.179 4.00904,0.54505 8.33112,0.54505 C12.65264,0.54505 16.16888,3.179 16.16888,6.4185 C16.16888,9.6569 12.65264,12.29195 8.33112,12.29195 C4.00904,12.29195 0.4928,9.6569 0.4928,6.4185 Z M1.63688,6.4185 C1.63688,9.04255 4.6396,11.17545 8.33112,11.17545 C12.02264,11.17545 15.02648,9.04255 15.02648,6.4185 C15.02648,3.79445 12.02264,1.6599 8.33112,1.6599 C4.6396,1.6599 1.63688,3.79445 1.63688,6.4185 Z" id="path-5"></path>
        <path d="M0.49336,6.41795 C0.49336,3.179 4.00904,0.54505 8.33168,0.54505 C12.65264,0.54505 16.16888,3.179 16.16888,6.41795 C16.16888,9.6569 12.65264,12.2914 8.33168,12.2914 C4.00904,12.2914 0.49336,9.6569 0.49336,6.41795 Z M1.63688,6.41795 C1.63688,9.04255 4.6396,11.17545 8.33168,11.17545 C12.02264,11.17545 15.02648,9.04255 15.02648,6.41795 C15.02648,3.79445 12.02264,1.6599 8.33168,1.6599 C4.6396,1.6599 1.63688,3.79445 1.63688,6.41795 Z" id="path-7"></path>
        <path d="M0.03976,2.05425 C0.03976,0.9658 0.94808,0.0792 2.06472,0.0792 C3.18192,0.0792 4.08968,0.9658 4.08968,2.05425 C4.08968,3.1438 3.18192,4.02985 2.06472,4.02985 C0.94808,4.02985 0.03976,3.1438 0.03976,2.05425 Z M1.18328,2.05425 C1.18328,2.52835 1.57864,2.915 2.06472,2.915 C2.55136,2.915 2.94672,2.52835 2.94672,2.05425 C2.94672,1.58015 2.55136,1.19515 2.06472,1.19515 C1.57864,1.19515 1.18328,1.58015 1.18328,2.05425 Z" id="path-9"></path>
        <path d="M0.04088,2.05425 C0.04088,0.96525 0.94752,0.07975 2.06472,0.07975 C3.1808,0.07975 4.0908,0.96525 4.0908,2.05425 C4.0908,3.1438 3.1808,4.02985 2.06472,4.02985 C0.94752,4.02985 0.04088,3.1438 0.04088,2.05425 Z M1.18328,2.05425 C1.18328,2.52945 1.5792,2.9161 2.06472,2.9161 C2.5508,2.9161 2.94672,2.52945 2.94672,2.05425 C2.94672,1.58125 2.5508,1.19515 2.06472,1.19515 C1.5792,1.19515 1.18328,1.58125 1.18328,2.05425 Z" id="path-11"></path>
        <path d="M0.04032,2.05425 C0.04032,0.96525 0.94808,0.07975 2.06472,0.07975 C3.1808,0.07975 4.09024,0.96525 4.09024,2.05425 C4.09024,3.14325 3.1808,4.02985 2.06472,4.02985 C0.94808,4.02985 0.04032,3.14325 0.04032,2.05425 Z M1.18328,2.05425 C1.18328,2.52945 1.57864,2.91555 2.06472,2.91555 C2.5508,2.91555 2.94672,2.52945 2.94672,2.05425 C2.94672,1.5807 2.5508,1.19515 2.06472,1.19515 C1.57864,1.19515 1.18328,1.5807 1.18328,2.05425 Z" id="path-13"></path>
        <path d="M0.25312,2.05425 C0.25312,0.9658 1.16144,0.0792 2.27752,0.0792 C3.39416,0.0792 4.30304,0.9658 4.30304,2.05425 C4.30304,3.1438 3.39416,4.02985 2.27752,4.02985 C1.16144,4.02985 0.25312,3.1438 0.25312,2.05425 Z M1.39664,2.05425 C1.39664,2.52835 1.792,2.915 2.27752,2.915 C2.7636,2.915 3.15952,2.52835 3.15952,2.05425 C3.15952,1.58015 2.7636,1.19515 2.27752,1.19515 C1.792,1.19515 1.39664,1.58015 1.39664,2.05425 Z" id="path-15"></path>
        <path d="M0.252,2.05425 C0.252,0.96525 1.16144,0.07975 2.27752,0.07975 C3.39528,0.07975 4.30248,0.96525 4.30248,2.05425 C4.30248,3.1438 3.39528,4.02985 2.27752,4.02985 C1.16144,4.02985 0.252,3.1438 0.252,2.05425 Z M1.39608,2.05425 C1.39608,2.52945 1.792,2.9161 2.27752,2.9161 C2.7636,2.9161 3.15952,2.52945 3.15952,2.05425 C3.15952,1.58125 2.7636,1.19515 2.27752,1.19515 C1.792,1.19515 1.39608,1.58125 1.39608,2.05425 Z" id="path-17"></path>
        <path d="M0.25256,2.05425 C0.25256,0.96525 1.16144,0.07975 2.27752,0.07975 C3.39528,0.07975 4.30248,0.96525 4.30248,2.05425 C4.30248,3.14325 3.39528,4.02985 2.27752,4.02985 C1.16144,4.02985 0.25256,3.14325 0.25256,2.05425 Z M1.39608,2.05425 C1.39608,2.52945 1.792,2.91555 2.27752,2.91555 C2.7636,2.91555 3.15952,2.52945 3.15952,2.05425 C3.15952,1.5807 2.7636,1.19515 2.27752,1.19515 C1.792,1.19515 1.39608,1.5807 1.39608,2.05425 Z" id="path-19"></path>
        <path d="M19.73776,0.4422 C19.55072,0.48785 16.84424,2.32155 16.65776,2.3672 C16.47072,2.41285 15.94208,2.06415 15.94208,2.06415 L13.22664,2.41285 L10.5448,0.6424 L7.7056,0.02915 L0.546,1.3585 C0.546,1.3585 0.4648,2.96285 0.27832,2.85505 C0.09128,2.7467 1.57808,3.78785 1.57808,3.78785 L1.57808,5.43785 C1.57808,5.43785 0.04424,6.30905 0.04424,6.2645 L0.04424,7.1093 L2.09832,8.0047 L4.5248,10.45935 L6.91544,11.3047 L10.30008,10.55285 L13.02672,8.26815 L13.76872,4.9335 L16.33408,5.07155 L16.65776,6.6869 L17.95752,8.73785 L21.74592,11.3047 L24.40424,11.07535 L26.27072,10.021 L27.76424,7.77535 L28.52416,7.77535 L30.1448,7.1093 L29.81776,6.2645 L28.52416,5.676 L28.52416,3.83405 L29.04048,3.37535 L29.81776,2.58885 L29.21072,1.1187 C29.21072,1.1187 22.67832,0.02915 22.39776,0.02915 C22.39776,0.02915 19.92424,0.39655 19.73776,0.4422 Z" id="path-21"></path>
        <path d="M19.31552,1.19955 C20.412,0.56705 21.83944,0.2464 23.56032,0.2464 C25.91512,0.2464 29.11832,0.5929 31.04696,1.5664 C31.38184,1.73525 31.59016,2.0702 31.59016,2.4409 L31.59016,3.18285 C31.59016,3.6113 31.31072,3.9875 30.89688,4.1195 C30.30776,4.30595 30.0104,4.642 30.0104,5.1172 C30.0104,5.35425 30.00088,5.58855 29.98408,5.82065 L31.43728,6.5307 C31.71672,6.6671 31.8864,6.94155 31.87856,7.2468 C31.87016,7.55205 31.6876,7.81715 31.40144,7.94035 L29.7136,8.66305 C29.55736,8.7296 29.39048,8.7626 29.22248,8.7626 L29.21968,8.7626 C29.00688,9.2081 28.75376,9.62335 28.46088,9.99955 C27.35488,11.4235 25.81264,12.20725 24.11808,12.20725 C22.03376,12.20725 20.16784,11.42625 18.8664,10.00835 C17.89984,8.95675 17.28664,7.60045 17.09288,6.12755 L15.24992,6.12755 C15.05672,7.60045 14.44296,8.95675 13.4764,10.00835 C12.17496,11.42625 10.3096,12.20725 8.22472,12.20725 C6.53016,12.20725 4.98848,11.4235 3.88192,9.99955 C3.5896,9.62335 3.33704,9.2081 3.12368,8.7626 L3.12032,8.7626 C2.95232,8.7626 2.78544,8.7296 2.62976,8.66305 L0.94248,7.94035 C0.6552,7.81715 0.4732,7.55095 0.4648,7.2468 C0.4564,6.94155 0.62608,6.6671 0.90608,6.5307 L2.35872,5.82065 C2.34192,5.58855 2.33184,5.35425 2.33184,5.1172 C2.33184,4.642 2.03448,4.30595 1.44648,4.1195 C1.03152,3.9875 0.75264,3.6113 0.75264,3.18285 L0.75264,2.4409 C0.75264,2.0702 0.96096,1.73525 1.29584,1.5664 C2.56088,0.9284 5.19176,0.2464 8.78248,0.2464 C10.5028,0.2464 11.9308,0.56705 13.02784,1.19955 C13.55704,1.5048 14.00952,1.9074 14.36904,2.37875 C14.78064,2.2836 15.3608,2.19285 16.17112,2.19285 C16.98144,2.19285 17.5616,2.2836 17.97376,2.37875 C18.33384,1.9074 18.78576,1.5048 19.31552,1.19955 Z M19.5888,9.37695 C20.70432,10.593 22.3132,11.26125 24.11808,11.26125 C25.50128,11.26125 26.77024,10.61005 27.68808,9.4281 C28.56,8.3061 29.04104,6.7749 29.04104,5.1172 C29.04104,4.22565 29.6072,3.5343 30.59616,3.22025 C30.6096,3.21585 30.62024,3.1999 30.62024,3.1834 L30.62024,2.4409 C30.62024,2.4255 30.61296,2.4123 30.60176,2.4068 L23.56032,1.1924 C22.01528,1.1924 20.7536,1.4685 19.80888,2.01355 C18.66312,2.67465 17.96872,3.91985 17.99672,5.26405 C18.02976,6.8343 18.5948,8.29455 19.5888,9.37695 Z M4.65472,9.4281 C5.57312,10.61005 6.84152,11.26125 8.22472,11.26125 C10.03016,11.26125 11.63848,10.593 12.75456,9.37695 C13.748,8.29455 14.31304,6.8343 14.34608,5.26405 C14.37408,3.91985 13.68024,2.67465 12.53448,2.01355 C11.5892,1.4685 10.32696,1.1924 8.78248,1.1924 C6.54192,1.1924 3.51568,1.5114 1.74216,2.40625 C1.72984,2.4123 1.72256,2.4255 1.72256,2.4409 L1.72256,3.18285 C1.72256,3.1999 1.7332,3.2153 1.7472,3.22025 C2.7356,3.5343 3.30232,4.22565 3.30232,5.1172 C3.30232,6.7749 3.7828,8.3061 4.65472,9.4281 Z M14.88872,3.2395 C14.95424,3.3803 15.01192,3.52385 15.06288,3.67125 L17.27992,3.67125 C17.33144,3.52385 17.38912,3.3803 17.45408,3.2395 C17.12816,3.18285 16.70872,3.13885 16.17112,3.13885 C15.63408,3.13885 15.2152,3.18285 14.88872,3.2395 Z M15.28184,4.6167 C15.3048,4.80315 15.316,4.99125 15.316,5.18155 L17.0268,5.18155 C17.0268,4.99125 17.03856,4.80315 17.06208,4.6167 L15.28184,4.6167 Z M29.85248,6.8145 C29.7976,7.10325 29.72704,7.38485 29.64416,7.6593 L30.67736,7.2171 L29.85248,6.8145 Z M1.666,7.2171 L2.69808,7.6593 C2.61576,7.38485 2.5452,7.10325 2.49032,6.8145 L1.666,7.2171 Z M18.48392,5.1172 C18.48392,2.92545 20.33416,1.6687 23.56032,1.6687 C26.63976,1.6687 28.55216,2.9898 28.55216,5.1172 C28.55216,8.34845 26.64592,10.78495 24.11808,10.78495 C22.42968,10.78495 20.98936,10.1882 19.9528,9.05905 C19.00528,8.02725 18.48392,6.6275 18.48392,5.1172 Z M20.6752,8.4282 C21.52192,9.3511 22.71304,9.8395 24.11808,9.8395 C26.09264,9.8395 27.5828,7.8089 27.58224,5.1172 C27.58224,2.7951 24.50336,2.61415 23.56032,2.61415 C22.02648,2.61415 19.45384,2.93975 19.45384,5.1172 C19.45384,6.3943 19.88728,7.5702 20.6752,8.4282 Z M3.79064,5.1172 C3.79064,2.9898 5.7036,1.6687 8.78248,1.6687 C12.0092,1.6687 13.85888,2.92545 13.85888,5.1172 C13.85888,6.6275 13.33752,8.02725 12.39,9.05905 C11.35344,10.1882 9.91312,10.78495 8.22472,10.78495 C5.69688,10.78495 3.79064,8.34845 3.79064,5.1172 Z M4.76056,5.1172 C4.76056,7.8089 6.25016,9.8395 8.22472,9.8395 C9.63032,9.8395 10.82088,9.3511 11.6676,8.4282 C12.45552,7.5702 12.88896,6.3943 12.88896,5.1172 C12.88896,2.93975 10.31688,2.61415 8.78248,2.61415 C7.83944,2.61415 4.76056,2.7951 4.76056,5.1172 Z" id="path-23"></path>
        <path d="M19.31552,1.19955 C20.412,0.56705 21.84,0.24585 23.56032,0.24585 C25.914,0.24585 29.11832,0.5929 31.04696,1.5664 C31.38184,1.7358 31.59016,2.07075 31.59016,2.44035 L31.59016,3.1834 C31.59016,3.61075 31.31128,3.9875 30.89576,4.1195 C30.30832,4.3054 30.00984,4.642 30.00984,5.1172 C30.00984,5.35425 30.002,5.5891 29.98408,5.8212 L31.4384,6.53015 C31.71728,6.6671 31.88584,6.9421 31.87744,7.24625 C31.87016,7.5515 31.68704,7.81715 31.40032,7.94035 L29.71304,8.6625 C29.55736,8.73015 29.38936,8.76315 29.22304,8.76315 L29.21856,8.76315 C29.00688,9.20755 28.7532,9.6239 28.46144,9.99955 C27.35544,11.42295 25.81264,12.20835 24.11808,12.20835 C22.0332,12.20835 20.16952,11.4268 18.8664,10.0078 C17.9004,8.95675 17.28664,7.601 17.094,6.12755 L15.24992,6.12755 C15.0556,7.601 14.44296,8.95675 13.47696,10.0078 C12.17496,11.4268 10.30848,12.20835 8.22528,12.20835 C6.53128,12.20835 4.98848,11.42295 3.88136,9.99955 C3.58904,9.6239 3.33648,9.20755 3.12424,8.76315 L3.12032,8.76315 C2.95288,8.76315 2.78544,8.73015 2.6292,8.6625 L0.94192,7.94035 C0.65632,7.81715 0.47376,7.5515 0.46424,7.24625 C0.45696,6.9421 0.62608,6.6671 0.90552,6.53015 L2.35928,5.8212 C2.34248,5.5891 2.33296,5.35425 2.33296,5.1172 C2.33296,4.642 2.03448,4.3054 1.44648,4.1195 C1.03152,3.9875 0.7532,3.61075 0.7532,3.1834 L0.7532,2.44035 C0.7532,2.07075 0.96096,1.7358 1.2964,1.5664 C2.56032,0.9284 5.19176,0.24585 8.78304,0.24585 C10.5028,0.24585 11.9308,0.56705 13.02784,1.19955 C13.55648,1.5048 14.00896,1.9074 14.3696,2.3782 C14.78176,2.28415 15.36136,2.1934 16.17112,2.1934 C16.982,2.1934 17.56216,2.28415 17.97376,2.3782 C18.33328,1.9074 18.78632,1.5048 19.31552,1.19955 Z M19.5888,9.37695 C20.70432,10.59245 22.31208,11.26125 24.11808,11.26125 C25.5024,11.26125 26.76968,10.6106 27.6892,9.4281 C28.56112,8.3061 29.03992,6.77545 29.03992,5.1172 C29.03992,4.2251 29.6072,3.53375 30.59616,3.2197 C30.61072,3.21585 30.62024,3.201 30.62024,3.1834 L30.62024,2.4409 C30.62024,2.4266 30.6124,2.4123 30.6012,2.40625 L23.56032,1.19295 C22.01584,1.19295 20.7536,1.4685 19.80888,2.01465 C18.66256,2.6752 17.96872,3.91985 17.99672,5.26405 C18.02976,6.8343 18.59648,8.2951 19.5888,9.37695 Z M4.65416,9.4281 C5.57424,10.6106 6.84096,11.26125 8.22528,11.26125 C10.0296,11.26125 11.63848,10.59245 12.75456,9.37695 C13.74744,8.2951 14.31304,6.8343 14.34608,5.26405 C14.37408,3.91985 13.67912,2.6752 12.53448,2.0141 C11.5892,1.4685 10.32696,1.19295 8.78304,1.19295 C6.54248,1.19295 3.5168,1.51195 1.7416,2.40625 C1.72928,2.4123 1.72256,2.4266 1.72256,2.44035 L1.72256,3.1834 C1.72256,3.20045 1.73208,3.21585 1.7472,3.2197 C2.7356,3.53375 3.30288,4.2251 3.30288,5.1172 C3.30288,6.77545 3.7828,8.3061 4.65416,9.4281 Z M14.88872,3.24005 C14.95312,3.37975 15.01192,3.5255 15.06232,3.6707 L17.28104,3.6707 C17.33144,3.5255 17.38968,3.37975 17.45408,3.24005 C17.12816,3.18285 16.70928,3.13885 16.17112,3.13885 C15.63408,3.13885 15.2152,3.18285 14.88872,3.24005 Z M15.28128,4.61725 C15.3048,4.80315 15.316,4.9918 15.316,5.181 L17.0268,5.181 C17.02736,4.9918 17.03912,4.80315 17.06152,4.61725 L15.28128,4.61725 Z M29.85248,6.8145 C29.79816,7.10325 29.72704,7.3843 29.64472,7.6593 L30.67736,7.21655 L29.85248,6.8145 Z M1.666,7.21655 L2.69752,7.6593 C2.61632,7.3843 2.5452,7.10325 2.49032,6.8145 L1.666,7.21655 Z M18.48392,5.1172 C18.48392,2.92655 20.33416,1.6687 23.56032,1.6687 C26.64032,1.6687 28.5516,2.9898 28.5516,5.1172 C28.5516,8.34845 26.64648,10.7844 24.11808,10.7844 C22.42968,10.7844 20.98824,10.18875 19.9528,9.0596 C19.00584,8.02835 18.48392,6.6275 18.48392,5.1172 Z M20.67408,8.42765 C21.52248,9.3511 22.71304,9.83895 24.11808,9.83895 C26.0932,9.83895 27.58224,7.8089 27.58224,5.1172 C27.58224,2.7951 24.50448,2.6158 23.56032,2.6158 C22.02648,2.6158 19.45384,2.93975 19.45384,5.1172 C19.45384,6.39375 19.88728,7.5702 20.67408,8.42765 Z M3.7912,5.1172 C3.7912,2.9898 5.70416,1.6687 8.78304,1.6687 C12.00808,1.6687 13.85944,2.92655 13.85944,5.1172 C13.85944,6.6275 13.33752,8.02835 12.39056,9.0596 C11.35456,10.18875 9.91368,10.7844 8.22528,10.7844 C5.698,10.7844 3.7912,8.34845 3.7912,5.1172 Z M4.76056,5.1172 C4.76056,7.8089 6.25016,9.83895 8.22528,9.83895 C9.62976,9.83895 10.82032,9.3511 11.66816,8.42765 C12.45552,7.5702 12.88896,6.39375 12.88896,5.1172 C12.88896,2.93975 10.31744,2.6158 8.78304,2.6158 C7.83944,2.6158 4.76056,2.7951 4.76056,5.1172 Z" id="path-25"></path>
        <path d="M19.31552,1.19955 C20.412,0.56705 21.84,0.24585 23.56032,0.24585 C25.91456,0.24585 29.11832,0.5929 31.04696,1.5664 C31.38184,1.7358 31.59016,2.07075 31.59016,2.44035 L31.59016,3.1834 C31.59016,3.61075 31.31128,3.9875 30.89576,4.1195 C30.30832,4.3054 30.00984,4.642 30.00984,5.1172 C30.00984,5.35425 30.002,5.5891 29.98408,5.8212 L31.4384,6.5307 C31.71728,6.6671 31.88584,6.9421 31.87744,7.24625 C31.87016,7.5515 31.68648,7.81715 31.40032,7.94035 L29.7136,8.6625 C29.55736,8.73015 29.38936,8.76315 29.22304,8.76315 L29.21856,8.76315 C29.00688,9.20755 28.7532,9.6239 28.46144,9.99955 C27.35544,11.42295 25.81264,12.20835 24.11808,12.20835 C22.03376,12.20835 20.16952,11.4268 18.8664,10.00725 C17.9004,8.95675 17.28664,7.60045 17.094,6.12755 L15.24992,6.12755 C15.0556,7.60045 14.44296,8.95675 13.47696,10.00725 C12.1744,11.4268 10.30848,12.20835 8.22528,12.20835 C6.53128,12.20835 4.98792,11.42295 3.88136,9.99955 C3.58904,9.6239 3.33648,9.20755 3.12424,8.76315 L3.12032,8.76315 C2.95288,8.76315 2.78544,8.73015 2.62976,8.6625 L0.94192,7.94035 C0.65576,7.81715 0.47376,7.5515 0.46424,7.24625 C0.45696,6.9421 0.62608,6.6671 0.90552,6.5307 L2.35928,5.8212 C2.34192,5.5891 2.33296,5.35425 2.33296,5.1172 C2.33296,4.642 2.03448,4.3054 1.44648,4.1195 C1.03152,3.9875 0.7532,3.61075 0.7532,3.1834 L0.7532,2.44035 C0.7532,2.07075 0.96096,1.7358 1.2964,1.5664 C2.56088,0.9284 5.19176,0.24585 8.78304,0.24585 C10.5028,0.24585 11.9308,0.56705 13.02784,1.19955 C13.55648,1.5048 14.00896,1.9074 14.36904,2.3782 C14.78176,2.2836 15.36192,2.19285 16.17168,2.19285 C16.982,2.19285 17.5616,2.2836 17.97376,2.3782 C18.33328,1.9074 18.78576,1.5048 19.31552,1.19955 Z M19.5888,9.37695 C20.70432,10.59245 22.31208,11.26125 24.11808,11.26125 C25.5024,11.26125 26.76968,10.6106 27.6892,9.4281 C28.56056,8.3061 29.03992,6.77545 29.03992,5.1172 C29.03992,4.2251 29.6072,3.53375 30.59616,3.2197 C30.61016,3.21585 30.62024,3.20045 30.62024,3.1834 L30.62024,2.4409 C30.62024,2.4266 30.6124,2.4123 30.6012,2.40625 L23.56032,1.1924 C22.01584,1.1924 20.7536,1.4685 19.80888,2.0141 C18.66256,2.67465 17.96872,3.91985 17.99672,5.2635 C18.02976,6.8343 18.59592,8.29455 19.5888,9.37695 Z M4.65416,9.4281 C5.57368,10.6106 6.84096,11.26125 8.22528,11.26125 C10.0296,11.26125 11.63848,10.59245 12.75456,9.37695 C13.74744,8.29455 14.31304,6.8343 14.34608,5.2635 C14.37408,3.91985 13.67912,2.67465 12.53448,2.01355 C11.5892,1.4685 10.32696,1.1924 8.78304,1.1924 C6.54248,1.1924 3.5168,1.5114 1.7416,2.40625 C1.72984,2.4123 1.72256,2.4266 1.72256,2.44035 L1.72256,3.1834 C1.72256,3.20045 1.73264,3.21585 1.7472,3.2197 C2.7356,3.53375 3.30288,4.2251 3.30288,5.1172 C3.30288,6.77545 3.78224,8.3061 4.65416,9.4281 Z M14.88872,3.2395 C14.95312,3.3792 15.01192,3.52495 15.06232,3.6707 L17.28104,3.6707 C17.33144,3.52495 17.38968,3.3792 17.45408,3.2395 C17.12816,3.1823 16.70928,3.1383 16.17168,3.1383 C15.63408,3.1383 15.2152,3.1823 14.88872,3.2395 Z M15.28128,4.61725 C15.3048,4.80315 15.316,4.99125 15.31656,5.181 L17.0268,5.181 C17.02736,4.99125 17.03912,4.80315 17.06152,4.61725 L15.28128,4.61725 Z M29.85248,6.8145 C29.7976,7.1027 29.72704,7.3843 29.64528,7.6593 L30.67736,7.2171 L29.85248,6.8145 Z M1.666,7.2171 L2.69808,7.6593 C2.61576,7.3843 2.5452,7.1027 2.49032,6.8145 L1.666,7.2171 Z M18.48392,5.1172 C18.48392,2.92655 20.33416,1.6687 23.56032,1.6687 C26.63976,1.6687 28.5516,2.9898 28.5516,5.1172 C28.5516,8.34845 26.64648,10.78495 24.11808,10.78495 C22.42968,10.78495 20.9888,10.18875 19.9528,9.05905 C19.00584,8.0278 18.48392,6.6275 18.48392,5.1172 Z M20.67408,8.42765 C21.52248,9.3511 22.71304,9.83895 24.11808,9.83895 C26.0932,9.83895 27.58224,7.8089 27.58224,5.1172 C27.58224,2.7951 24.50448,2.61525 23.56032,2.61525 C22.02648,2.61525 19.45384,2.93975 19.45384,5.1172 C19.45384,6.39375 19.88728,7.56965 20.67408,8.42765 Z M3.7912,5.1172 C3.7912,2.9898 5.70416,1.6687 8.78304,1.6687 C12.00864,1.6687 13.85944,2.92655 13.85944,5.1172 C13.85944,6.6275 13.33752,8.0278 12.39056,9.05905 C11.35456,10.18875 9.91368,10.78495 8.22528,10.78495 C5.69744,10.78495 3.7912,8.34845 3.7912,5.1172 Z M4.76056,5.1172 C4.76056,7.8089 6.25016,9.83895 8.22528,9.83895 C9.62976,9.83895 10.82032,9.3511 11.6676,8.42765 C12.45552,7.56965 12.88952,6.39375 12.88952,5.1172 C12.88952,2.93975 10.31688,2.61525 8.78304,2.61525 C7.83944,2.61525 4.76056,2.7951 4.76056,5.1172 Z" id="path-27"></path>
        <path d="M27.18296,0.54395 C27.25688,0.3091 27.4764,0.15125 27.7284,0.15125 C27.9804,0.15125 28.19992,0.3091 28.2744,0.54395 L31.906,11.99495 L31.9228,12.03125 C33.65376,14.7147 34.56824,17.8156 34.56824,20.9979 C34.56824,30.29455 26.81504,37.85815 17.2844,37.85815 C7.7532,37.85815 0.00056,30.29455 0.00056,20.9979 C0.00056,18.062 0.78568,15.1712 2.27136,12.6379 L2.27976,12.6236 L6.1096,0.54395 C6.18464,0.3091 6.4036,0.15125 6.65616,0.15125 C6.90816,0.15125 7.12768,0.30965 7.20216,0.5445 L8.99584,6.19905 L9.16104,6.11325 C11.64632,4.8213 14.45584,4.1382 17.2844,4.1382 C20.05136,4.1382 22.80544,4.79325 25.2504,6.03295 L25.41504,6.11655 L27.18296,0.54395 Z M25.95824,7.46185 C25.89328,7.4866 25.82384,7.49925 25.75384,7.49925 C25.65304,7.49925 25.55224,7.4734 25.4632,7.42225 C22.99304,6.0038 20.16448,5.25415 17.2844,5.25415 C14.34104,5.25415 11.46208,6.0335 8.95832,7.50805 C8.80544,7.59715 8.624,7.6131 8.4588,7.5526 C8.29248,7.49045 8.16816,7.36065 8.11496,7.19565 L6.65616,2.59545 L3.35384,13.01025 C3.33984,13.0548 3.32304,13.09275 3.30176,13.12685 C1.88944,15.5089 1.14296,18.2303 1.14296,20.9979 C1.14296,29.67965 8.38376,36.74275 17.2844,36.74275 C26.18336,36.74275 33.42528,29.67965 33.4264,20.9979 C33.4264,17.99325 32.55504,15.07165 30.90752,12.54935 C30.87952,12.507 30.85824,12.46135 30.84424,12.41515 L27.72952,2.59545 L26.3004,7.106 C26.2472,7.2699 26.12344,7.3997 25.95824,7.46185 Z" id="path-29"></path>
    </defs>
    <g id="Page-1" stroke="none" stroke-width="1" fill="none" fill-rule="evenodd">
        <g id="VENUE-PAGE-Copy" transform="translate(-237.000000, -2055.000000)">
            <g id="HUB" transform="translate(0.000000, 1795.000000)">
                <g id="CULTURE" transform="translate(19.000000, 255.000000)">
                    <g id="pigtourist" transform="translate(207.000000, 3.000000)">
                        <g id="Page-1" transform="translate(11.200000, 2.750000)">
                            <g id="Group-3" transform="translate(0.000000, 12.650000)">
                                <mask id="mask-2" fill="white">
                                    <use xlink:href="#path-1"></use>
                                </mask>
                                <g id="Clip-2"></g>
                                <polygon id="Fill-1" fill="#E5C0B5" mask="url(#mask-2)" points="-2.46792 39.03405 37.05128 39.03405 37.05128 -2.6972 -2.46792 -2.6972"></polygon>
                            </g>
                            <polygon id="Fill-4" fill="#E3AAAA" points="13.503504 32.785115 9.944704 36.421165 10.310944 39.492365 12.645024 42.059215 17.731504 43.067365 21.708064 42.104865 24.311504 39.309215 24.637984 36.704965 22.584464 33.991815 17.731504 32.204315"></polygon>
                            <g id="Group-7" transform="translate(8.960000, 31.350000)">
                                <mask id="mask-4" fill="white">
                                    <use xlink:href="#path-3"></use>
                                </mask>
                                <g id="Clip-6"></g>
                                <polygon id="Fill-5" fill="#3C3C3B" mask="url(#mask-4)" points="-2.30608 15.0414 18.96944 15.0414 18.96944 -2.2055 -2.30608 -2.2055"></polygon>
                            </g>
                            <g id="Group-10" transform="translate(8.960000, 31.350000)">
                                <mask id="mask-6" fill="white">
                                    <use xlink:href="#path-5"></use>
                                </mask>
                                <g id="Clip-9"></g>
                                <polygon id="Fill-8" fill="#3C3C3B" mask="url(#mask-6)" points="-30.8 1095.05 184.8 1095.05 184.8 -1345.85 -30.8 -1345.85"></polygon>
                            </g>
                            <g id="Group-13" transform="translate(8.960000, 31.350000)">
                                <mask id="mask-8" fill="white">
                                    <use xlink:href="#path-7"></use>
                                </mask>
                                <g id="Clip-12"></g>
                                <polygon id="Fill-11" fill="#3C3C3B" mask="url(#mask-8)" points="-5.10664 17.7914 21.76888 17.7914 21.76888 -4.9555 -5.10664 -4.9555"></polygon>
                            </g>
                            <g id="Group-16" transform="translate(12.320000, 34.650000)">
                                <mask id="mask-10" fill="white">
                                    <use xlink:href="#path-9"></use>
                                </mask>
                                <g id="Clip-15"></g>
                                <polygon id="Fill-14" fill="#3C3C3B" mask="url(#mask-10)" points="-2.76024 6.77985 6.88968 6.77985 6.88968 -2.67025 -2.76024 -2.67025"></polygon>
                            </g>
                            <g id="Group-19" transform="translate(12.320000, 34.650000)">
                                <mask id="mask-12" fill="white">
                                    <use xlink:href="#path-11"></use>
                                </mask>
                                <g id="Clip-18"></g>
                                <polygon id="Fill-17" fill="#3C3C3B" mask="url(#mask-12)" points="-34.16 1091.75 181.44 1091.75 181.44 -1349.15 -34.16 -1349.15"></polygon>
                            </g>
                            <g id="Group-22" transform="translate(12.320000, 34.650000)">
                                <mask id="mask-14" fill="white">
                                    <use xlink:href="#path-13"></use>
                                </mask>
                                <g id="Clip-21"></g>
                                <polygon id="Fill-20" fill="#3C3C3B" mask="url(#mask-14)" points="-5.55968 9.5293 9.68968 9.5293 9.68968 -5.4208 -5.55968 -5.4208"></polygon>
                            </g>
                            <g id="Group-25" transform="translate(17.920000, 34.650000)">
                                <mask id="mask-16" fill="white">
                                    <use xlink:href="#path-15"></use>
                                </mask>
                                <g id="Clip-24"></g>
                                <polygon id="Fill-23" fill="#3C3C3B" mask="url(#mask-16)" points="-2.54744 6.77985 7.10248 6.77985 7.10248 -2.67025 -2.54744 -2.67025"></polygon>
                            </g>
                            <g id="Group-28" transform="translate(17.920000, 34.650000)">
                                <mask id="mask-18" fill="white">
                                    <use xlink:href="#path-17"></use>
                                </mask>
                                <g id="Clip-27"></g>
                                <polygon id="Fill-26" fill="#3C3C3B" mask="url(#mask-18)" points="-39.76 1091.75 175.84 1091.75 175.84 -1349.15 -39.76 -1349.15"></polygon>
                            </g>
                            <g id="Group-31" transform="translate(17.920000, 34.650000)">
                                <mask id="mask-20" fill="white">
                                    <use xlink:href="#path-19"></use>
                                </mask>
                                <g id="Clip-30"></g>
                                <polygon id="Fill-29" fill="#3C3C3B" mask="url(#mask-20)" points="-5.34688 9.5293 9.90304 9.5293 9.90304 -5.4208 -5.34688 -5.4208"></polygon>
                            </g>
                            <g id="Group-34" transform="translate(2.240000, 22.550000)">
                                <mask id="mask-22" fill="white">
                                    <use xlink:href="#path-21"></use>
                                </mask>
                                <g id="Clip-33"></g>
                                <polygon id="Fill-32" fill="#40A4DC" mask="url(#mask-22)" points="-2.75576 14.0547 32.94424 14.0547 32.94424 -2.7203 -2.75576 -2.7203"></polygon>
                            </g>
                            <g id="Group-37" transform="translate(1.120000, 22.000000)">
                                <mask id="mask-24" fill="white">
                                    <use xlink:href="#path-23"></use>
                                </mask>
                                <g id="Clip-36"></g>
                                <polygon id="Fill-35" fill="#3C3C3B" mask="url(#mask-24)" points="-2.33576 14.95725 34.67856 14.95725 34.67856 -2.5036 -2.33576 -2.5036"></polygon>
                            </g>
                            <g id="Group-40" transform="translate(1.120000, 22.000000)">
                                <mask id="mask-26" fill="white">
                                    <use xlink:href="#path-25"></use>
                                </mask>
                                <g id="Clip-39"></g>
                                <polygon id="Fill-38" fill="#3C3C3B" mask="url(#mask-26)" points="-22.96 1104.4 192.64 1104.4 192.64 -1336.5 -22.96 -1336.5"></polygon>
                            </g>
                            <g id="Group-43" transform="translate(1.120000, 22.000000)">
                                <mask id="mask-28" fill="white">
                                    <use xlink:href="#path-27"></use>
                                </mask>
                                <g id="Clip-42"></g>
                                <polygon id="Fill-41" fill="#3C3C3B" mask="url(#mask-28)" points="-5.1352 17.70725 37.47856 17.70725 37.47856 -5.2536 -5.1352 -5.2536"></polygon>
                            </g>
                            <polygon id="Fill-44" fill="#E1DD3D" points="9.45336 17.934125 12.35976 16.839625 16.00872 16.105375 19.1156 16.392475 25.12888 17.934125 17.88136 0.452925"></polygon>
                            <polygon id="Stroke-45" stroke="#3C3C3B" stroke-width="2" stroke-linecap="round" stroke-linejoin="round" points="9.453472 17.934015 17.880912 0.452815 25.128992 17.934015 19.115712 16.392915 16.008832 16.105815 12.359872 16.839515"></polygon>
                            <g id="Group-48" transform="translate(0.000000, 11.550000)">
                                <mask id="mask-30" fill="white">
                                    <use xlink:href="#path-29"></use>
                                </mask>
                                <g id="Clip-47"></g>
                                <polygon id="Fill-46" fill="#3C3C3B" mask="url(#mask-30)" points="-2.8 40.60815 37.36824 40.60815 37.36824 -2.59875 -2.8 -2.59875"></polygon>
                            </g>
                        </g>
                    </g>
                </g>
            </g>
        </g>
    </g>
</svg>