<?xml version="1.0" encoding="UTF-8"?>
<svg width="38px" height="49px" viewBox="0 0 38 49" version="1.1" xmlns="http://www.w3.org/2000/svg" xmlns:xlink="http://www.w3.org/1999/xlink">
    <!-- Generator: Sketch 44.1 (41455) - http://www.bohemiancoding.com/sketch -->
    <title>piggettingaround</title>
    <desc>Created with Sketch.</desc>
    <defs>
        <path d="M22.5167034,5.16990563 L21.8740997,4.82902659 L20.6027087,4.3165904 C20.6027087,4.3165904 18.392105,3.80387479 18.1895643,3.80387479 C17.9876115,3.80387479 15.2578688,3.40599631 15.2578688,3.40599631 L13.2036535,3.29227682 C13.2036535,3.29227682 11.2814278,3.63315586 10.8737008,3.44343712 C10.46421,3.25427719 9.01173753,4.82902659 9.01173753,4.82902659 L7.33849869,4.82902659 L5.84516535,0.56105337 L3.25593701,7.21741514 L0.945091864,13.3057383 L0.287790026,16.9313501 L0.526782152,19.014624 L2.08831496,19.667603 L15.2578688,22.6343682 L28.1925459,18.7656705 L29.8681365,18.9978595 C29.8681365,18.9978595 30.0436325,17.9126347 30.1700367,17.7570039 C30.2973228,17.6010936 30.0436325,15.352689 30.1626877,15.0277363 C30.2820367,14.7052982 28.8792441,11.5594318 28.8871811,11.5476966 C28.8945302,11.5354026 27.2727349,8.01428975 27.2727349,8.01428975 L25.4345827,3.74771357 L24.5453438,0.0486171745 L22.5167034,5.16990563 Z" id="path-1"></path>
        <path d="M24.3736693,0.536465374 L22.7994961,5.39985928 L22.6522205,5.32609529 C20.4733648,4.24478227 18.0178898,3.67339077 15.551832,3.67339077 C13.0313911,3.67339077 10.5274121,4.26853204 8.31092913,5.39706519 L8.16365354,5.47166741 L6.56508136,0.537303601 C6.49893963,0.331379132 6.3031601,0.19390988 6.0791601,0.19390988 C5.85398425,0.19390988 5.6576168,0.330540905 5.59206299,0.536465374 L2.17826772,11.0791276 L2.17091864,11.0911422 C0.846026247,13.302106 0.146687664,15.8251697 0.146687664,18.3887477 C0.146687664,18.9878007 0.185490814,19.5787509 0.258393701,20.1596423 C0.457112861,20.1305837 0.660535433,20.1023634 0.868073491,20.0783343 C1.00270866,20.0635256 1.13587402,20.0492757 1.26845144,20.0389376 C1.20142782,19.4971634 1.16497638,18.9467276 1.16497638,18.3887477 C1.16497638,15.9726977 1.83021522,13.5966031 3.08896588,11.5180792 C3.10807349,11.4881825 3.12277165,11.4563298 3.13629396,11.4169331 L6.07974803,2.32691856 L7.37935958,6.34146777 C7.42580577,6.48592225 7.53633596,6.59880351 7.68537533,6.65356768 C7.83294488,6.70609658 7.99462467,6.69212613 8.13102362,6.61528864 C10.3616168,5.32777175 12.9287979,4.64769012 15.551832,4.64769012 C18.119895,4.64769012 20.640336,5.30150729 22.8412388,6.53900997 C22.9749921,6.61528864 23.1407874,6.62786205 23.2824777,6.57365669 C23.4300472,6.52028957 23.5405774,6.40601127 23.5870236,6.26323324 L24.8616483,2.32691856 L27.6372493,10.8975117 C27.6498898,10.9383054 27.6689974,10.9771433 27.6939843,11.0137459 C29.1629186,13.2166068 29.9392756,15.7656556 29.9392756,18.3887477 C29.9392756,18.853405 29.9134068,19.3121946 29.8663727,19.7651167 C30.2026667,19.8374837 30.536021,19.9274534 30.8605564,20.0333494 C30.9228766,19.4926929 30.9566824,18.9442129 30.9566824,18.3887477 C30.9566824,15.6103042 30.1415223,12.9047863 28.5985092,10.5619415 L28.584399,10.5306476 L25.3472756,0.536465374 C25.2808399,0.331379132 25.0853543,0.19390988 24.8616483,0.19390988 C24.6361785,0.19390988 24.440399,0.331379132 24.3736693,0.536465374 Z" id="path-3"></path>
        <path d="M17.2509396,0.63761145 L15.4207244,1.88852576 L14.8013438,1.68539538 C14.8013438,1.68539538 13.6663517,1.68986593 13.4264777,1.68539538 C13.1877795,1.6798072 11.991937,1.88852576 11.991937,1.88852576 L11.7335433,1.57642585 L10.4686194,0.608552909 L8.82712861,0.181895291 L5.12142782,0.181895291 C5.00207874,0.181895291 1.78553281,0.580612004 1.78553281,0.580612004 C1.78553281,0.580612004 0.760188976,1.17742973 0.639958005,1.29198744 L0.318950131,2.14194977 L0.915695538,2.60688643 L1.78553281,3.43226076 L1.92604724,4.8385265 L0.580871391,5.35012447 L0.193133858,5.84356085 L2.49339633,6.638759 L4.10607874,8.94248661 L6.76527034,9.73936122 C6.76527034,9.73936122 9.99563255,8.86592853 9.87158005,8.81507608 C9.74840945,8.76590009 11.7335433,6.95197655 11.7335433,6.95197655 L12.6501207,4.27859077 L14.9368609,4.30709049 L15.2790341,5.35012447 L16.5939318,7.98942235 L18.1895643,9.18501367 L19.5215118,9.35964432 L21.8811549,9.48426076 L23.9644724,8.57394608 L25.1388556,6.78153703 L26.0336798,6.35543823 L27.1204619,5.71810619 L26.7236115,5.10284746 L25.5865617,4.8385265 L26.0336798,3.02739705 L27.080189,2.60688643 C27.080189,2.60688643 27.1689659,1.94580462 27.080189,2.00252465 C26.9896483,2.06036233 26.4822677,0.859462235 26.4822677,0.859462235 L23.3459738,0.210674423 L19.7605039,0.0407937211 L17.2509396,0.63761145 Z" id="path-5"></path>
        <path d="M16.8908346,1.00782844 C17.8676745,0.456833795 19.1402415,0.176027701 20.6732598,0.176027701 C22.7718635,0.176027701 25.6274226,0.478627701 27.3468136,1.32859003 C27.6457743,1.47695623 27.8300892,1.76865928 27.8300892,2.09193555 L27.8300892,2.73904691 C27.8300892,3.11317562 27.5822782,3.44092244 27.2127664,3.55631837 C26.6889239,3.71977267 26.4231811,4.01315217 26.4231811,4.4277952 C26.4231811,4.63427849 26.4149501,4.83936473 26.399664,5.0422157 L27.6951601,5.66166556 C27.9447349,5.78069381 28.0946562,6.02042678 28.087895,6.28586537 C28.0808399,6.55298042 27.9179843,6.78405171 27.6625302,6.89162419 L26.1586142,7.52280923 C26.0189816,7.58008809 25.8699423,7.60970545 25.7209029,7.60970545 L25.7173753,7.60970545 C25.528063,7.99864284 25.3028871,8.36131579 25.0418478,8.68878319 C24.056189,9.93215346 22.6804409,10.6164262 21.1709396,10.6164262 C19.3130919,10.6164262 17.6501417,9.93438873 16.4895748,8.69660665 C15.6288504,7.77846851 15.0826667,6.59489178 14.9098163,5.31016898 L13.2671496,5.31016898 C13.0942992,6.59489178 12.5475276,7.77846851 11.6862152,8.69660665 C10.5262362,9.93438873 8.86358005,10.6164262 7.00514436,10.6164262 C5.49623097,10.6164262 4.12048294,9.93215346 3.13511811,8.68878319 C2.87378478,8.36131579 2.64860892,7.99864284 2.45870866,7.60970545 L2.45547507,7.60970545 C2.3064357,7.60970545 2.1568084,7.58008809 2.01805774,7.52280923 L0.515023622,6.89162419 C0.258687664,6.78405171 0.095832021,6.55298042 0.0881889764,6.28586537 C0.0817217848,6.02042678 0.232230971,5.78069381 0.482099738,5.66166556 L1.77671391,5.0422157 C1.76172178,4.83936473 1.75378478,4.63427849 1.75378478,4.4277952 C1.75378478,4.01315217 1.48774803,3.71977267 0.962729659,3.55631837 C0.594393701,3.44092244 0.345112861,3.11317562 0.345112861,2.73904691 L0.345112861,2.09193555 C0.345112861,1.76865928 0.531191601,1.47695623 0.829858268,1.32859003 C1.95691339,0.772007202 4.30215223,0.176027701 7.50223622,0.176027701 C9.03613648,0.176027701 10.3092913,0.456833795 11.2855433,1.00782844 C11.7585302,1.27466408 12.1606719,1.62616066 12.4819738,2.0380096 C12.8488399,1.95362807 13.3656273,1.87567295 14.087601,1.87567295 C14.8101627,1.87567295 15.3269501,1.95362807 15.6946982,2.0380096 C16.0154121,1.62616066 16.4190236,1.27466408 16.8908346,1.00782844 Z M17.1339423,8.14533259 C18.128126,9.20680757 19.5620787,9.79021367 21.1709396,9.79021367 C22.4041155,9.79021367 23.5344042,9.22273389 24.3542677,8.18947922 C25.1291549,7.21098873 25.5586352,5.87541348 25.5586352,4.4277952 C25.5586352,3.64992041 26.063958,3.04639686 26.9446719,2.77089954 C26.9564304,2.76782604 26.9661312,2.75385559 26.9661312,2.73904691 L26.9661312,2.09193555 C26.9661312,2.07880332 26.959664,2.06762696 26.9493753,2.06175937 L20.6732598,1.00168144 C19.2975118,1.00168144 18.1731024,1.24225263 17.3300157,1.71892447 C16.3093753,2.29506593 15.6908766,3.38224654 15.7155696,4.55492632 C15.7452598,5.92598652 16.2485249,7.20148883 17.1339423,8.14533259 Z M3.82328609,8.18947922 C4.64285564,9.22273389 5.7719685,9.79021367 7.00514436,9.79021367 C8.61429921,9.79021367 10.0488399,9.20680757 11.0430236,8.14533259 C11.9284409,7.20148883 12.4314121,5.92598652 12.4613963,4.55492632 C12.4860892,3.38224654 11.8675906,2.29506593 10.8457743,1.71892447 C10.0047454,1.24225263 8.87886614,1.00168144 7.50223622,1.00168144 C5.50593176,1.00168144 2.80823097,1.28053167 1.22729659,2.06147996 C1.21583202,2.06762696 1.20995276,2.07880332 1.20995276,2.09193555 L1.20995276,2.73904691 C1.20995276,2.75385559 1.21847769,2.76782604 1.23141207,2.77089954 C2.11212598,3.04639686 2.61833071,3.64992041 2.61833071,4.4277952 C2.61833071,5.87541348 3.04604724,7.21098873 3.82328609,8.18947922 Z M12.944378,2.7882229 C13.0034646,2.9117217 13.0549081,3.03689695 13.0995906,3.16542512 L15.0770814,3.16542512 C15.1220577,3.03689695 15.1735013,2.9117217 15.231706,2.7882229 C14.9409764,2.73904691 14.567643,2.70104728 14.087601,2.70104728 C13.6093228,2.70104728 13.2368714,2.73904691 12.944378,2.7882229 Z M13.2950761,3.9924759 C13.3162415,4.15229788 13.3253543,4.31770803 13.3253543,4.48423583 L14.8510236,4.48423583 C14.8510236,4.31770803 14.8607244,4.15229788 14.8813018,3.9924759 L13.2950761,3.9924759 Z M26.2817848,5.90922198 C26.2332808,6.16124894 26.1703727,6.40684949 26.0968819,6.64630305 L27.0169869,6.26015974 L26.2817848,5.90922198 Z M1.15909711,6.26015974 L2.07979003,6.64630305 C2.00600525,6.40684949 1.94368504,6.16124894 1.89459318,5.90922198 L1.15909711,6.26015974 Z M16.1488714,4.4277952 C16.1488714,2.51579908 17.7988871,1.41883915 20.6732598,1.41883915 C23.4182887,1.41883915 25.1226877,2.5719603 25.1226877,4.4277952 C25.1226877,7.24842955 23.423874,9.37417359 21.1709396,9.37417359 C19.6667297,9.37417359 18.3821102,8.85391394 17.4590656,7.86815882 C16.6139213,6.96818227 16.1488714,5.74548827 16.1488714,4.4277952 Z M18.1025512,7.31716417 C18.8571549,8.12325928 19.9189501,8.54907867 21.1709396,8.54907867 C22.9314856,8.54907867 24.2590236,6.77678707 24.2590236,4.4277952 C24.2590236,2.40068255 21.5139948,2.24449289 20.6732598,2.24449289 C19.3066247,2.24449289 17.0128294,2.52725485 17.0128294,4.4277952 C17.0128294,5.54235789 17.399979,6.56862733 18.1025512,7.31716417 Z M3.05339633,4.4277952 C3.05339633,2.5719603 4.7583832,1.41883915 7.50223622,1.41883915 C10.3780787,1.41883915 12.0275066,2.51579908 12.0275066,4.4277952 C12.0275066,5.74548827 11.5630446,6.96818227 10.7179003,7.86815882 C9.79456168,8.85391394 8.51023622,9.37417359 7.00514436,9.37417359 C4.75250394,9.37417359 3.05339633,7.24842955 3.05339633,4.4277952 Z M3.91706037,4.4277952 C3.91706037,6.77678707 5.24548031,8.54907867 7.00514436,8.54907867 C8.25801575,8.54907867 9.31863517,8.12325928 10.0744147,7.31716417 C10.776105,6.56862733 11.1632546,5.54235789 11.1632546,4.4277952 C11.1632546,2.52725485 8.87004724,2.24449289 7.50223622,2.24449289 C6.66208924,2.24449289 3.91706037,2.40068255 3.91706037,4.4277952 Z" id="path-7"></path>
        <path d="M16.8905407,1.00782844 C17.8676745,0.457951431 19.1396535,0.176586519 20.6741417,0.176586519 C22.7727454,0.176586519 25.6271286,0.479465928 27.3474016,1.32859003 C27.6457743,1.47751505 27.8315591,1.76837987 27.8315591,2.09221496 L27.8315591,2.74044395 C27.8315591,3.11317562 27.5816903,3.44176066 27.2121785,3.55687719 C26.6868661,3.71949326 26.4220052,4.01343158 26.4220052,4.42891283 C26.4220052,4.6348373 26.4137743,4.84020295 26.399664,5.04193629 L27.695748,5.66222438 C27.944147,5.78069381 28.0949501,6.01930914 28.0867192,6.28726242 C28.080252,6.55353924 27.9179843,6.78405171 27.6619423,6.89078596 L26.1586142,7.52280923 C26.0210394,7.58120572 25.8705302,7.61026427 25.7209029,7.61026427 L25.7185512,7.61026427 C25.527769,7.99892225 25.3028871,8.36131579 25.0430236,8.6890626 C24.056189,9.93159464 22.680147,10.6153086 21.1709396,10.6153086 C19.311916,10.6153086 17.6519055,9.93438873 16.4904567,8.69604783 C15.6288504,7.77846851 15.0823727,6.59628883 14.9086404,5.30933075 L13.2689134,5.30933075 C13.0942992,6.59628883 12.5475276,7.77846851 11.6870971,8.69604783 C10.5253543,9.93438873 8.8624042,10.6153086 7.00543832,10.6153086 C5.49476115,10.6153086 4.1207769,9.93159464 3.13482415,8.6890626 C2.8743727,8.36131579 2.64860892,7.99892225 2.45959055,7.61026427 L2.45635696,7.61026427 C2.30702362,7.61026427 2.15622047,7.58120572 2.01776378,7.52280923 L0.513259843,6.89078596 C0.259275591,6.78405171 0.0961259843,6.5521422 0.0896587927,6.28726242 C0.0823097113,6.01930914 0.233112861,5.78069381 0.480923885,5.66222438 L1.7775958,5.04193629 C1.76172178,4.83880591 1.75378478,4.6348373 1.75378478,4.42891283 C1.75378478,4.01343158 1.4871601,3.71949326 0.963611549,3.55687719 C0.593217848,3.44176066 0.345700787,3.11317562 0.345700787,2.74044395 L0.345700787,2.09221496 C0.345700787,1.76837987 0.530603675,1.47751505 0.829270341,1.32859003 C1.95691339,0.771727793 4.30215223,0.176586519 7.50223622,0.176586519 C9.03672441,0.176586519 10.3087034,0.457951431 11.2867192,1.00782844 C11.7573543,1.27494349 12.1615538,1.6272783 12.4810919,2.03773019 C12.8500157,1.95530452 13.3665092,1.87623176 14.0884829,1.87623176 C14.8092808,1.87623176 15.3257743,1.95530452 15.6946982,2.03773019 C16.0174698,1.6272783 16.4181417,1.27494349 16.8905407,1.00782844 Z M17.1348241,8.14589141 C18.1290079,9.20652816 19.5623727,9.79021367 21.1709396,9.79021367 C22.4047034,9.79021367 23.5341102,9.22133684 24.3536798,8.19059686 C25.1300367,7.21182696 25.5580472,5.87401644 25.5580472,4.42891283 C25.5580472,3.64908218 26.064252,3.04611745 26.9455538,2.77313481 C26.9581942,2.76698781 26.9661312,2.75553204 26.9661312,2.74044395 L26.9661312,2.09221496 C26.9661312,2.07852392 26.9605459,2.06790637 26.9505512,2.06343583 L20.6741417,1.00307849 C19.2969239,1.00307849 18.1722205,1.24392909 17.3300157,1.72004211 C16.3093753,2.29674238 15.6905827,3.38336417 15.7149816,4.557441 C15.7434961,5.92570711 16.2485249,7.20093001 17.1348241,8.14589141 Z M3.82269816,8.19059686 C4.64167979,9.22133684 5.7719685,9.79021367 7.00543832,9.79021367 C8.61400525,9.79021367 10.0485459,9.20652816 11.0427297,8.14589141 C11.9269711,7.20093001 12.432,5.92570711 12.4616903,4.557441 C12.4860892,3.38336417 11.8678845,2.29674238 10.8466562,1.72004211 C10.0047454,1.24392909 8.8791601,1.00307849 7.50223622,1.00307849 C5.50710761,1.00307849 2.8088189,1.28053167 1.22729659,2.06343583 C1.21583202,2.06650933 1.21112861,2.07852392 1.21112861,2.09221496 L1.21112861,2.74044395 C1.21112861,2.75385559 1.21906562,2.76698781 1.23170604,2.77313481 C2.11241995,3.04611745 2.61744882,3.64908218 2.61744882,4.42891283 C2.61744882,5.87401644 3.04575328,7.21182696 3.82269816,8.19059686 Z M12.9434961,2.78989935 C13.0025827,2.91144229 13.0549081,3.03745577 13.0990026,3.16514571 L15.0770814,3.16514571 C15.1214698,3.03745577 15.1755591,2.91144229 15.2305302,2.78989935 C14.9400945,2.74044395 14.567643,2.70020905 14.0884829,2.70020905 C13.6099108,2.70020905 13.2359895,2.74044395 12.9434961,2.78989935 Z M13.2950761,3.99191708 C13.3141837,4.15229788 13.3253543,4.31686981 13.3262362,4.48423583 L14.8501417,4.48423583 C14.8501417,4.31686981 14.8607244,4.15229788 14.8813018,3.99191708 L13.2950761,3.99191708 Z M26.2809029,5.90922198 C26.2341627,6.16096953 26.1703727,6.40657008 26.0980577,6.64574423 L27.0175748,6.26155679 L26.2809029,5.90922198 Z M1.15909711,6.26155679 L2.07979003,6.64574423 C2.00688714,6.40657008 1.94368504,6.16096953 1.89459318,5.90922198 L1.15909711,6.26155679 Z M16.1494593,4.42891283 C16.1494593,2.51524026 17.7991811,1.41911856 20.6741417,1.41911856 C23.4179948,1.41911856 25.1226877,2.57084266 25.1226877,4.42891283 C25.1226877,7.24842955 23.4244619,9.37473241 21.1709396,9.37473241 C19.6667297,9.37473241 18.3815223,8.85419335 17.4575958,7.86899705 C16.6136273,6.96874109 16.1494593,5.74548827 16.1494593,4.42891283 Z M18.1025512,7.31716417 C18.8586247,8.1238181 19.9183622,8.54907867 21.1709396,8.54907867 C22.9314856,8.54907867 24.2601995,6.77790471 24.2601995,4.42891283 C24.2601995,2.40012373 21.5145827,2.24449289 20.6741417,2.24449289 C19.3060367,2.24449289 17.0140052,2.52725485 17.0140052,4.42891283 C17.0140052,5.54235789 17.3993911,6.57030379 18.1025512,7.31716417 Z M3.05369029,4.42891283 C3.05369029,2.57084266 4.75867717,1.41911856 7.50223622,1.41911856 C10.3777848,1.41911856 12.0263307,2.51524026 12.0263307,4.42891283 C12.0263307,5.74548827 11.5621627,6.96874109 10.7187822,7.86899705 C9.79397375,8.85419335 8.51023622,9.37473241 7.00543832,9.37473241 C4.75309186,9.37473241 3.05369029,7.24842955 3.05369029,4.42891283 Z M3.91794226,4.42891283 C3.91794226,6.77790471 5.24489239,8.54907867 7.00543832,8.54907867 C8.25713386,8.54907867 9.31863517,8.1238181 10.0744147,7.31716417 C10.7769869,6.57030379 11.1629606,5.54235789 11.1629606,4.42891283 C11.1629606,2.52725485 8.87034121,2.24449289 7.50223622,2.24449289 C6.66120735,2.24449289 3.91794226,2.40012373 3.91794226,4.42891283 Z" id="path-9"></path>
        <path d="M16.8908346,1.00782844 C17.8667927,0.457113204 19.1402415,0.176586519 20.6741417,0.176586519 C22.7727454,0.176586519 25.6274226,0.479745337 27.3468136,1.32886944 C27.6457743,1.47639741 27.8309711,1.76865928 27.8309711,2.09193555 L27.8309711,2.74044395 C27.8309711,3.11345503 27.5822782,3.44231948 27.2121785,3.55771542 C26.688042,3.7206109 26.4222992,4.01343158 26.4222992,4.42919224 C26.4222992,4.63399908 26.4149501,4.84020295 26.399664,5.04277452 L27.6942782,5.66166556 C27.9447349,5.78097322 28.0946562,6.02014737 28.0873071,6.28726242 C28.0808399,6.55409806 27.9179843,6.78405171 27.6616483,6.89162419 L26.1586142,7.52280923 C26.0195696,7.58092632 25.8708241,7.61026427 25.7209029,7.61026427 L25.7182572,7.61026427 C25.528063,7.99892225 25.3028871,8.3615952 25.0418478,8.6890626 C24.056189,9.93215346 22.6804409,10.6164262 21.1709396,10.6164262 C19.31221,10.6164262 17.6513176,9.93466814 16.4904567,8.69576842 C15.6288504,7.7779097 15.0826667,6.5954506 14.9098163,5.30905134 L13.2680315,5.30905134 C13.0942992,6.5954506 12.5475276,7.7779097 11.6862152,8.69576842 C10.5253543,9.93466814 8.86269816,10.6164262 7.00514436,10.6164262 C5.49534908,10.6164262 4.12048294,9.93215346 3.13511811,8.6890626 C2.87466667,8.3615952 2.64831496,7.99892225 2.45959055,7.61026427 L2.45547507,7.61026427 C2.3064357,7.61026427 2.15739633,7.58092632 2.01805774,7.52280923 L0.513259843,6.89162419 C0.259275591,6.78405171 0.0952440945,6.55242161 0.0887769029,6.28726242 C0.0823097113,6.02014737 0.233112861,5.78097322 0.482099738,5.66166556 L1.7775958,5.04277452 C1.76172178,4.83908532 1.75319685,4.63399908 1.75319685,4.42919224 C1.75319685,4.01343158 1.48686614,3.7206109 0.962729659,3.55771542 C0.593511811,3.44231948 0.34687664,3.11345503 0.34687664,2.74044395 L0.34687664,2.09193555 C0.34687664,1.76865928 0.532073491,1.47639741 0.829270341,1.32886944 C1.95691339,0.771168975 4.30215223,0.176586519 7.50223622,0.176586519 C9.03672441,0.176586519 10.3092913,0.457113204 11.2864252,1.00782844 C11.7579423,1.27466408 12.1615538,1.62811653 12.4819738,2.03773019 C12.8497218,1.9544663 13.3656273,1.87623176 14.0884829,1.87623176 C14.8101627,1.87623176 15.3260682,1.9544663 15.6946982,2.03773019 C16.016,1.62811653 16.4181417,1.27466408 16.8908346,1.00782844 Z M17.1348241,8.14645023 C18.1290079,9.20596934 19.5620787,9.79021367 21.1709396,9.79021367 C22.4049974,9.79021367 23.5338163,9.22189566 24.3533858,8.19031745 C25.1306247,7.21154755 25.5586352,5.87401644 25.5586352,4.42919224 C25.5586352,3.64936159 26.063958,3.04639686 26.9455538,2.77313481 C26.9581942,2.76782604 26.9661312,2.75525263 26.9661312,2.74044395 L26.9661312,2.09193555 C26.9661312,2.07908273 26.959664,2.06790637 26.9493753,2.06343583 L20.6741417,1.00307849 C19.2975118,1.00307849 18.1722205,1.24364968 17.3300157,1.72004211 C16.3093753,2.29618356 15.6908766,3.38336417 15.7155696,4.557441 C15.744378,5.92738356 16.2485249,7.20148883 17.1348241,8.14645023 Z M3.82328609,8.19031745 C4.64197375,9.22189566 5.7719685,9.79021367 7.00514436,9.79021367 C8.61429921,9.79021367 10.0488399,9.20596934 11.0430236,8.14645023 C11.9275591,7.20148883 12.432,5.92738356 12.4619843,4.557441 C12.4860892,3.38336417 11.8675906,2.29618356 10.8466562,1.72004211 C10.0047454,1.24364968 8.87886614,1.00307849 7.50223622,1.00307849 C5.50651969,1.00307849 2.80823097,1.28053167 1.22729659,2.06343583 C1.21671391,2.06650933 1.21142257,2.07908273 1.21142257,2.09193555 L1.21142257,2.74044395 C1.21142257,2.75385559 1.21906562,2.76782604 1.232,2.77313481 C2.11241995,3.04639686 2.61833071,3.64936159 2.61833071,4.42919224 C2.61833071,5.87401644 3.04604724,7.21154755 3.82328609,8.19031745 Z M12.9434961,2.78934054 C13.0034646,2.91228052 13.0549081,3.03745577 13.0995906,3.16542512 L15.0770814,3.16542512 C15.1226457,3.03745577 15.1740892,2.91228052 15.2308241,2.78934054 C14.9400945,2.74044395 14.567643,2.70020905 14.0884829,2.70020905 C13.6093228,2.70020905 13.2359895,2.74044395 12.9434961,2.78934054 Z M13.2950761,3.9924759 C13.3153596,4.15229788 13.3253543,4.31798744 13.3262362,4.48423583 L14.8510236,4.48423583 C14.8510236,4.31798744 14.8607244,4.15229788 14.8813018,3.9924759 L13.2950761,3.9924759 Z M26.2809029,5.90950139 C26.2341627,6.16124894 26.1703727,6.40657008 26.0974698,6.64602364 L27.0175748,6.26099797 L26.2809029,5.90950139 Z M1.15909711,6.26099797 L2.07979003,6.64602364 C2.00688714,6.40657008 1.94368504,6.16124894 1.89459318,5.90950139 L1.15909711,6.26099797 Z M16.1488714,4.42919224 C16.1488714,2.51579908 17.7988871,1.41883915 20.6741417,1.41883915 C23.4182887,1.41883915 25.1226877,2.57084266 25.1226877,4.42919224 C25.1226877,7.24870896 23.4247559,9.37417359 21.1709396,9.37417359 C19.6658478,9.37417359 18.3821102,8.85391394 17.4581837,7.86899705 C16.6139213,6.96874109 16.1488714,5.74548827 16.1488714,4.42919224 Z M18.1025512,7.31716417 C18.8586247,8.1238181 19.9189501,8.54879926 21.1709396,8.54879926 C22.9314856,8.54879926 24.2599055,6.7776253 24.2599055,4.42919224 C24.2599055,2.40068255 21.5139948,2.24393407 20.6741417,2.24393407 C19.3075066,2.24393407 17.0137113,2.52725485 17.0137113,4.42919224 C17.0137113,5.5426373 17.399979,6.57030379 18.1025512,7.31716417 Z M3.05339633,4.42919224 C3.05339633,2.57084266 4.7583832,1.41883915 7.50223622,1.41883915 C10.3780787,1.41883915 12.0266247,2.51579908 12.0266247,4.42919224 C12.0266247,5.74548827 11.5621627,6.96874109 10.7179003,7.86899705 C9.79456168,8.85391394 8.51023622,9.37417359 7.00514436,9.37417359 C4.75250394,9.37417359 3.05339633,7.24870896 3.05339633,4.42919224 Z M3.91794226,4.42919224 C3.91794226,6.7776253 5.24548031,8.54879926 7.00514436,8.54879926 C8.25713386,8.54879926 9.31863517,8.1238181 10.0744147,7.31716417 C10.7769869,6.57030379 11.1626667,5.5426373 11.1626667,4.42919224 C11.1626667,2.52725485 8.86916535,2.24393407 7.50223622,2.24393407 C6.66120735,2.24393407 3.91794226,2.40068255 3.91794226,4.42919224 Z" id="path-11"></path>
        <path d="M4.12753806,0.327746814 L1.79729134,1.25175254 L0.0514435696,3.15732225 C0.0514435696,3.15732225 2.65419423,4.29591413 2.74385302,4.29004654 C2.83233596,4.2827819 6.04917585,5.16627331 6.04917585,5.16627331 L11.0491969,3.69881699 L12.2150551,3.15732225 L11.735601,1.87706999 L9.67403675,0.872315051 L8.00197375,0.327746814 L5.64144882,0.0290585411 L4.12753806,0.327746814 Z" id="path-13"></path>
        <path d="M0.155506562,1.74574774 C0.501501312,1.84130563 0.846908136,1.93043712 1.1943727,2.01342161 C1.17908661,1.95530452 1.16967979,1.89551099 1.16967979,1.83348218 C1.16967979,1.41883915 1.52214173,1.08271006 1.95573753,1.08271006 C2.38903937,1.08271006 2.74179528,1.41883915 2.74179528,1.83348218 C2.74179528,2.01090693 2.67624147,2.17464063 2.56806299,2.30316879 C2.93316535,2.33390379 3.30091339,2.35513887 3.66954331,2.37274164 C3.72804199,2.20286094 3.76037795,2.02096565 3.76037795,1.83348218 C3.76037795,0.882373777 2.95080315,0.10869012 1.95573753,0.10869012 C0.991244094,0.10869012 0.203716535,0.835433056 0.155506562,1.74574774 Z" id="path-15"></path>
        <path d="M0.242225722,3.55883306 C0.566761155,3.65690563 0.893354331,3.75358116 1.21641995,3.84941847 C2.03216798,2.22968421 4.24894488,1.06734257 6.84875591,1.06734257 C9.61641995,1.06734257 11.9481365,2.38391801 12.6213123,4.16375365 C12.8926404,3.95279982 13.1704357,3.75190471 13.4596955,3.56414183 C12.5184252,1.54680849 9.91126509,0.0927638042 6.84875591,0.0927638042 C3.78977428,0.0927638042 1.18437795,1.54485263 0.242225722,3.55883306 Z" id="path-17"></path>
        <path d="M0.1752021,1.89718744 C0.1752021,2.1089795 0.216944882,2.3095952 0.288965879,2.49512281 C0.566467192,2.50210803 0.843674541,2.50881385 1.11911811,2.51747553 C1.26433596,2.52194608 1.40867192,2.52418135 1.55300787,2.52809307 C1.33782677,2.39341791 1.19466667,2.16206722 1.19466667,1.89718744 C1.19466667,1.4850591 1.54712861,1.14725355 1.98043045,1.14725355 C2.41402625,1.14725355 2.76648819,1.4850591 2.76648819,1.89718744 C2.76648819,2.17044949 2.61421522,2.40738837 2.38815748,2.53982825 C2.81293438,2.54094589 3.23741732,2.53647535 3.6616063,2.52194608 C3.74009449,2.32775679 3.78536483,2.11903823 3.78536483,1.89718744 C3.78536483,0.947755494 2.97549606,0.175189474 1.98043045,0.175189474 C0.985364829,0.175189474 0.1752021,0.947755494 0.1752021,1.89718744 Z" id="path-19"></path>
        <path d="M0.17608399,1.89858449 C0.17608399,2.11037655 0.216944882,2.30987461 0.289847769,2.49512281 C0.567643045,2.50210803 0.843674541,2.50881385 1.11911811,2.51803435 C1.26374803,2.52194608 1.40808399,2.52501958 1.5535958,2.52725485 C1.33576903,2.39425614 1.1943727,2.16122899 1.1943727,1.89858449 C1.1943727,1.48561791 1.54712861,1.1486506 1.97925459,1.1486506 C2.41432021,1.1486506 2.7656063,1.48561791 2.7656063,1.89858449 C2.7656063,2.17044949 2.61421522,2.408506 2.38845144,2.53954885 C2.81352231,2.54094589 3.23888714,2.53647535 3.66131234,2.52194608 C3.73950656,2.32887442 3.78624672,2.11959705 3.78624672,1.89858449 C3.78624672,0.948593721 2.9752021,0.174910065 1.97925459,0.174910065 C0.98448294,0.174910065 0.17608399,0.948593721 0.17608399,1.89858449 Z" id="path-21"></path>
    </defs>
    <g id="Page-1" stroke="none" stroke-width="1" fill="none" fill-rule="evenodd">
        <g id="VENUE-PAGE-Copy" transform="translate(-33.000000, -2055.000000)">
            <g id="HUB" transform="translate(0.000000, 1795.000000)">
                <g id="CULTURE" transform="translate(19.000000, 255.000000)">
                    <g id="piggettingaround" transform="translate(11.000000, 4.000000)">
                        <g id="Page-1" transform="translate(3.393939, 1.610526)">
                            <g id="Group-3" transform="translate(4.115486, 0.894109)">
                                <mask id="mask-2" fill="white">
                                    <use xlink:href="#path-1"></use>
                                </mask>
                                <g id="Clip-2"></g>
                                <polygon id="Fill-1" fill="#E5BFB4" mask="url(#mask-2)" points="-5.71435171 28.3267688 36.2092178 28.3267688 36.2092178 -5.64378338 -5.71435171 -5.64378338"></polygon>
                            </g>
                            <g id="Group-6" transform="translate(3.821522, 0.055882)">
                                <mask id="mask-4" fill="white">
                                    <use xlink:href="#path-3"></use>
                                </mask>
                                <g id="Clip-5"></g>
                                <polygon id="Fill-4" fill="#3C3C3B" mask="url(#mask-4)" points="-5.85604199 25.8528811 36.9594121 25.8528811 36.9594121 -5.49960831 -5.85604199 -5.49960831"></polygon>
                            </g>
                            <g id="Group-9" transform="translate(5.585302, 9.835199)">
                                <mask id="mask-6" fill="white">
                                    <use xlink:href="#path-5"></use>
                                </mask>
                                <g id="Clip-8"></g>
                                <polygon id="Fill-7" fill="#D8DA3B" mask="url(#mask-6)" points="-5.80988976 15.4323206 33.1226037 15.4323206 33.1226037 -5.65272447 -5.80988976 -5.65272447"></polygon>
                            </g>
                            <g id="Group-12" transform="translate(5.291339, 9.276380)">
                                <mask id="mask-8" fill="white">
                                    <use xlink:href="#path-7"></use>
                                </mask>
                                <g id="Clip-11"></g>
                                <polygon id="Fill-10" fill="#3C3C3B" mask="url(#mask-8)" points="-5.91395276 16.3085474 34.0906247 16.3085474 34.0906247 -5.51637285 -5.91395276 -5.51637285"></polygon>
                            </g>
                            <g id="Group-15" transform="translate(5.291339, 9.276380)">
                                <mask id="mask-10" fill="white">
                                    <use xlink:href="#path-9"></use>
                                </mask>
                                <g id="Clip-14"></g>
                                <path d="M56.7486068,49.0591996 C54.8334362,50.4288628 52.4558614,51.2651341 49.95541,51.3715889 C46.3043864,51.5269404 43.051389,49.676973 41.0101081,46.9759258 C40.9113365,46.8588534 40.8152105,46.7395457 40.7214362,46.6185616 C40.675284,46.5587681 40.6314835,46.4975775 40.5865071,46.4366663 C40.5347696,46.3673729 40.483032,46.2983588 40.4330583,46.2276683 C40.387494,46.1631248 40.3436934,46.0974637 40.299599,46.032082 C40.2528588,45.963068 40.2067066,45.8940539 40.1617302,45.8242017 C40.1185176,45.7574229 40.0767748,45.6898059 40.035326,45.6219095 C39.9915255,45.5506602 39.9486068,45.4791315 39.9062761,45.407044 C39.866885,45.3391476 39.8277879,45.2706923 39.7895727,45.2019577 C39.7481239,45.1273555 39.7078509,45.0519151 39.6681659,44.9761952 C39.6325963,44.9082988 39.5967328,44.8406818 39.5626331,44.7719472 C39.5217722,44.6903597 39.4826751,44.6073753 39.4438719,44.5246702 C39.4138877,44.4606855 39.3830215,44.3969802 39.3542131,44.3324367 C39.307179,44.2276584 39.2630845,44.1209241 39.219578,44.0144693 C39.2013522,43.9703226 39.1819507,43.9270142 39.1643129,43.8828676 C39.1058142,43.734222 39.0505491,43.5841793 38.9982236,43.4327396 C38.978822,43.3765784 38.9614782,43.3195789 38.9429585,43.2631383 C38.9100346,43.1633893 38.8774047,43.0633608 38.8474205,42.9622148 C38.8280189,42.8976713 38.8106751,42.832569 38.7924493,42.7674667 C38.7662866,42.672747 38.7404178,42.5774685 38.7166068,42.4816312 C38.6998509,42.414573 38.6839769,42.3472355 38.6683969,42.2796185 C38.6463496,42.1837812 38.6254782,42.0876645 38.6060766,41.9912683 C38.5922604,41.9239307 38.579032,41.8565932 38.5666856,41.7886968 C38.5481659,41.6889477 38.5317039,41.5883605 38.5161239,41.4877732 C38.5061291,41.4229503 38.4955465,41.3584068 38.4867276,41.2935839 C38.4714415,41.1820997 38.458801,41.0700567 38.4467486,40.9577343 C38.4408693,40.9029701 38.4338142,40.8484853 38.4285228,40.7934417 C38.4132367,40.6257963 38.4005963,40.4575921 38.3926593,40.2882702 C38.3823706,40.0689341 38.3835465,39.850995 38.3900136,39.6341736 C38.3917774,39.5816447 38.395011,39.5291158 38.3976567,39.4765869 C38.4064756,39.2924563 38.4211738,39.1100022 38.4420451,38.9283863 C38.4455727,38.8968131 38.4482184,38.8649605 38.4523339,38.8333873 C38.4523339,38.8322696 38.4526278,38.8314314 38.4529218,38.8303138 C38.4896672,38.2619958 38.5802079,37.7042953 38.7245438,37.1619623 C38.6880924,34.6243693 38.6869165,32.0859381 38.8659402,29.5536539 C39.0105701,27.504468 39.1860661,25.3910179 39.5255937,23.3046705 C38.0496042,19.3415326 36.8067276,15.369733 36.8249533,11.0436427 C36.8499402,5.09083287 41.923452,0.68455217 47.995557,0.4260988 C54.011515,0.169880702 59.1893837,5.48899077 59.1661606,11.0436427 C59.1649848,11.3504338 59.1749795,11.6544308 59.1905596,11.9578691 C59.2478824,12.2121313 59.3146121,12.4635994 59.3798719,12.7156264 C60.8973102,14.0813778 62.0763969,15.9528596 62.5887748,17.7209601 C63.0705806,19.3840028 63.0714625,21.1213682 62.6860766,22.7827344 C62.8257092,24.7732445 62.2095622,26.845342 61.2979822,28.5938838 C61.1786331,30.0236199 61.1160189,31.4550325 61.0854467,32.8878421 C62.5305701,34.6939422 63.4130478,36.946538 63.5265176,39.3569998 C63.7267066,43.6056938 60.7044703,47.3849806 56.7486068,49.0591996 L56.7486068,49.0591996 Z M-42.4410625,1533.23955 L238.434948,1533.23955 L238.434948,-1501.03962 L-42.4410625,-1501.03962 L-42.4410625,1533.23955 Z" id="Fill-13" fill="#3C3C3B" mask="url(#mask-10)"></path>
                            </g>
                            <g id="Group-18" transform="translate(5.291339, 9.276380)">
                                <mask id="mask-12" fill="white">
                                    <use xlink:href="#path-11"></use>
                                </mask>
                                <g id="Clip-17"></g>
                                <path d="M36.8249239,11.0436147 C36.8310971,9.60298166 37.1350551,8.25399477 37.6750656,7.03130078 L37.6750656,-8.92938233 L-9.49898163,-8.92938233 L-9.49898163,19.7223392 L37.6750656,19.7223392 L37.6750656,17.5421104 C37.1488714,15.4387191 36.8155171,13.2895047 36.8249239,11.0436147" id="Fill-16" fill="#3C3C3B" mask="url(#mask-12)"></path>
                            </g>
                            <g id="Group-21" transform="translate(12.640420, 18.496879)">
                                <mask id="mask-14" fill="white">
                                    <use xlink:href="#path-13"></use>
                                </mask>
                                <g id="Clip-20"></g>
                                <polygon id="Fill-19" fill="#E3A9A9" mask="url(#mask-14)" points="-5.9504042 10.8589533 18.2169029 10.8589533 18.2169029 -5.66390083 -5.9504042 -5.66390083"></polygon>
                            </g>
                            <g id="Group-24" transform="translate(14.404199, 20.452742)">
                                <mask id="mask-16" fill="white">
                                    <use xlink:href="#path-15"></use>
                                </mask>
                                <g id="Clip-23"></g>
                                <polygon id="Fill-22" fill="#3C3C3B" mask="url(#mask-16)" points="-5.84692913 8.0651422 9.76310761 8.0651422 9.76310761 -5.58398984 -5.84692913 -5.58398984"></polygon>
                            </g>
                            <g id="Group-27" transform="translate(12.052493, 17.938061)">
                                <mask id="mask-18" fill="white">
                                    <use xlink:href="#path-17"></use>
                                </mask>
                                <g id="Clip-26"></g>
                                <path d="M49.987452,40.3975191 C48.0722814,41.7671823 45.6947066,42.6034536 43.1942551,42.7099084 C39.5432315,42.8652598 36.2902341,41.0152925 34.2489533,38.3142452 C34.1501816,38.1971729 34.0540556,38.0778652 33.9602814,37.9568811 C33.9141291,37.8970875 33.8703286,37.835897 33.8253522,37.7749858 C33.7736147,37.7056923 33.7218772,37.6366783 33.6719034,37.5659878 C33.6263391,37.5014443 33.5825386,37.4357832 33.5384441,37.3704015 C33.4917039,37.3013874 33.4455517,37.2323734 33.4005753,37.1625211 C33.3573627,37.0957424 33.3156199,37.0281254 33.2741711,36.960229 C33.2303706,36.8889797 33.187452,36.817451 33.1451213,36.7453634 C33.1057302,36.677467 33.0666331,36.6090118 33.0284178,36.5402772 C32.986969,36.465675 32.9466961,36.3902345 32.907011,36.3145147 C32.8714415,36.2466183 32.835578,36.1790013 32.8014782,36.1102667 C32.7606173,36.0286792 32.7215202,35.9456947 32.6827171,35.8629897 C32.6527328,35.799005 32.6218667,35.7352997 32.5930583,35.6707562 C32.5460241,35.5659778 32.5019297,35.4592436 32.4584231,35.3527887 C32.4401974,35.3086421 32.4207958,35.2653337 32.403158,35.2211871 C32.3446593,35.0725415 32.2893942,34.9224988 32.2370688,34.7710591 C32.2176672,34.7148979 32.2003234,34.6578984 32.1818037,34.6014578 C32.1488798,34.5017088 32.1162499,34.4016803 32.0862656,34.3005343 C32.066864,34.2359908 32.0495202,34.1708885 32.0312945,34.1057861 C32.0051318,34.0110665 31.979263,33.915788 31.955452,33.8199507 C31.9386961,33.7528925 31.922822,33.6855549 31.907242,33.617938 C31.8851948,33.5221006 31.8643234,33.4259839 31.8449218,33.3295878 C31.8311055,33.2622502 31.8178772,33.1949127 31.8055307,33.1270163 C31.787011,33.0272672 31.7705491,32.92668 31.754969,32.8260927 C31.7449743,32.7612698 31.7343916,32.6967263 31.7255727,32.6319034 C31.7102866,32.5204192 31.6976462,32.4083762 31.6855937,32.2960537 C31.6797144,32.2412896 31.6726593,32.1868048 31.667368,32.1317612 C31.6520819,31.9641158 31.6394415,31.7959115 31.6315045,31.6265897 C31.6212157,31.4072536 31.6223916,31.1893145 31.6288588,30.9724931 C31.6306226,30.9199642 31.6338562,30.8674353 31.6365018,30.8149064 C31.6453207,30.6307758 31.6600189,30.4483217 31.6808903,30.2667058 C31.6844178,30.2351326 31.6870635,30.20328 31.691179,30.1717067 C31.691179,30.1705891 31.691473,30.1697509 31.6917669,30.1686332 C31.7285123,29.6003152 31.819053,29.0426148 31.963389,28.5002818 C31.9269375,25.9626888 31.9257617,23.4242576 32.1047853,20.8919734 C32.2494152,18.8427874 32.4249113,16.7293374 32.7644388,14.64299 C31.2884493,10.6798521 30.0455727,6.70805245 30.0637984,2.38196214 C30.0887853,-3.57084765 35.1622971,-7.97712835 41.2344021,-8.23558172 C47.2503601,-8.49179982 52.4282289,-3.17268975 52.4050058,2.38196214 C52.4038299,2.68875328 52.4138247,2.99275032 52.4294047,3.29618855 C52.4867276,3.55045078 52.5534572,3.80191893 52.6187171,4.05394589 C54.1361554,5.41969732 55.315242,7.29117913 55.8276199,9.05927959 C56.3094257,10.7223223 56.3103076,12.4596877 55.9249218,14.1210539 C56.0645543,16.111564 55.4484073,18.1836615 54.5368273,19.9322033 C54.4174782,21.3619394 54.354864,22.793352 54.3242919,24.2261616 C55.7694152,26.0322617 56.6518929,28.2848574 56.7653627,30.6953193 C56.9655517,34.9440133 53.9433155,38.7233001 49.987452,40.3975191 L49.987452,40.3975191 Z M-49.6799076,1524.73518 L231.196103,1524.73518 L231.196103,-1509.54399 L-49.6799076,-1509.54399 L-49.6799076,1524.73518 Z" id="Fill-25" fill="#3C3C3B" mask="url(#mask-18)"></path>
                            </g>
                            <g id="Group-30" transform="translate(19.989501, 20.173333)">
                                <mask id="mask-20" fill="white">
                                    <use xlink:href="#path-19"></use>
                                </mask>
                                <g id="Clip-29"></g>
                                <polygon id="Fill-28" fill="#3C3C3B" mask="url(#mask-20)" points="-5.82693963 8.23222881 9.78809449 8.23222881 9.78809449 -5.51832872 -5.82693963 -5.51832872"></polygon>
                            </g>
                            <g id="Group-33" transform="translate(19.989501, 20.173333)">
                                <mask id="mask-22" fill="white">
                                    <use xlink:href="#path-21"></use>
                                </mask>
                                <g id="Clip-32"></g>
                                <path d="M42.0504441,38.1622467 C40.1352735,39.5319099 37.7576987,40.3681812 35.2572472,40.474636 C31.6062236,40.6299874 28.3532262,38.7800201 26.3119454,36.0789729 C26.2131738,35.9619005 26.1170478,35.8425928 26.0232735,35.7216087 C25.9771213,35.6618151 25.9333207,35.6006246 25.8883444,35.5397134 C25.8366068,35.4704199 25.7848693,35.4014059 25.7348955,35.3307154 C25.6893312,35.2661719 25.6455307,35.2005108 25.6014362,35.1351291 C25.5546961,35.0661151 25.5085438,34.997101 25.4635675,34.9272488 C25.4203549,34.86047 25.3786121,34.792853 25.3371633,34.7249566 C25.2933627,34.6537073 25.2504441,34.5821786 25.2081134,34.510091 C25.1687223,34.4421946 25.1296252,34.3737394 25.09141,34.3050048 C25.0499612,34.2304026 25.0096882,34.1549621 24.9700031,34.0792423 C24.9344336,34.0113459 24.8985701,33.9437289 24.8644703,33.8749943 C24.8236094,33.7934068 24.7845123,33.7104223 24.7457092,33.6277173 C24.7157249,33.5637326 24.6848588,33.5000273 24.6560504,33.4354838 C24.6090163,33.3307054 24.5649218,33.2239712 24.5214152,33.1175163 C24.5031895,33.0733697 24.4837879,33.0300613 24.4661501,32.9859147 C24.4076514,32.8372691 24.3523864,32.6872264 24.3000609,32.5357867 C24.2806593,32.4796255 24.2633155,32.422626 24.2447958,32.3661854 C24.2118719,32.2664364 24.179242,32.1664079 24.1492577,32.0652619 C24.1298562,32.0007184 24.1125123,31.9356161 24.0942866,31.8705138 C24.0681239,31.7757941 24.0422551,31.6805156 24.0184441,31.5846783 C24.0016882,31.5176201 23.9858142,31.4502825 23.9702341,31.3826656 C23.9481869,31.2868283 23.9273155,31.1907115 23.9079139,31.0943154 C23.8940976,31.0269778 23.8808693,30.9596403 23.8685228,30.8917439 C23.8500031,30.7919948 23.8335412,30.6914076 23.8179612,30.5908203 C23.8079664,30.5259974 23.7973837,30.4614539 23.7885648,30.396631 C23.7732787,30.2851468 23.7606383,30.1731038 23.7485858,30.0607813 C23.7427066,30.0060172 23.7356514,29.9515324 23.7303601,29.8964888 C23.715074,29.7288434 23.7024336,29.5606392 23.6944966,29.3913173 C23.6842079,29.1719812 23.6853837,28.9540421 23.6918509,28.7372207 C23.6936147,28.6846918 23.6968483,28.6321629 23.699494,28.579634 C23.7083129,28.3955034 23.723011,28.2130493 23.7438824,28.0314334 C23.74741,27.9998602 23.7500556,27.9680076 23.7541711,27.9364343 C23.7541711,27.9353167 23.7544651,27.9344785 23.7547591,27.9333608 C23.7915045,27.3650428 23.8820451,26.8073424 24.0263811,26.2650094 C23.9899297,23.7274164 23.9887538,21.1889852 24.1677774,18.656701 C24.3124073,16.6075151 24.4879034,14.494065 24.827431,12.4077176 C23.3514415,8.44457969 22.1085648,4.47278006 22.1267906,0.146689751 C22.1517774,-5.80612004 27.2252892,-10.2124007 33.2973942,-10.4708541 C39.3133522,-10.7270722 44.491221,-5.40796214 44.4679979,0.146689751 C44.466822,0.453480886 44.4768168,0.757477932 44.4923969,1.06091616 C44.5497197,1.31517839 44.6164493,1.56664654 44.6817092,1.8186735 C46.1991475,3.18442493 47.3782341,5.05590674 47.8906121,6.8240072 C48.3724178,8.48704986 48.3732997,10.2244153 47.9879139,11.8857815 C48.1275465,13.8762916 47.5113995,15.9483891 46.5998194,17.6969309 C46.4804703,19.126667 46.4178562,20.5580796 46.387284,21.9908892 C47.8324073,23.7969893 48.714885,26.049585 48.8283549,28.4600469 C49.0285438,32.7087409 46.0063076,36.4880277 42.0504441,38.1622467 L42.0504441,38.1622467 Z M-57.1392252,1522.3426 L223.736785,1522.3426 L223.736785,-1511.93657 L-57.1392252,-1511.93657 L-57.1392252,1522.3426 Z" id="Fill-31" fill="#3C3C3B" mask="url(#mask-22)"></path>
                            </g>
                            <polygon id="Fill-34" fill="#969696" points="0.840940682 44.0064502 0.840940682 19.074222 18.1847727 22.0733987 18.1847727 47.0056269"></polygon>
                            <path d="M0.252955381,18.4045064 L0.252955381,19.743714 L0.252955381,43.5401445 L0.252955381,44.4728119 L1.21833071,44.6398985 L17.3863097,47.4356654 L18.7726404,47.6753984 L18.7726404,46.3359114 L18.7726404,22.5397603 L18.7726404,21.6068135 L17.8072651,21.4400063 L1.63928609,18.6442394 L0.252955381,18.4045064 Z M1.4288084,19.743714 L17.5967874,22.5397603 L17.5967874,46.3359114 L1.4288084,43.5401445 L1.4288084,19.743714 Z" id="Fill-35" fill="#3C3C3B"></path>
                            <polygon id="Fill-36" fill="#C1C1C1" points="19.3350509 22.0733987 36.6788829 19.074222 36.6788829 44.0064502 19.3350509 47.0056269"></polygon>
                            <path d="M37.2668094,18.4045064 L35.8804787,18.6442394 L19.7124997,21.4400063 L18.7471244,21.6068135 L18.7471244,22.5397603 L18.7471244,46.3359114 L18.7471244,47.6753984 L20.1334551,47.4356654 L36.3014341,44.6398985 L37.2668094,44.4728119 L37.2668094,43.5401445 L37.2668094,19.743714 L37.2668094,18.4045064 Z M36.0909564,19.743714 L36.0909564,43.5401445 L19.9229774,46.3359114 L19.9229774,22.5397603 L36.0909564,19.743714 Z" id="Fill-37" fill="#3C3C3B"></path>
                        </g>
                    </g>
                </g>
            </g>
        </g>
    </g>
</svg>