<?xml version="1.0" encoding="UTF-8"?>
<svg width="52px" height="45px" viewBox="0 0 52 45" version="1.1" xmlns="http://www.w3.org/2000/svg" xmlns:xlink="http://www.w3.org/1999/xlink">
    <!-- Generator: Sketch 44.1 (41455) - http://www.bohemiancoding.com/sketch -->
    <title>pigblog</title>
    <desc>Created with Sketch.</desc>
    <defs>
        <path d="M0.087102936,3.15536745 C0.087102936,4.89719988 10.8777856,6.30957484 24.1888079,6.30957484 C37.4996286,6.30957484 48.2903113,4.89719988 48.2903113,3.15536745 C48.2903113,1.41334167 37.4996286,0.000966717968 24.1888079,0.000966717968 C10.8777856,0.000966717968 0.087102936,1.41334167 0.087102936,3.15536745 Z" id="path-1"></path>
        <path d="M4.92333215,4.95036937 L3.33471171,11.0306387 C3.33471171,11.0306387 1.66302087,15.2704704 1.11983728,15.350708 C0.576653696,15.4303655 0.0746020516,20.5787187 0.0746020516,20.5787187 L0.576048815,24.1946306 L3.08388751,30.8176154 L5.79113548,33.6704002 L10.1031341,36.6774731 L12.9015175,37.7070277 L16.4527768,38.3060062 L20.7504599,38.7255618 L26.8714574,36.5796412 L29.7710577,35.4621152 L31.3399186,21.2886764 L32.4073329,19.9648528 L33.5971348,19.2701693 L36.338861,19.2701693 L35.5404174,15.8564948 L34.1312451,12.9505406 L32.4073329,8.55062043 L31.1729713,3.75047903 L29.246827,0.95067045 C29.246827,0.95067045 27.577959,5.59033667 27.0299363,5.75061851 C26.48393,5.90974028 26.8682313,6.14832628 26.8714574,6.15045306 L25.4598656,5.35039727 C25.4598656,5.35039727 24.4015246,5.03060696 23.8903997,4.95036937 C23.3792748,4.87013178 22.3205306,4.55053482 22.3205306,4.55053482 C22.3205306,4.55053482 20.6395649,3.83052328 20.3050654,3.75047903 C19.9709692,3.67024144 18.0478493,3.75047903 17.61052,3.83052328 C17.1735939,3.91018084 15.2059144,4.23035783 14.4709834,4.31059542 C13.7368589,4.39025298 12.9015175,4.63019238 12.9015175,4.63019238 L9.76177927,6.15045306 L6.59522462,0.150421316 L4.92333215,4.95036937 Z" id="path-3"></path>
        <path d="M5.76673859,0.115812813 C5.21649805,0.17594267 4.05996463,0.41588207 4.05996463,0.41588207 C4.05996463,0.41588207 1.36380615,2.87579261 0.645206933,3.10664486 L0.172592855,4.02058003 L0.172592855,7.73567718 C0.172592855,8.15581281 1.31823842,9.29595998 1.31823842,9.29595998 L3.78494517,10.8558561 L5.35501592,11.3357349 L8.76211178,11.3357349 C9.01293597,11.3357349 12.1480368,10.2557176 12.1480368,10.2557176 L13.8408985,8.51581858 L15.4708525,6.80898134 L15.4708525,4.02058003 L13.7154864,1.71611774 L10.8493562,0.535755098 L8.4943509,0.115812813 C8.4943509,0.115812813 7.5265405,0.0893247403 6.71841882,0.0893247403 C6.31435798,0.0893247403 5.95021931,0.0958984225 5.76673859,0.115812813 Z" id="path-5"></path>
        <path d="M0.124605589,4.58630339 C0.124605589,7.05510773 2.21568093,9.05660062 4.7952989,9.05660062 C7.37552175,9.05660062 9.4665971,7.05510773 9.4665971,4.58630339 C9.4665971,2.11788573 7.37552175,0.1161995 4.7952989,0.1161995 C2.21568093,0.1161995 0.124605589,2.11788573 0.124605589,4.58630339 Z" id="path-7"></path>
        <path d="M0.105249381,4.58630339 C0.105249381,7.05510773 2.19632473,9.05660062 4.77614432,9.05660062 C7.35616555,9.05660062 9.44724089,7.05510773 9.44724089,4.58630339 C9.44724089,2.11788573 7.35616555,0.1161995 4.77614432,0.1161995 C2.19632473,0.1161995 0.105249381,2.11788573 0.105249381,4.58630339 Z" id="path-9"></path>
        <path d="M0.0828687655,4.4484494 C0.0828687655,4.4484494 3.09255748,5.28852732 3.57505129,5.51705945 C4.05694022,5.74597826 10.9298054,6.06847538 11.1806296,6.06847538 C11.4312522,6.06847538 11.7449841,5.76859946 11.8877361,5.51705945 C12.0312947,5.26609946 12.7480792,1.97751828 12.7480792,1.97751828 L0.938171206,0.0800442478 L0.0828687655,4.4484494 Z" id="path-11"></path>
        <path d="M0.0407286877,1.94194306 C0.0407286877,1.94194306 11.9316908,3.87595902 11.9316908,3.63582628 L11.9316908,2.25593305 L10.9963424,1.24455271 C10.9963424,1.24455271 3.7042943,0.515840708 3.17865228,0.39596768 C2.65240538,0.275901308 0.751867704,0.103632166 0.751867704,0.103632166 L0.0407286877,1.94194306 Z" id="path-13"></path>
        <path d="M29.5252741,0.6186995 C29.6270959,0.303549442 29.9315529,0.0897114275 30.2751256,0.0897114275 C30.6186983,0.0897114275 30.922752,0.303549442 31.0243721,0.6186995 L34.9476335,12.7541035 C36.5009692,15.1171489 37.4482137,17.782197 37.7351291,20.5502972 L43.3314927,21.2971835 C44.4128192,21.4416112 45.1697276,22.4007888 45.0189105,23.4355637 L44.6662646,25.853712 L51.3979908,26.752373 L50.2148426,34.867777 L43.4835196,33.969116 L42.3483587,41.7546758 C42.2104457,42.7012861 41.3597807,43.3882359 40.3881394,43.3882359 C40.2974071,43.3882359 40.2056668,43.3818555 40.1133215,43.3698682 L30.6935019,42.1123615 C30.1702794,42.0421778 29.7069402,41.7811639 29.3877644,41.3768825 C29.0687902,40.9724077 28.9334984,40.4741612 29.0062858,39.9734013 L29.386353,37.3675164 C26.4048921,39.2630569 22.8320587,40.369369 18.9930775,40.369369 C8.60625398,40.369369 0.154849664,32.2819998 0.154849664,22.3420123 C0.154849664,19.202499 1.0101521,16.1126751 2.63022639,13.4025779 L6.76237354,0.6186995 C6.86359038,0.303549442 7.16703926,0.0897114275 7.51162009,0.0897114275 C7.85620092,0.0897114275 8.16005306,0.303549442 8.26187478,0.619279531 L10.139427,6.42635437 C12.8529254,5.04298095 15.8932614,4.31465564 18.9930775,4.31465564 C22.023937,4.31465564 25.0053979,5.01262601 27.6759498,6.3408965 L29.5252741,0.6186995 Z M28.4241882,8.14614563 C28.3332543,8.18056079 28.2372798,8.19738169 28.1417085,8.19738169 C28.0033923,8.19738169 27.8654793,8.16199981 27.7432932,8.09336283 C25.1013725,6.60539053 22.0757552,5.81809542 18.9934807,5.81809542 C15.8454758,5.81809542 12.7654192,6.63516545 10.084786,8.18404098 C9.87771489,8.30275394 9.6246728,8.32479511 9.39945525,8.24262409 C9.1734312,8.16006637 8.99983021,7.98335033 8.92865582,7.76255194 L7.51262823,3.38254617 L4.10472586,13.9271191 C4.08678104,13.9806753 4.06379554,14.0324913 4.03415635,14.0814073 C2.52336399,16.5803732 1.72492041,19.4366381 1.72492041,22.3420123 C1.72492041,31.4539092 9.47083127,38.8670893 18.9930775,38.8670893 C23.028242,38.8670893 26.7436258,37.5341785 29.6869791,35.3055069 L31.676636,21.6542891 C31.7498267,21.1541093 32.0226282,20.709999 32.4450371,20.4049028 C32.8674461,20.0996133 33.3886523,19.9700731 33.9112699,20.0396768 L36.1317899,20.3362659 C35.8226954,17.8978165 34.9534807,15.5564255 33.5681005,13.4750818 C33.5303962,13.4184321 33.5003537,13.3579155 33.480191,13.2941122 L30.2761337,3.38254617 L28.8917616,7.66800693 C28.8199823,7.8874519 28.6479943,8.06358792 28.4241882,8.14614563 Z M33.012416,22.1088399 L43.6042943,23.522955 L43.64341,23.2518873 C43.665589,23.1024327 43.6250619,22.9537514 43.5294906,22.833105 C43.4339193,22.7122653 43.2954015,22.6339611 43.1393421,22.6134667 L33.7195225,21.3557666 C33.3961125,21.3116843 33.0970994,21.5290025 33.0519349,21.8381589 L33.012416,22.1088399 Z M30.9257764,36.4234196 L41.5172515,37.8375346 L42.1082207,33.7858263 L40.7809091,33.6081435 L36.4636682,35.8915314 L36.8725681,33.0865025 L35.3768978,32.8867786 L36.560046,24.7713746 L43.2913689,25.6700356 L43.4123452,24.8386581 L32.8208702,23.4249298 L30.9257764,36.4234196 Z M38.4400177,31.9540891 L38.2228652,33.4436081 L40.5145596,32.2309571 L49.0314927,33.3682041 L49.8305412,27.8845931 L37.7433958,26.2709475 L36.9439441,31.7543651 L38.4400177,31.9540891 Z M30.8856526,40.7956916 L34.3018217,41.2521758 C34.1836682,41.1614977 34.0751928,41.0578655 33.9814362,40.9391526 C33.6868589,40.5661928 33.5620516,40.106035 33.6291935,39.6441372 C33.696537,39.182046 33.9481677,38.7725442 34.3381146,38.4912293 C34.4625186,38.4011312 34.596399,38.3297874 34.7363283,38.2739111 L30.734029,37.7397028 L30.3815847,40.1572711 C30.3594057,40.3065323 30.4001344,40.4554069 30.4953024,40.57644 C30.5910753,40.6972797 30.7295932,40.7750038 30.8856526,40.7956916 Z M40.3060771,42.0537784 C40.3332968,42.0574519 40.3605164,42.059192 40.3875345,42.059192 C40.5151645,42.059192 40.6389636,42.0195566 40.7434064,41.9443459 C40.869625,41.8532811 40.9514857,41.7206474 40.9730598,41.5713861 L41.3257057,39.1536245 L36.5745631,38.5190708 C37.0627025,38.8920306 37.3405447,39.4935225 37.2481995,40.1274962 C37.1810577,40.589394 36.9292253,40.9988957 36.53948,41.2805973 C36.4160842,41.3699221 36.2836151,41.4422326 36.1452989,41.4979155 L40.3060771,42.0537784 Z M35.3783092,40.301312 C35.3986735,40.3040189 35.4188362,40.3051789 35.4389989,40.3051789 C35.6535302,40.3051789 35.8424549,40.1532109 35.8729006,39.9436264 C35.8890308,39.8328405 35.8587867,39.7224413 35.7886204,39.6331166 C35.7178493,39.5434052 35.6152211,39.4857888 35.4992855,39.4705146 C35.4787195,39.4676145 35.4585568,39.4660677 35.4379908,39.4660677 C35.3436293,39.4660677 35.2518889,39.4954559 35.1746657,39.5511389 C35.0809091,39.6188092 35.0206226,39.7170277 35.004694,39.8282003 C34.987959,39.9384061 35.018203,40.0489987 35.0889742,40.1385167 C35.1597453,40.2278415 35.2623735,40.2858446 35.3783092,40.301312 Z M20.634121,17.2684831 C21.2289211,15.0539255 23.3522568,13.4702482 25.776017,13.4702482 C28.2973647,13.4702482 30.4392501,15.1786322 30.9187195,17.5513447 L31.7161549,17.5513447 C32.0387584,17.5513447 32.3010753,17.8023047 32.3010753,18.1108811 C32.3010753,18.4196508 32.0387584,18.6706108 31.7161549,18.6706108 L31.0189282,18.6706108 C30.9356562,21.3849615 28.6159356,23.568004 25.776017,23.568004 C22.9473895,23.568004 20.5804881,21.3888284 20.4780615,18.7017391 C20.1486028,18.2423548 19.7487761,17.990428 19.3485462,17.990428 C18.9483162,17.990428 18.5480863,18.2423548 18.2184259,18.7017391 C18.1176123,21.3888284 15.7783339,23.568004 12.9819667,23.568004 C10.2944782,23.568004 8.00762292,21.6073067 7.71163424,19.0785658 L6.98093739,19.0785658 C6.65833392,19.0785658 6.39621861,18.8276058 6.39621861,18.5194161 C6.39621861,18.2108397 6.65833392,17.9592997 6.98093739,17.9592997 L7.71163424,17.9592997 C8.00762292,15.4305589 10.2944782,13.4702482 12.9819667,13.4702482 C15.3768942,13.4702482 17.4756314,15.0533455 18.0641811,17.267903 C18.4587655,17.0074692 18.8981111,16.871162 19.3485462,16.871162 C19.7993845,16.871162 20.2395366,17.0078559 20.634121,17.2684831 Z M21.6392324,18.5194161 C21.6392324,20.6860244 23.4952105,22.448738 25.776017,22.448738 C28.0616625,22.448738 29.8519102,20.7225664 29.8519102,18.5194161 C29.8519102,16.3158792 28.0616625,14.5891275 25.776017,14.5891275 C23.4952105,14.5891275 21.6392324,16.3522278 21.6392324,18.5194161 Z M8.84477892,18.5194161 C8.84477892,20.6860244 10.7005554,22.448738 12.9819667,22.448738 C15.2678139,22.448738 17.0578599,20.7225664 17.0578599,18.5194161 C17.0578599,16.3158792 15.2678139,14.5891275 12.9819667,14.5891275 C10.7005554,14.5891275 8.84477892,16.3522278 8.84477892,18.5194161 Z M24.3370039,18.5184494 C24.3370039,17.6890054 25.0396746,17.0165564 25.9062681,17.0165564 C26.7736682,17.0165564 27.4763389,17.6890054 27.4763389,18.5184494 C27.4763389,19.3484735 26.7736682,20.0207291 25.9062681,20.0207291 C25.0396746,20.0207291 24.3370039,19.3484735 24.3370039,18.5184494 Z M11.0396923,18.5190294 C11.0396923,17.6890054 11.7419597,17.0171364 12.6093597,17.0171364 C13.4765582,17.0171364 14.1792289,17.6890054 14.1792289,18.5190294 C14.1792289,19.3488601 13.4765582,20.0213092 12.6093597,20.0213092 C11.7419597,20.0213092 11.0396923,19.3488601 11.0396923,18.5190294 Z M10.3666608,30.237198 C10.3666608,26.7167978 14.2399186,23.8526058 19.0009409,23.8526058 C23.7609551,23.8526058 27.6348178,26.7167978 27.6348178,30.237198 C27.6348178,33.7579848 23.7609551,36.6221768 19.0009409,36.6221768 C14.2399186,36.6221768 10.3666608,33.7579848 10.3666608,30.237198 Z M11.9361266,30.237198 C11.9361266,32.9289275 15.1057057,35.1197037 19.0009409,35.1197037 C22.895168,35.1197037 26.0649487,32.9289275 26.0649487,30.237198 C26.0649487,27.5446951 22.895168,25.3544988 19.0009409,25.3544988 C15.1057057,25.3544988 11.9361266,27.5446951 11.9361266,30.237198 Z M19.7854722,29.1105848 C19.7854722,27.8683523 20.841797,26.8569719 22.1404775,26.8569719 C23.4385532,26.8569719 24.4952812,27.8683523 24.4952812,29.1105848 C24.4952812,30.3533975 23.4385532,31.3638111 22.1404775,31.3638111 C20.841797,31.3638111 19.7854722,30.3533975 19.7854722,29.1105848 Z M21.355543,29.1105848 C21.355543,29.5253068 21.7081889,29.8617247 22.1404775,29.8617247 C22.5727662,29.8617247 22.9254121,29.5253068 22.9254121,29.1105848 C22.9254121,28.6958628 22.5727662,28.3592516 22.1404775,28.3592516 C21.7081889,28.3592516 21.355543,28.6958628 21.355543,29.1105848 Z M13.5059958,29.1105848 C13.5059958,27.8683523 14.5629254,26.8569719 15.8612027,26.8569719 C17.1590768,26.8569719 18.2154015,27.8683523 18.2154015,29.1105848 C18.2154015,30.3533975 17.1590768,31.3638111 15.8612027,31.3638111 C14.5629254,31.3638111 13.5059958,30.3533975 13.5059958,29.1105848 Z M15.0760665,29.1105848 C15.0760665,29.5253068 15.4287124,29.8617247 15.8612027,29.8617247 C16.2932897,29.8617247 16.6459356,29.5253068 16.6459356,29.1105848 C16.6459356,28.6958628 16.2932897,28.3592516 15.8612027,28.3592516 C15.4287124,28.3592516 15.0760665,28.6958628 15.0760665,29.1105848 Z M39.0299788,27.6612813 C39.0311885,27.6612813 39.0323983,27.6612813 39.0336081,27.6612813 C39.0640538,27.6612813 39.0949027,27.663408 39.1257517,27.6676616 L42.8655324,28.1668748 C43.2445914,28.2173374 43.5101344,28.554142 43.4573081,28.9166612 C43.4093208,29.2484388 43.110711,29.4893449 42.7703643,29.4893449 C42.738104,29.4893449 42.7060453,29.4874115 42.6739866,29.4831579 L38.9342059,28.9837514 C38.7505235,28.9595835 38.5878104,28.8677453 38.4761089,28.7262178 C38.3644075,28.5844969 38.3172267,28.4097143 38.3428334,28.233965 C38.3908207,27.901994 38.6894305,27.6612813 39.0299788,27.6612813 Z M38.0817262,30.0229733 C38.1301167,29.6911957 38.4283233,29.4506762 38.7690732,29.4506762 C38.8009303,29.4506762 38.832989,29.452803 38.865451,29.4570566 L47.8402794,30.6552068 C48.2195401,30.7056695 48.4848815,31.0422807 48.4322568,31.4049933 C48.4066502,31.5811293 48.3106756,31.7365775 48.1628829,31.8436899 C48.0408985,31.9314679 47.8959285,31.977677 47.7461196,31.977677 C47.7138592,31.977677 47.6807924,31.9757436 47.6483304,31.97091 L38.6730987,30.7727597 C38.4898196,30.7483984 38.3271065,30.6571402 38.215405,30.5154194 C38.1033003,30.3740852 38.0561196,30.1993026 38.0817262,30.0229733 Z" id="path-15"></path>
    </defs>
    <g id="Page-1" stroke="none" stroke-width="1" fill="none" fill-rule="evenodd">
        <g id="VENUE-PAGE-Copy" transform="translate(-99.000000, -2060.000000)">
            <g id="HUB" transform="translate(0.000000, 1795.000000)">
                <g id="CULTURE" transform="translate(19.000000, 255.000000)">
                    <g id="piggetaround" transform="translate(75.000000, 8.000000)">
                        <g id="Page-1" transform="translate(5.192308, 2.771739)">
                            <g id="Group-3" transform="translate(0.000000, 35.030959)">
                                <mask id="mask-2" fill="white">
                                    <use xlink:href="#path-1"></use>
                                </mask>
                                <g id="Clip-2"></g>
                            </g>
                            <g id="Group-6" transform="translate(1.008136, 1.195830)">
                                <mask id="mask-4" fill="white">
                                    <use xlink:href="#path-3"></use>
                                </mask>
                                <g id="Clip-5"></g>
                                <polygon id="Fill-4" fill="#E5C0B5" mask="url(#mask-4)" points="-2.83528122 41.5158965 39.2487443 41.5158965 39.2487443 -2.63991343 -2.83528122 -2.63991343"></polygon>
                            </g>
                            <g id="Group-9" transform="translate(11.694376, 24.590405)">
                                <mask id="mask-6" fill="white">
                                    <use xlink:href="#path-5"></use>
                                </mask>
                                <g id="Clip-8"></g>
                                <polygon id="Fill-7" fill="#E3AAAA" mask="url(#mask-6)" points="-2.73729041 14.1260696 18.3809374 14.1260696 18.3809374 -2.70120335 -2.73729041 -2.70120335"></polygon>
                            </g>
                            <g id="Group-12" transform="translate(8.669968, 14.149851)">
                                <mask id="mask-8" fill="white">
                                    <use xlink:href="#path-7"></use>
                                </mask>
                                <g id="Clip-11"></g>
                                <polygon id="Fill-10" fill="#FEFEFE" mask="url(#mask-8)" points="-2.78527768 11.8469354 12.3764804 11.8469354 12.3764804 -2.67413524 -2.78527768 -2.67413524"></polygon>
                            </g>
                            <g id="Group-15" transform="translate(21.372480, 14.149851)">
                                <mask id="mask-10" fill="white">
                                    <use xlink:href="#path-9"></use>
                                </mask>
                                <g id="Clip-14"></g>
                                <polygon id="Fill-13" fill="#FEFEFE" mask="url(#mask-10)" points="-2.80463389 11.8469354 12.3571242 11.8469354 12.3571242 -2.67413524 -2.80463389 -2.67413524"></polygon>
                            </g>
                            <g id="Group-18" transform="translate(29.840821, 36.577708)">
                                <mask id="mask-12" fill="white">
                                    <use xlink:href="#path-11"></use>
                                </mask>
                                <g id="Clip-17"></g>
                                <polygon id="Fill-16" fill="#56BAA8" mask="url(#mask-12)" points="-2.8270145 8.85881012 15.6577609 8.85881012 15.6577609 -2.7102905 -2.8270145 -2.7102905"></polygon>
                            </g>
                            <g id="Group-21" transform="translate(32.663601, 20.530189)">
                                <mask id="mask-14" fill="white">
                                    <use xlink:href="#path-13"></use>
                                </mask>
                                <g id="Clip-20"></g>
                                <polygon id="Fill-19" fill="#56BAA8" mask="url(#mask-14)" points="-2.86915458 6.44684879 14.8417757 6.44684879 14.8417757 -2.68670258 -2.86915458 -2.68670258"></polygon>
                            </g>
                            <polygon id="Fill-22" fill="#FEFEFE" points="30.8198214 37.0059445 42.2754705 38.3860311 43.1531535 33.2260772 40.7707269 32.926008 37.5721135 34.1260917 37.949358 32.6259387 36.5349434 32.0136196 37.5721135 25.3904414 44.3445684 26.3068901 44.5953926 24.1659964 32.7042289 22.4721132"></polygon>
                            <polygon id="Fill-23" fill="#56BAA8" points="36.2564963 32.0132715 37.949358 32.6263641 38.0747701 34.4261996 40.3946923 32.9863699 42.5890007 33.1553522 50.2336947 33.9463208 50.802485 27.1661477 37.5721135 25.3908668"></polygon>
                            <g id="Group-26" transform="translate(0.403254, 0.035769)">
                                <mask id="mask-16" fill="white">
                                    <use xlink:href="#path-15"></use>
                                </mask>
                                <g id="Clip-25"></g>
                                <polygon id="Fill-24" fill="#3C3C3B" mask="url(#mask-16)" points="-2.7550336 46.1785706 54.3078741 46.1785706 54.3078741 -2.70042997 -2.7550336 -2.70042997"></polygon>
                            </g>
                        </g>
                    </g>
                </g>
            </g>
        </g>
    </g>
</svg>