<?xml version="1.0" encoding="UTF-8"?>
<svg width="20px" height="20px" viewBox="0 0 20 20" version="1.1" xmlns="http://www.w3.org/2000/svg" xmlns:xlink="http://www.w3.org/1999/xlink">
    <!-- Generator: Sketch 44.1 (41455) - http://www.bohemiancoding.com/sketch -->
    <title>cross_white copy</title>
    <desc>Created with Sketch.</desc>
    <defs></defs>
    <g id="Page-1" stroke="none" stroke-width="1" fill="none" fill-rule="evenodd">
        <g id="Location-Page" transform="translate(-1146.000000, -228.000000)" fill="#FFFFFF">
            <g id="Page-1" transform="translate(1146.000000, 228.000000)">
                <g id="cross_white">
                    <polygon id="Fill-1" points="16.0199171 -9.21658986e-06 9.96507834 6.05482949 3.91023963 -9.21658986e-06 2.93263594 0.977502304 9.96507834 8.0099447 16.9974286 0.977502304"></polygon>
                    <polygon id="Fill-2" points="11.9202304 9.96510599 18.9525806 16.9974562 19.9301843 16.0199447 13.8753456 9.96510599 19.9301843 3.91026728 18.9525806 2.93266359"></polygon>
                    <polygon id="Fill-3" points="0 3.9102212 6.05483871 9.96505991 0 16.0198986 0.977603687 16.9975023 8.00995392 9.96505991 0.977603687 2.93270968"></polygon>
                    <polygon id="Fill-4" points="2.93267281 18.9525806 3.91018433 19.9301843 9.96502304 13.8753456 16.0199539 19.9301843 16.9974654 18.9525806 9.96502304 11.9202304"></polygon>
                    <polygon id="Fill-5" points="18.4312074 17.5188111 10.8774747 9.96507834 18.4312074 2.41134562 17.5188571 1.49890323 9.96503226 9.05263594 2.41129954 1.49890323 1.49894931 2.41134562 9.05268203 9.96507834 1.49894931 17.5188111 2.41129954 18.4311613 9.96503226 10.8774286 17.5188571 18.4311613"></polygon>
                </g>
            </g>
        </g>
    </g>
</svg>