<?xml version="1.0" encoding="utf-8"?>
<!-- Generator: Adobe Illustrator 19.2.1, SVG Export Plug-In . SVG Version: 6.00 Build 0)  -->
<svg version="1.1" id="Layer_1" xmlns="http://www.w3.org/2000/svg" xmlns:xlink="http://www.w3.org/1999/xlink" x="0px" y="0px"
	 viewBox="0 0 330 800" style="enable-background:new 0 0 330 800;" xml:space="preserve">
<style type="text/css">
	.st0{fill:#FF851F;}
	.st1{filter:url(#Adobe_OpacityMaskFilter);}
	.st2{fill:#FFFFFF;}
	.st3{opacity:7.000000e-02;mask:url(#mask-2);}
</style>
<title>Menu-background</title>
<desc>Created with Sketch.</desc>
<g id="MAIN-NAV" transform="translate(1090.000000, 0.000000)">
	<g id="Menu-background" transform="translate(20.000000, 0.000000)">
		<g id="cross_white">
			<g id="Mask">
				<rect id="path-1_1_" x="-1110" y="0" class="st0" width="330" height="800"/>
			</g>
			<defs>
				<filter id="Adobe_OpacityMaskFilter" filterUnits="userSpaceOnUse" x="-1111" y="-0.3" width="333" height="801.3">
					<feColorMatrix  type="matrix" values="1 0 0 0 0  0 1 0 0 0  0 0 1 0 0  0 0 0 1 0"/>
				</filter>
			</defs>
			<mask maskUnits="userSpaceOnUse" x="-1111" y="-0.3" width="333" height="801.3" id="mask-2">
				<g class="st1">
					<rect id="path-1" x="-1110" y="0" class="st2" width="330" height="800"/>
				</g>
			</mask>
			<g class="st3">
				<g transform="translate(-766.000000, -254.000000)">
					<polygon class="st2" points="-12,253.7 -155,253.7 -345,443.7 -345,591.2 -12,258.2 					"/>
					<polygon class="st2" points="-12,803 -63.1,751.9 -12,700.8 -12,553.2 -210.6,751.9 -12,950.5 					"/>
					<path class="st2" d="M-345,912.5V1055c2.1-0.4,4.2-0.6,6.3-0.6h135.5L-345,912.5z"/>
					<polygon class="st2" points="-12,1029.2 -289.3,751.9 -12,474.6 -12,336.9 -345,669.9 -345,833.8 -124.4,1054.4 -12,1054.4 
											"/>
				</g>
			</g>
		</g>
	</g>
</g>
</svg>
