<svg xmlns="http://www.w3.org/2000/svg" width="74" height="52" viewBox="0 0 74 52">
    <g fill="#FFF" fill-rule="evenodd">
        <path d="M33.798 25.042c-1.045 1.665-1.908 2.555-4.157 3.763-2.248 1.209-6.11.548-6.405-2.6-.295-3.147 1.863-3.763 4.974-3.694 3.112.068 5.588 2.531 5.588 2.531M41.36 14.78c-.272 8.792-2.793 14.129-6.677 18.132-3.884 4.002-9.335 4.447-12.81 2.942-3.476-1.506-8.927-5.987-7.496-13.753 1.43-7.766 9.54-8.758 11.584-8.963 2.044-.205 7.052-.308 11.72 3.01 0 0-.205 4.345-3.066 7.937 0 0-3.135-3.284-8.177-2.737-5.043.548-4.539 3.76-4.497 4.995.05 1.522 1.771 4.755 6.132 3.969 4.361-.787 6.371-3.524 8.109-6.5 1.737-2.977 2.419-6.364 2.59-9.648.17-3.284-1.432-8.279-6.27-11.974 0 0 9.131 3.798 8.858 12.59m7.36 16.284c-1.159-6.363-4.191-10.058-6.61-12.52.75-6.638-1.124-11.085-4.77-14.37C33.696.89 29.232 0 29.232 0c10.528 8.895 8.586 14.984 8.586 14.984s-2.93-3.181-10.698-3.01c-7.768.17-12.47 4.481-13.696 9.852-1.227 5.371 1.601 13.856 10.085 15.6 8.483 1.745 13.968-6.02 13.968-6.02 1.75 6.408-2.316 11.426-2.316 11.426 5.69-6.33 3.066-12.932 3.066-12.932 2.828-4.892 3.611-10.126 3.611-10.126 4.668 5.029 5.792 11.563 5.792 11.563 2.147 10.195-1.43 18.679-1.43 18.679 3.168-5.03 3.679-12.59 2.52-18.953"/>
        <path d="M.34 51.92H0s13.184-14.063 37.136-13l.137.627S17.83 38.19.34 51.921M73.932 51.852s-9.457-8.154-25.076-11.495c-.474 1.334-.068.696-.068.696s11.857 1.026 24.326 10.8h.818z"/>
    </g>
</svg>
