<?xml version="1.0" encoding="UTF-8"?>
<svg width="20px" height="17px" viewBox="0 0 20 17" version="1.1" xmlns="http://www.w3.org/2000/svg" xmlns:xlink="http://www.w3.org/1999/xlink">
    <!-- Generator: Sketch 44.1 (41455) - http://www.bohemiancoding.com/sketch -->
    <title>Fill 4</title>
    <desc>Created with Sketch.</desc>
    <defs></defs>
    <g id="Page-1" stroke="none" stroke-width="1" fill="none" fill-rule="evenodd">
        <g id="Contact-Us" transform="translate(-1409.000000, -42.000000)" fill="#FFFFFF">
            <g id="MAIN-NAV" transform="translate(1402.000000, 0.000000)">
                <g id="Page-1" transform="translate(17.000000, 50.500000) rotate(-360.000000) translate(-17.000000, -50.500000) translate(7.000000, 42.000000)">
                    <path d="M12.4277778,0.547622159 C12.0855556,0.198832386 11.6277778,0.00444318182 11.1377778,-7.10542736e-15 C10.6377778,0.01221875 10.17,0.187724432 9.81222222,0.543178977 C9.09777778,1.25964205 9.09777778,2.42486648 9.81333333,3.14132955 L13.1766667,6.50259659 L1.83888889,6.50259659 C0.825555556,6.50259659 0,7.32791761 0,8.34207386 C0,9.3606733 0.825555556,10.1893267 1.83888889,10.1893267 L13.1722222,10.1893267 L9.8,13.5528153 C9.09777778,14.2803864 9.10555556,15.4467216 9.81555556,16.1487443 C10.1655556,16.4975341 10.6288889,16.6897017 11.1211111,16.6897017 C11.6311111,16.6852585 12.0911111,16.4886477 12.4222222,16.1465227 L18.9155556,9.65614489 C19.2688889,9.31290909 19.4711111,8.83304545 19.47,8.33985227 C19.4688889,7.84888068 19.2644444,7.37234943 18.9277778,7.04910795 L12.4277778,0.547622159 Z" id="Fill-4"></path>
                </g>
            </g>
        </g>
    </g>
</svg>