<?xml version="1.0" encoding="UTF-8" standalone="no"?>
<svg width="293px" height="294px" viewBox="0 0 293 294" version="1.1" xmlns="http://www.w3.org/2000/svg" xmlns:xlink="http://www.w3.org/1999/xlink">
    <!-- Generator: Sketch 44.1 (41455) - http://www.bohemiancoding.com/sketch -->
    <title>X-strokes</title>
    <desc>Created with Sketch.</desc>
    <defs></defs>
    <g id="Page-1" stroke="none" stroke-width="1" fill="none" fill-rule="evenodd">
        <g id="Homepage" transform="translate(-41.000000, -2051.000000)" fill="#FF6016">
            <g id="LOCATIONS" transform="translate(0.000000, 625.000000)">
                <g id="DOWNTOWN-Copy-2" transform="translate(41.000000, 1426.000000)">
                    <g id="X-strokes" transform="translate(0.183438, 0.122292)">
                        <path d="M206.189685,282.114993 L204.567092,280.49532 L193.820189,269.767756 L148.558956,224.587975 L146.936363,222.968302 L145.313006,224.587975 L100.051773,269.767756 L89.305635,280.49532 L87.6822773,282.114993 L78.406494,291.374084 C77.9581963,291.821575 77.9589614,292.547029 78.406494,292.993756 C78.8547916,293.441247 79.581554,293.441247 80.0298517,292.993756 L102.486045,270.577975 L146.936363,226.207647 L191.385917,270.577975 L213.842875,292.993756 C214.291173,293.441247 215.017935,293.441247 215.465468,292.993756 C215.913766,292.547029 215.913766,291.821575 215.465468,291.374084 L206.189685,282.114993 Z" id="Path"></path>
                        <path d="M269.76839,190.449611 L225.318071,146.080047 L269.76839,101.70972 L292.225348,79.2939382 C292.67288,78.8464473 292.67288,78.1209927 292.225348,77.6735018 C291.77705,77.2267745 291.050288,77.2260109 290.60199,77.6735018 L281.326207,86.9333564 L279.703614,88.5530291 L268.956711,99.2798291 L223.695478,144.460375 L222.072886,146.080047 L223.695478,147.69972 L268.956711,192.879502 L279.703614,203.607065 L281.326207,205.226738 L290.60199,214.485829 C291.050288,214.93332 291.77705,214.93332 292.225348,214.485829 C292.67288,214.039102 292.67288,213.313647 292.225348,212.866156 L269.76839,190.449611 Z" id="Path"></path>
                        <path d="M232.830499,148.600811 C233.464695,148.600811 233.978019,148.087647 233.978019,147.455356 L233.978019,147.226265 L234.208288,147.226265 C234.841719,147.226265 235.355807,146.713865 235.355807,146.080811 C235.355807,145.447756 234.841719,144.935356 234.208288,144.935356 L233.978019,144.935356 L233.978019,144.704738 C233.978019,144.071684 233.464695,143.559284 232.830499,143.559284 C232.197068,143.559284 231.68298,144.071684 231.68298,144.704738 L231.68298,144.935356 L231.452711,144.935356 C230.81928,144.935356 230.305191,145.447756 230.305191,146.080811 C230.305191,146.713865 230.81928,147.226265 231.452711,147.226265 L231.68298,147.226265 L231.68298,147.455356 C231.68298,148.087647 232.197068,148.600811 232.830499,148.600811 L232.830499,148.600811 Z" id="Path"></path>
                        <path d="M148.313387,232.561102 L148.083118,232.561102 L148.083118,232.331247 C148.083118,231.698193 147.569029,231.185793 146.935598,231.185793 C146.301403,231.185793 145.788079,231.698193 145.788079,232.331247 L145.788079,232.561102 L145.558575,232.561102 C144.924379,232.561102 144.411055,233.074265 144.411055,233.706556 C144.411055,234.338847 144.924379,234.852011 145.558575,234.852011 L145.788079,234.852011 L145.788079,235.081865 C145.788079,235.714156 146.301403,236.22732 146.935598,236.22732 C147.569029,236.22732 148.083118,235.714156 148.083118,235.081865 L148.083118,234.852011 L148.313387,234.852011 C148.947583,234.852011 149.460907,234.338847 149.460907,233.706556 C149.460907,233.074265 148.947583,232.561102 148.313387,232.561102 L148.313387,232.561102 Z" id="Path"></path>
                        <path d="M145.558575,60.7688836 L145.789609,60.7688836 L145.789609,60.9987382 C145.789609,61.6310291 146.302933,62.1441927 146.937128,62.1441927 C147.570559,62.1441927 148.084648,61.6310291 148.084648,60.9987382 L148.084648,60.7688836 L148.313387,60.7688836 C148.947583,60.7688836 149.460907,60.25572 149.460907,59.6234291 C149.460907,58.9903745 148.947583,58.4779745 148.313387,58.4779745 L148.084648,58.4779745 L148.084648,58.24812 C148.084648,57.6158291 147.570559,57.1026655 146.937128,57.1026655 C146.302933,57.1026655 145.789609,57.6158291 145.789609,58.24812 L145.789609,58.4779745 L145.558575,58.4779745 C144.924379,58.4779745 144.411055,58.9903745 144.411055,59.6234291 C144.411055,60.25572 144.924379,60.7688836 145.558575,60.7688836 L145.558575,60.7688836 Z" id="Path"></path>
                        <path d="M87.6822773,11.2149927 L89.305635,12.8346655 L100.051773,23.5622291 L145.313006,68.7420109 L146.936363,70.3616836 L148.558956,68.7420109 L193.820189,23.5622291 L204.567092,12.8346655 L206.189685,11.2149927 L215.465468,1.95590182 C215.913766,1.50841091 215.913766,0.782956364 215.465468,0.335465455 C215.017935,-0.111261818 214.291173,-0.111261818 213.842875,0.335465455 L191.385917,22.7520109 L146.936363,67.1223382 L102.486045,22.7520109 L80.0290867,0.335465455 C79.581554,-0.111261818 78.8547916,-0.111261818 78.406494,0.335465455 C77.9589614,0.782956364 77.9581963,1.50841091 78.406494,1.95590182 L87.6822773,11.2149927 Z" id="Path"></path>
                        <path d="M12.8578804,203.607065 L23.6040188,192.879502 L68.8652512,147.69972 L70.4886089,146.080047 L68.8652512,144.459611 L23.6040188,99.2798291 L12.8578804,88.5530291 L11.2345227,86.9325927 L1.95873943,77.6735018 C1.51044178,77.2260109 0.783679373,77.2267745 0.336146736,77.6735018 C-0.112150914,78.1209927 -0.112150914,78.8464473 0.336146736,79.2939382 L22.793105,101.70972 L67.2426585,146.080047 L22.793105,190.449611 L0.336146736,212.866156 C-0.112150914,213.313647 -0.112150914,214.039102 0.336146736,214.485829 C0.783679373,214.93332 1.51044178,214.93332 1.95873943,214.485829 L11.2345227,205.226738 L12.8578804,203.607065 Z" id="Path"></path>
                        <path d="M60.8777499,144.704738 L60.8777499,144.933829 L61.1087838,144.933829 C61.7422146,144.933829 62.2563034,145.446229 62.2563034,146.079284 C62.2563034,146.711575 61.7422146,147.224738 61.1087838,147.224738 L60.8777499,147.224738 L60.8777499,147.455356 C60.8777499,148.087647 60.3636611,148.600811 59.7302303,148.600811 C59.0967995,148.600811 58.5827107,148.087647 58.5827107,147.455356 L58.5827107,147.224738 L58.3524418,147.224738 C57.719011,147.224738 57.2049222,146.711575 57.2049222,146.079284 C57.2049222,145.446229 57.719011,144.933829 58.3524418,144.933829 L58.5827107,144.933829 L58.5827107,144.704738 C58.5827107,144.071684 59.0967995,143.559284 59.7302303,143.559284 C60.3636611,143.559284 60.8777499,144.071684 60.8777499,144.704738 L60.8777499,144.704738 Z" id="Path"></path>
                    </g>
                </g>
            </g>
        </g>
    </g>
</svg>